<svg id="Layer_20" data-name="Layer 20" xmlns="http://www.w3.org/2000/svg" viewBox="0 0 24 24"><defs><style>.cls-1{fill:none;}.cls-2{fill:#444;}</style></defs><title>delete-forever</title><path class="cls-1" d="M641.23,374.31h24v24h-24Z" transform="translate(-641.23 -374.31)"/><path class="cls-2" d="M647.23,393.31a2,2,0,0,0,2,2h8a2,2,0,0,0,2-2v-10a2,2,0,0,0-2-2h-8a2,2,0,0,0-2,2Zm3.17-7.83a1,1,0,0,1,1.41,0l1.42,1.42,1.42-1.42a1,1,0,1,1,1.41,1.41l-1.42,1.42,1.42,1.42a1,1,0,1,1-1.41,1.41l-1.42-1.42-1.42,1.42a1,1,0,0,1-1.41-1.41l1.42-1.42-1.42-1.42A1,1,0,0,1,650.4,385.48Zm6.33-7.17-.71-.71a1,1,0,0,0-.7-.29h-4.18a1,1,0,0,0-.7.29l-.71.71h-2.5a1,1,0,0,0,0,2h12a1,1,0,0,0,0-2Z" transform="translate(-641.23 -374.31)"/></svg>