<svg id="education" xmlns="http://www.w3.org/2000/svg" viewBox="0 0 101.79 99.6"><defs><style>.cls-1{fill:#6a785c;}.cls-2{fill:#444;}</style></defs><title>education</title><polygon class="cls-1" points="25.42 33.55 25.42 27.91 7.5 27.91 7.5 19.85 23.23 19.85 23.23 14.4 7.5 14.4 7.5 7.75 24.63 7.75 24.63 2.19 4.28 2.19 4.28 33.55 25.42 33.55"/><path class="cls-2" d="M836.53,448l-.16-5.64.16.16-17.92.36h-.52v-.53L818,434.3v-.62h.63l15.72-.2-.82.83,0-5.45.86.86-15.72.07h-.93v-.93l0-6.66v-.95h1l8.56,0,8.57,0-1,1,0-5.55,1,.95-20.35-.09.86-.86c0,5.23-.11,10.45-.17,15.68l-.2,15.68-.49-.49Zm0,0-21.14.48h-.48V448l-.2-15.68c-.06-5.23-.17-10.45-.17-15.68v-.85h.86l20.35-.09h.94v.95l0,5.55v1h-1l-8.57,0-8.56,0,.95-1,0,6.66-.92-.92,15.72.06h.87v.85l0,5.45v.83h-.82l-15.72-.2.62-.62-.1,8.06-.52-.52,17.92.36h.16v.15Z" transform="translate(-811.11 -414.45)"/><polygon class="cls-1" points="24.63 7.74 7.5 7.74 7.5 14.4 23.22 14.4 23.22 19.85 7.5 19.85 7.5 27.91 25.42 27.91 25.42 33.55 0.89 33.55 0.89 2.19 24.63 2.19 24.63 7.74"/><path class="cls-2" d="M835.74,422.19l-17.13.39.38-.39.13,6.66-.51-.51,15.72-.19h.7v.71l.06,5.45v.76h-.78l-7.86.08-7.86,0,.88-.88,0,8.06-.91-.92,17.92-.07h1V449h-1l-24.53-.1h-.89V448c0-5.23,0-10.45.11-15.68l.19-15.68v-.59H812c7.91.07,15.82.28,23.74.43h.15v.15Zm0,0-.16-5.55.16.15c-7.92.15-15.83.37-23.74.43l.58-.58.19,15.68c.09,5.23.09,10.45.11,15.68l-.88-.89,24.53-.1-1,1v-5.64l1,1-17.92-.07h-.92v-.91l0-8.06v-.89h.88l7.86,0,7.86.08-.77.77.06-5.45.71.71-15.72-.19h-.53v-.51l.13-6.66v-.39h.38Z" transform="translate(-811.11 -414.45)"/><path class="cls-1" d="M838,425l3.6,20.16,6.16-1a6.65,6.65,0,0,0,5.78-5.61,15.65,15.65,0,0,0,0-6.06q-.84-4.73-2.82-7t-6.53-1.5Zm11.37-6.75a10.84,10.84,0,0,1,6.14,3,14,14,0,0,1,3.17,4.61,23.94,23.94,0,0,1,1.52,5,20.3,20.3,0,0,1-.69,10.87q-2.43,6.35-9.67,7.56l-13.75,2.3-5.52-30.89,13.75-2.31a17.64,17.64,0,0,1,5-.16" transform="translate(-811.11 -414.45)"/><path class="cls-2" d="M838,425l2.38,10.21c.76,3.31,1.47,6.55,2.1,9.8l-1-.73c1.72-.31,3.43-.65,5.15-.94a12.55,12.55,0,0,0,2.37-.54,5.32,5.32,0,0,0,1.86-1.16,6.86,6.86,0,0,0,1.89-4.07,16.22,16.22,0,0,0-.1-4.91,19.69,19.69,0,0,0-1.32-4.8,8.33,8.33,0,0,0-1.25-2,4.14,4.14,0,0,0-1.88-1.21,11.6,11.6,0,0,0-4.92-.15Zm0,0,5.05-1.21a11.5,11.5,0,0,1,5.45-.34,5.24,5.24,0,0,1,2.57,1.41,9.84,9.84,0,0,1,1.64,2.31,19.17,19.17,0,0,1,1.69,5.18,16.31,16.31,0,0,1,.24,5.5,8.75,8.75,0,0,1-2.43,5.24,7.27,7.27,0,0,1-2.56,1.55,13.54,13.54,0,0,1-2.73.61c-1.72.29-3.45.53-5.17.79l-.89.14-.14-.86c-.56-3.47-1-7-1.5-10.37S838.4,428.23,838,425Z" transform="translate(-811.11 -414.45)"/><path class="cls-2" d="M849.4,418.28a10.62,10.62,0,0,1,6.34,2.82,14.93,14.93,0,0,1,3.94,5.88,24.89,24.89,0,0,1,1.6,6.92,19.82,19.82,0,0,1-.65,7.17,12.62,12.62,0,0,1-3.89,6.23,13.82,13.82,0,0,1-6.73,3l-13.72,2.33-1,.17-.17-1c-.91-5.15-1.82-10.3-2.67-15.47l-1.28-7.74L830,420.86l-.1-.65.62-.09c3.14-.45,6.28-.9,9.43-1.3l4.72-.63a16.86,16.86,0,0,1,4.76.09,18.14,18.14,0,0,0-4.71.31l-4.66.94c-3.1.65-6.22,1.25-9.33,1.84l.52-.73,1.53,7.69,1.49,7.71c1,5.14,1.92,10.28,2.86,15.43l-1.14-.8,13.74-2.28a12.1,12.1,0,0,0,5.9-2.46,11.3,11.3,0,0,0,3.5-5.34,18.5,18.5,0,0,0,.83-6.6,23.36,23.36,0,0,0-1.21-6.67,14.09,14.09,0,0,0-3.36-5.82A11.07,11.07,0,0,0,849.4,418.28Z" transform="translate(-811.11 -414.45)"/><path class="cls-1" d="M838,425l3.6,20.16,6.16-1a6.65,6.65,0,0,0,5.78-5.61,15.65,15.65,0,0,0,0-6.06q-.84-4.73-2.82-7t-6.53-1.5Zm11.37-6.75a10.84,10.84,0,0,1,6.14,3,14,14,0,0,1,3.17,4.61,23.94,23.94,0,0,1,1.52,5,20.3,20.3,0,0,1-.69,10.87q-2.43,6.35-9.67,7.56l-13.75,2.3-5.52-30.89,13.75-2.31A17.64,17.64,0,0,1,849.4,418.28Z" transform="translate(-811.11 -414.45)"/><path class="cls-2" d="M838,425l2.38,10.21c.76,3.31,1.47,6.55,2.1,9.8l-1-.73c1.72-.31,3.43-.65,5.15-.94a12.55,12.55,0,0,0,2.37-.54,5.32,5.32,0,0,0,1.86-1.16,6.86,6.86,0,0,0,1.89-4.07,16.22,16.22,0,0,0-.1-4.91,19.69,19.69,0,0,0-1.32-4.8,8.33,8.33,0,0,0-1.25-2,4.14,4.14,0,0,0-1.88-1.21,11.6,11.6,0,0,0-4.92-.15Zm0,0,5.05-1.21a11.5,11.5,0,0,1,5.45-.34,5.24,5.24,0,0,1,2.57,1.41,9.84,9.84,0,0,1,1.64,2.31,19.17,19.17,0,0,1,1.69,5.18,16.31,16.31,0,0,1,.24,5.5,8.75,8.75,0,0,1-2.43,5.24,7.27,7.27,0,0,1-2.56,1.55,13.54,13.54,0,0,1-2.73.61c-1.72.29-3.45.53-5.17.79l-.89.14-.14-.86c-.56-3.47-1-7-1.5-10.37S838.4,428.23,838,425Z" transform="translate(-811.11 -414.45)"/><path class="cls-2" d="M849.4,418.28a10.92,10.92,0,0,1,6.18,3,14.74,14.74,0,0,1,3.76,5.83,24.48,24.48,0,0,1,1.6,6.82,19.46,19.46,0,0,1-.57,7.07,12.46,12.46,0,0,1-3.73,6.18,13.37,13.37,0,0,1-6.64,3.05q-6.84,1.27-13.71,2.4l-1,.15-.17-.95c-.9-5.16-1.76-10.32-2.51-15.49l-2.33-15.53,0-.3.29,0c3.14-.42,6.28-.88,9.41-1.36l4.7-.73A17.51,17.51,0,0,1,849.4,418.28Zm0,0a17.43,17.43,0,0,0-4.73.14c-1.56.26-3.12.54-4.68.83-3.12.57-6.24,1.16-9.35,1.79l.24-.34,3.2,15.37c1.09,5.12,2.07,10.26,3,15.4l-1.13-.8c4.57-.78,9.16-1.53,13.75-2.21a12.72,12.72,0,0,0,6-2.4,11.28,11.28,0,0,0,3.64-5.39,18.43,18.43,0,0,0,.91-6.7,23.68,23.68,0,0,0-1.2-6.77,14.28,14.28,0,0,0-3.54-5.87A10.81,10.81,0,0,0,849.4,418.28Z" transform="translate(-811.11 -414.45)"/><path class="cls-1" d="M854.57,415.44h6.87V434.7a10.63,10.63,0,0,0,.79,4.71q1.23,2.64,5.34,2.64t5.32-2.64a10.65,10.65,0,0,0,.78-4.71V415.44h6.88v19.27a15.85,15.85,0,0,1-1.6,7.79q-3,5.1-11.38,5.1t-11.4-5.1a15.74,15.74,0,0,1-1.6-7.79Z" transform="translate(-811.11 -414.45)"/><path class="cls-2" d="M854.57,415.44l6.87-.2h.2v.21l.33,15.19.06,3.8a14.73,14.73,0,0,0,.38,3.62,5,5,0,0,0,.67,1.53,3.36,3.36,0,0,0,1.16,1.06,6.84,6.84,0,0,0,3.32.67,6.6,6.6,0,0,0,3.26-.76,3,3,0,0,0,1.08-1.06,4.4,4.4,0,0,0,.36-.72,5.79,5.79,0,0,0,.25-.77,15.33,15.33,0,0,0,.3-3.57l0-3.8-.07-15.19v-.95h.95l6.88,0h1v1c0,6.75,0,13.44-.08,20.23a18.83,18.83,0,0,1-.83,5.22,9.94,9.94,0,0,1-3,4.56,11.69,11.69,0,0,1-4.83,2.4,20.15,20.15,0,0,1-5.22.54,21.21,21.21,0,0,1-5.18-.67,11.66,11.66,0,0,1-4.72-2.44,9.72,9.72,0,0,1-2.86-4.49,18.8,18.8,0,0,1-.72-5.13C854.2,428.8,854.41,422,854.57,415.44Zm0,0,.52,20.18a18,18,0,0,0,.81,4.82,8.56,8.56,0,0,0,2.6,3.86c2.44,2,5.83,2.55,9.06,2.51s6.59-.65,8.91-2.68a8.14,8.14,0,0,0,2.44-3.79,17.17,17.17,0,0,0,.7-4.73c0-6.67-.08-13.45-.05-20.17l1,1-6.88,0,1-.95-.07,15.19,0,3.8a16.63,16.63,0,0,1-.39,4,6.47,6.47,0,0,1-.87,2,4.86,4.86,0,0,1-1.65,1.54,9.42,9.42,0,0,1-8.08-.1,4.69,4.69,0,0,1-1.58-1.52,6.48,6.48,0,0,1-.8-1.95,16.5,16.5,0,0,1-.31-3.93l0-3.8.34-15.19.19.2Z" transform="translate(-811.11 -414.45)"/><path class="cls-1" d="M854.57,415.44h6.87V434.7a10.63,10.63,0,0,0,.79,4.71q1.23,2.64,5.34,2.64t5.32-2.64a10.65,10.65,0,0,0,.78-4.71V415.44h6.88v19.27a15.85,15.85,0,0,1-1.6,7.79q-3,5.1-11.38,5.1t-11.4-5.1a15.74,15.74,0,0,1-1.6-7.79Z" transform="translate(-811.11 -414.45)"/><path class="cls-2" d="M854.57,415.44l6.87-.2h.2v.21l.33,15.19.06,3.8a14.73,14.73,0,0,0,.38,3.62,5,5,0,0,0,.67,1.53,3.36,3.36,0,0,0,1.16,1.06,6.84,6.84,0,0,0,3.32.67,6.6,6.6,0,0,0,3.26-.76,3,3,0,0,0,1.08-1.06,4.4,4.4,0,0,0,.36-.72,5.79,5.79,0,0,0,.25-.77,15.33,15.33,0,0,0,.3-3.57l0-3.8-.07-15.19v-.95h.95l6.88,0h1v1c0,6.75,0,13.44-.08,20.23a18.83,18.83,0,0,1-.83,5.22,9.94,9.94,0,0,1-3,4.56,11.69,11.69,0,0,1-4.83,2.4,20.15,20.15,0,0,1-5.22.54,21.21,21.21,0,0,1-5.18-.67,11.66,11.66,0,0,1-4.72-2.44,9.72,9.72,0,0,1-2.86-4.49,18.8,18.8,0,0,1-.72-5.13C854.2,428.8,854.41,422,854.57,415.44Zm0,0,.52,20.18a18,18,0,0,0,.81,4.82,8.56,8.56,0,0,0,2.6,3.86c2.44,2,5.83,2.55,9.06,2.51s6.59-.65,8.91-2.68a8.14,8.14,0,0,0,2.44-3.79,17.17,17.17,0,0,0,.7-4.73c0-6.67-.08-13.45-.05-20.17l1,1-6.88,0,1-.95-.07,15.19,0,3.8a16.63,16.63,0,0,1-.39,4,6.47,6.47,0,0,1-.87,2,4.86,4.86,0,0,1-1.65,1.54,9.42,9.42,0,0,1-8.08-.1,4.69,4.69,0,0,1-1.58-1.52,6.48,6.48,0,0,1-.8-1.95,16.5,16.5,0,0,1-.31-3.93l0-3.8.34-15.19.19.2Z" transform="translate(-811.11 -414.45)"/><path class="cls-1" d="M883.78,422.2a13.23,13.23,0,0,1,8.38-6.48q7.74-2.25,12.86,1.68a11.46,11.46,0,0,1,3.86,5l-6.48,1.88a9.15,9.15,0,0,0-2.6-2.8,6.87,6.87,0,0,0-5.73-.46,6.51,6.51,0,0,0-4.61,4.34q-1.14,3.34.42,8.4c1,3.37,2.53,5.69,4.45,7a7.08,7.08,0,0,0,6.14,1,6.29,6.29,0,0,0,4.41-3.64,9.42,9.42,0,0,0,.53-3.95l6.44-1.87a13.71,13.71,0,0,1-1.79,9.22,12.87,12.87,0,0,1-7.81,5.63c-4.42,1.28-8.31.9-11.7-1.14s-5.83-5.5-7.33-10.35q-2.43-7.86.56-13.37" transform="translate(-811.11 -414.45)"/><path class="cls-2" d="M883.78,422.2a12.59,12.59,0,0,1,5.31-5.5,17.44,17.44,0,0,1,3.62-1.45,19.86,19.86,0,0,1,3.84-.72,12.65,12.65,0,0,1,7.68,1.67,12.46,12.46,0,0,1,5.27,6l.25.66-.69.21-6.45,2-.53.16-.32-.47a9.87,9.87,0,0,0-1.87-2.16,4.89,4.89,0,0,0-2.42-1,7.38,7.38,0,0,0-2.75.21,6.85,6.85,0,0,0-2.49,1.14,6.46,6.46,0,0,0-2.32,4.78,16.07,16.07,0,0,0,.84,5.77,14.65,14.65,0,0,0,2.63,5.16,6.67,6.67,0,0,0,4.69,2.41,7.06,7.06,0,0,0,4.92-1.8,4.81,4.81,0,0,0,1.24-2.24,10.87,10.87,0,0,0,.23-2.83l0-.74.71-.2,6.44-1.84,1-.29.14,1a15.14,15.14,0,0,1-.86,7.61,12.9,12.9,0,0,1-4.77,6,17.36,17.36,0,0,1-7.11,2.61,14.61,14.61,0,0,1-7.52-.76,14.38,14.38,0,0,1-6-4.5,19.89,19.89,0,0,1-3.38-6.6,23.53,23.53,0,0,1-1.19-7.25,14,14,0,0,1,1.86-7,14.36,14.36,0,0,0-1.44,7,23.13,23.13,0,0,0,1.5,7,20.35,20.35,0,0,0,3.47,6.17,13.25,13.25,0,0,0,5.64,4,13.08,13.08,0,0,0,6.83.48,16.18,16.18,0,0,0,6.4-2.52,11.26,11.26,0,0,0,4.08-5.27,13.36,13.36,0,0,0,.68-6.73l1.16.76-6.42,1.9.68-.94a12.83,12.83,0,0,1-.26,3.35,6.78,6.78,0,0,1-1.71,3.15,8.07,8.07,0,0,1-3,1.86,8.27,8.27,0,0,1-9.49-2.59A16.51,16.51,0,0,1,889,434a17.69,17.69,0,0,1-.86-6.47,9.89,9.89,0,0,1,.86-3.3,7.17,7.17,0,0,1,2.2-2.72,8.4,8.4,0,0,1,3.13-1.41,8.83,8.83,0,0,1,3.41-.22,6.38,6.38,0,0,1,3.2,1.45,11.12,11.12,0,0,1,2.12,2.57l-.84-.31,6.5-1.79-.43.86a11.23,11.23,0,0,0-4.61-5.48,12.27,12.27,0,0,0-7-1.81,19,19,0,0,0-3.74.52,16.28,16.28,0,0,0-3.57,1.25A12.79,12.79,0,0,0,883.78,422.2Z" transform="translate(-811.11 -414.45)"/><path class="cls-1" d="M883.78,422.2a13.23,13.23,0,0,1,8.38-6.48q7.74-2.25,12.86,1.68a11.46,11.46,0,0,1,3.86,5l-6.48,1.88a9.15,9.15,0,0,0-2.6-2.8,6.87,6.87,0,0,0-5.73-.46,6.51,6.51,0,0,0-4.61,4.34q-1.14,3.34.42,8.4c1,3.37,2.53,5.69,4.45,7a7.08,7.08,0,0,0,6.14,1,6.29,6.29,0,0,0,4.41-3.64,9.42,9.42,0,0,0,.53-3.95l6.44-1.87a13.71,13.71,0,0,1-1.79,9.22,12.87,12.87,0,0,1-7.81,5.63c-4.42,1.28-8.31.9-11.7-1.14s-5.83-5.5-7.33-10.35Q880.79,427.71,883.78,422.2Z" transform="translate(-811.11 -414.45)"/><path class="cls-2" d="M883.78,422.2a12.74,12.74,0,0,1,5.4-5.33,17.5,17.5,0,0,1,3.59-1.37,19.52,19.52,0,0,1,3.8-.67,12.91,12.91,0,0,1,7.48,1.66,12.11,12.11,0,0,1,5.16,5.78l.14.35-.37.11-6.45,2-.33.11-.21-.31a10.13,10.13,0,0,0-1.94-2.21,5,5,0,0,0-2.55-1.05,7.39,7.39,0,0,0-2.83.26,6.9,6.9,0,0,0-2.53,1.21,6.53,6.53,0,0,0-2.28,4.88,15.89,15.89,0,0,0,.88,5.78,15.28,15.28,0,0,0,2.64,5.16,6.77,6.77,0,0,0,4.69,2.41,7,7,0,0,0,4.92-1.81,4.76,4.76,0,0,0,1.23-2.23,10.86,10.86,0,0,0,.24-2.83l0-.75.7-.2,6.46-1.79,1-.27.13,1a14.88,14.88,0,0,1-.93,7.55,12.79,12.79,0,0,1-4.79,5.88,17.47,17.47,0,0,1-7,2.53,14.3,14.3,0,0,1-7.36-.78,14.11,14.11,0,0,1-5.85-4.43,20.77,20.77,0,0,1-3.37-6.48,24.58,24.58,0,0,1-1.29-7.16A14.24,14.24,0,0,1,883.78,422.2Zm0,0a14.23,14.23,0,0,0-1.62,7,22.46,22.46,0,0,0,1.4,7.11,19.68,19.68,0,0,0,3.48,6.29,13.08,13.08,0,0,0,12.78,4.52,16.51,16.51,0,0,0,6.49-2.61,11.37,11.37,0,0,0,4.07-5.42,13.75,13.75,0,0,0,.6-6.77l1.11.72L905.68,435l.69-.95a12.85,12.85,0,0,1-.27,3.35,6.73,6.73,0,0,1-1.71,3.15,7.86,7.86,0,0,1-3,1.86,8.27,8.27,0,0,1-9.49-2.59A15.89,15.89,0,0,1,889,434a17.65,17.65,0,0,1-.81-6.46,9.66,9.66,0,0,1,.89-3.26,7.14,7.14,0,0,1,2.2-2.65,8.32,8.32,0,0,1,3.09-1.34,8.84,8.84,0,0,1,3.33-.17,6.29,6.29,0,0,1,3.07,1.42,11.16,11.16,0,0,1,2.06,2.52l-.55-.2,6.52-1.76-.24.46a11.46,11.46,0,0,0-4.71-5.66,12,12,0,0,0-7.25-1.82,18.71,18.71,0,0,0-7.37,1.9A12.67,12.67,0,0,0,883.78,422.2Z" transform="translate(-811.11 -414.45)"/><path class="cls-1" d="M828.66,463.67l-8,2,.92-13Zm-8.9,14.44.47-6.77,11.55-2.86,3.72,5.73,7.11-1.77-19.12-27.62-7.42,1.84-.68,7.14v25.39Z" transform="translate(-811.11 -414.45)"/><path class="cls-2" d="M828.66,463.67c-2.27.81-5,1.89-7.84,2.73l-1,.28v-1.07c0-1.09,0-2.17.09-3.25s.09-2.17.16-3.25.11-2.16.21-3.24l.26-3.24.25-3,1.51,2.52,1.77,3,1.64,3Zm0,0-4.21-5.42-1.92-2.52-1.78-2.51,1.75-.45-.19,3.24c-.06,1.08-.17,2.16-.25,3.24s-.18,2.16-.3,3.23-.23,2.16-.37,3.23l-.94-.79C822.94,464.44,825.59,464.19,828.66,463.67Z" transform="translate(-811.11 -414.45)"/><path class="cls-2" d="M819.76,478.11l.22-6.79v-.18l.19-.05c3.82-1.08,7.64-2.17,11.47-3.2l.4-.11.25.37,3.83,5.65-.8-.31,7.08-1.88-.5,1.32c-3.23-4.57-6.47-9.14-9.66-13.74s-6.37-9.21-9.55-13.82l1,.38-7.43,1.78.68-.79-.77,7.14v-.08c-.08,4.23-.14,8.46-.25,12.7s-.26,8.46-.39,12.69l-.23-.18Zm0,0-4.33,1.26-.22.07v-.25c-.12-4.23-.3-8.46-.38-12.69s-.18-8.47-.25-12.7v-.08l.6-7.15.05-.63.63-.16,7.39-1.9.65-.16.38.55c3.2,4.59,6.41,9.18,9.57,13.8s6.32,9.25,9.46,13.89l.7,1-1.2.27-7.13,1.65-.53.13-.27-.44-3.6-5.81.65.26c-3.87.88-7.75,1.7-11.63,2.53l.19-.23C820.27,473.66,820,475.92,819.76,478.11Z" transform="translate(-811.11 -414.45)"/><polygon class="cls-1" points="46.12 36.78 46.24 42.34 36.52 42.53 37.07 68.36 30.24 68.5 29.7 42.67 19.94 42.86 19.82 37.3 46.12 36.78"/><path class="cls-2" d="M857.23,451.23l.33,5.55V457h-.22l-9.71.49.5-.52c.19,4.3.38,8.61.53,12.91s.3,8.61.43,12.91l0,.92-.93,0-6.83.18-1,0,0-1-.29-12.92-.22-12.91,1,.91-9.76.09h-.84v-.82l0-5.56V451h7.42l6.64.05Zm0,0-13.32.68-6.51.31-6.46.27.72-.75.21,5.55-.84-.81,9.75-.29.93,0,0,.94.34,12.91.25,12.92-1-.95,6.83-.09-.9.94c0-4.3-.11-8.61-.12-12.92s0-8.61,0-12.92v-.52h.5l9.72.11-.21.21Z" transform="translate(-811.11 -414.45)"/><polygon class="cls-1" points="46.12 36.78 46.24 42.34 36.52 42.53 37.07 68.36 30.24 68.5 29.7 42.67 19.94 42.86 19.82 37.3 46.12 36.78"/><path class="cls-2" d="M857.23,451.23l.33,5.55V457h-.22l-9.71.49.5-.52c.19,4.3.38,8.61.53,12.91s.3,8.61.43,12.91l0,.92-.93,0-6.83.18-1,0,0-1-.29-12.92-.22-12.91,1,.91-9.76.09h-.84v-.82l0-5.56V451h7.42l6.64.05Zm0,0-13.32.68-6.51.31-6.46.27.72-.75.21,5.55-.84-.81,9.75-.29.93,0,0,.94.34,12.91.25,12.92-1-.95,6.83-.09-.9.94c0-4.3-.11-8.61-.12-12.92s0-8.61,0-12.92v-.52h.5l9.72.11-.21.21Z" transform="translate(-811.11 -414.45)"/><rect class="cls-1" x="45.22" y="34.23" width="6.75" height="31.4"/><path class="cls-2" d="M863.07,480.08l-6.75.35-.33,0,0-.37c-.27-5.24-.38-10.47-.5-15.7s-.13-10.47-.14-15.7v-1h1l6.75,0h1v1c0,2.67-.07,5.35-.11,8s-.14,5.32-.21,8-.18,5.25-.31,7.81Zm0,0-.34-8.08c-.13-2.67-.2-5.28-.3-7.89s-.18-5.18-.21-7.74-.12-5.13-.12-7.69l1,1-6.75,0,1-1q0,7.85-.14,15.7c-.12,5.23-.23,10.46-.5,15.7l-.36-.36Z" transform="translate(-811.11 -414.45)"/><rect class="cls-1" x="45.22" y="34.23" width="6.75" height="31.4"/><path class="cls-2" d="M863.07,480.08l-6.75.35-.33,0,0-.37c-.27-5.24-.38-10.47-.5-15.7s-.13-10.47-.14-15.7v-1h1l6.75,0h1v1c0,2.67-.07,5.35-.11,8s-.14,5.32-.21,8-.18,5.25-.31,7.81Zm0,0-.34-8.08c-.13-2.67-.2-5.28-.3-7.89s-.18-5.18-.21-7.74-.12-5.13-.12-7.69l1,1-6.75,0,1-1q0,7.85-.14,15.7c-.12,5.23-.23,10.46-.5,15.7l-.36-.36Z" transform="translate(-811.11 -414.45)"/><path class="cls-1" d="M882.06,474.3q2.37-2.88,2.37-8.18c0-3.52-.79-6.25-2.37-8.17a8.57,8.57,0,0,0-12.83,0c-1.61,1.92-2.41,4.64-2.41,8.18s.8,6.26,2.41,8.18a8,8,0,0,0,6.43,2.87,7.87,7.87,0,0,0,6.4-2.87m4.24,4.77q-3.67,3.66-10.64,3.66T865,479.07q-4.93-4.5-4.94-12.95,0-8.62,4.94-12.95,3.68-3.68,10.64-3.67t10.64,3.67q4.92,4.32,4.91,12.95,0,8.46-4.91,12.95" transform="translate(-811.11 -414.45)"/><path class="cls-2" d="M882.06,474.3a12.65,12.65,0,0,0,1.87-7.5,14.63,14.63,0,0,0-1.75-7.32,7.71,7.71,0,0,0-2.52-2.5,7.19,7.19,0,0,0-3.39-1,8.58,8.58,0,0,0-3.51.51,6.76,6.76,0,0,0-2.78,2,11.36,11.36,0,0,0-2.2,6.86,14.16,14.16,0,0,0,1.31,7.3,7.78,7.78,0,0,0,2.42,2.68,7.58,7.58,0,0,0,3.46,1.23,9.21,9.21,0,0,0,3.8-.3,7.84,7.84,0,0,0,3.29-2.06,7.56,7.56,0,0,1-3.09,2.58,9.74,9.74,0,0,1-4.06.76,8.78,8.78,0,0,1-4.09-1.09,8.88,8.88,0,0,1-3.08-3,11.75,11.75,0,0,1-1.51-4,20.09,20.09,0,0,1-.34-4.16,13,13,0,0,1,2.56-8.08,8.78,8.78,0,0,1,3.61-2.59,10.11,10.11,0,0,1,4.33-.58,9.09,9.09,0,0,1,4.18,1.35,8.72,8.72,0,0,1,2.95,3.21,14.76,14.76,0,0,1,1.38,8.13C884.69,469.51,884,472.35,882.06,474.3Z" transform="translate(-811.11 -414.45)"/><path class="cls-2" d="M886.3,479.07a11.66,11.66,0,0,1-2.52,2.05,14,14,0,0,1-3,1.28,21.64,21.64,0,0,1-6.51.78,16.61,16.61,0,0,1-6.5-1.39,11.4,11.4,0,0,1-2.86-1.85,16.84,16.84,0,0,1-2.33-2.44,15.7,15.7,0,0,1-2.82-6.14,25,25,0,0,1-.57-6.66,20.3,20.3,0,0,1,1.28-6.62,14.44,14.44,0,0,1,3.87-5.64,12.24,12.24,0,0,1,2.8-2.05,14.75,14.75,0,0,1,3.23-1.24,21.76,21.76,0,0,1,6.71-.55,17.11,17.11,0,0,1,6.57,1.64,11.66,11.66,0,0,1,2.85,2,15.6,15.6,0,0,1,2.27,2.51,15.4,15.4,0,0,1,2.59,6.2,25.54,25.54,0,0,1,.32,6.58,20.25,20.25,0,0,1-1.52,6.38,13.54,13.54,0,0,1-3.85,5.2,14.62,14.62,0,0,0,3.36-5.39,19.7,19.7,0,0,0,1-6.23c.08-4.2-.67-8.58-3.18-11.81a14.74,14.74,0,0,0-2.14-2.19,10.53,10.53,0,0,0-2.49-1.64,15.37,15.37,0,0,0-5.92-1.32c-4.11-.19-8.44.53-11.27,3.41-3.12,2.66-4.42,6.76-4.63,10.89s.39,8.44,2.76,11.79a15.7,15.7,0,0,0,2,2.29,10.74,10.74,0,0,0,2.47,1.75,16,16,0,0,0,6,1.59,21,21,0,0,0,6.32-.32A12.47,12.47,0,0,0,886.3,479.07Z" transform="translate(-811.11 -414.45)"/><path class="cls-1" d="M882.06,474.3q2.37-2.88,2.37-8.18c0-3.52-.79-6.25-2.37-8.17a8.57,8.57,0,0,0-12.83,0c-1.61,1.92-2.41,4.64-2.41,8.18s.8,6.26,2.41,8.18a8,8,0,0,0,6.43,2.87A7.87,7.87,0,0,0,882.06,474.3Zm4.24,4.77q-3.67,3.66-10.64,3.66T865,479.07q-4.93-4.5-4.94-12.95,0-8.62,4.94-12.95,3.68-3.68,10.64-3.67t10.64,3.67q4.92,4.32,4.91,12.95Q891.21,474.58,886.3,479.07Z" transform="translate(-811.11 -414.45)"/><path class="cls-2" d="M882.06,474.3a9.67,9.67,0,0,0,1.75-3.55,15.85,15.85,0,0,0,.47-3.94,14.19,14.19,0,0,0-1.86-7.47,7.83,7.83,0,0,0-2.66-2.53,7.63,7.63,0,0,0-3.48-.87,7.48,7.48,0,0,0-6.3,2.65,11.8,11.8,0,0,0-2.28,6.86,14.06,14.06,0,0,0,1.15,7.44,7.85,7.85,0,0,0,2.48,2.83A7.67,7.67,0,0,0,875,477a9.23,9.23,0,0,0,3.9-.42A7.66,7.66,0,0,0,882.06,474.3Zm0,0a7.77,7.77,0,0,1-3.18,2.36,9.82,9.82,0,0,1-4,.63,8.56,8.56,0,0,1-3.93-1,8.7,8.7,0,0,1-3-2.86,15.07,15.07,0,0,1-2-8,16.66,16.66,0,0,1,.51-4.18,10.73,10.73,0,0,1,2-3.9,8.8,8.8,0,0,1,3.61-2.58,10.06,10.06,0,0,1,4.33-.5,8.69,8.69,0,0,1,4.08,1.42,8.94,8.94,0,0,1,2.81,3.19,15.06,15.06,0,0,1,1.27,8A12.84,12.84,0,0,1,882.06,474.3Z" transform="translate(-811.11 -414.45)"/><path class="cls-2" d="M886.3,479.07a12.16,12.16,0,0,1-5.59,3.11,21.68,21.68,0,0,1-6.43.65,17,17,0,0,1-6.37-1.34,11.76,11.76,0,0,1-2.8-1.78,16.33,16.33,0,0,1-2.32-2.38,16,16,0,0,1-2.86-6,25,25,0,0,1-.67-6.61,20.49,20.49,0,0,1,1.22-6.62,14.29,14.29,0,0,1,3.85-5.65,12.87,12.87,0,0,1,2.8-2.05,15.24,15.24,0,0,1,3.23-1.23,21.69,21.69,0,0,1,6.7-.48,16.67,16.67,0,0,1,6.5,1.73,11.53,11.53,0,0,1,2.77,2,15.93,15.93,0,0,1,2.21,2.49A15.57,15.57,0,0,1,891,461a26.24,26.24,0,0,1,.3,6.5,20.61,20.61,0,0,1-1.38,6.31A14,14,0,0,1,886.3,479.07Zm0,0a14,14,0,0,0,3.57-5.31,19.36,19.36,0,0,0,1.17-6.3c.09-4.24-.7-8.71-3.3-12a16.48,16.48,0,0,0-2.21-2.21,10.92,10.92,0,0,0-2.57-1.62,16.24,16.24,0,0,0-6-1.24c-4.13-.12-8.45.62-11.28,3.5-3.12,2.65-4.44,6.75-4.71,10.89s.21,8.51,2.61,11.95a15.91,15.91,0,0,0,2.06,2.37,11,11,0,0,0,2.54,1.82,15.62,15.62,0,0,0,6.11,1.62,20.79,20.79,0,0,0,6.39-.44A12.11,12.11,0,0,0,886.3,479.07Z" transform="translate(-811.11 -414.45)"/><polygon class="cls-1" points="80.04 64.86 80.04 42.61 93.22 64.86 99.98 64.86 99.98 33.5 93.68 33.5 93.68 55.37 80.83 33.5 73.74 33.5 73.74 64.86 80.04 64.86"/><path class="cls-2" d="M891.15,479.31l-.47-22.25,0-1.74.92,1.5L905,478.91l-.68-.39,6.76-.06-.85.85L910.12,448l1,1-6.3,0,1-1-.09,21.87v3.36l-1.69-2.9-6.38-11c-2.14-3.64-4.23-7.32-6.33-11l.65.37-7.09-.08.67-.67-.2,15.68L885,479.31l-.16-.16Zm0,0-6.3.16h-.16v-.17l-.31-15.68-.2-15.68v-.66h.68l7.09-.08h.42l.23.38c2.18,3.62,4.37,7.23,6.52,10.88l6.47,10.9-1.71.47L903.79,448v-1h1l6.3,0h1v1l-.13,31.36v.86h-.85l-6.76-.06h-.46l-.22-.38L890.74,457.3l.88-.24Z" transform="translate(-811.11 -414.45)"/><polygon class="cls-1" points="25.42 95.04 25.42 89.4 7.5 89.4 7.5 81.34 23.23 81.34 23.23 75.89 7.5 75.89 7.5 69.24 24.63 69.24 24.63 63.69 4.28 63.69 4.28 95.04 25.42 95.04"/><path class="cls-2" d="M836.53,509.49l-.16-5.64.16.16-17.92.36h-.52v-.53l-.11-8.06v-.62h.63l15.72-.21-.82.83,0-5.45.86.87-15.72.06h-.93v-.94l0-6.65v-1h1l8.56,0,8.57,0-1,1,0-5.56,1,.95L815.39,479l.86-.87c0,5.23-.11,10.46-.17,15.68l-.2,15.68-.49-.49Zm0,0-21.14.49h-.48v-.5l-.2-15.68c-.06-5.22-.17-10.45-.17-15.68v-.85h.86l20.35-.08h.94v.95l0,5.56v1h-1l-8.57,0-8.56,0,.95-.95,0,6.65-.92-.92,15.72.06h.87v.85l0,5.45v.84h-.82l-15.72-.21.62-.62-.1,8.06-.52-.52,17.92.36h.16v.15Z" transform="translate(-811.11 -414.45)"/><path class="cls-1" d="M837.8,486.25l3.62,20.19,6.17-1a6.65,6.65,0,0,0,5.8-5.62,15.49,15.49,0,0,0,0-6.07,14.48,14.48,0,0,0-2.83-7q-2-2.27-6.55-1.5Zm11.42-6.75a10.8,10.8,0,0,1,6.15,3,14,14,0,0,1,3.18,4.61,24.07,24.07,0,0,1,1.53,5,20.24,20.24,0,0,1-.7,10.88c-1.62,4.24-4.86,6.76-9.69,7.57l-13.8,2.31L830.35,482l13.79-2.32a17.8,17.8,0,0,1,5.08-.15" transform="translate(-811.11 -414.45)"/><path class="cls-2" d="M837.8,486.25l2.39,10.23c.76,3.31,1.47,6.55,2.11,9.81l-1-.73c1.72-.31,3.44-.65,5.16-.94a12.66,12.66,0,0,0,2.38-.54,5.46,5.46,0,0,0,1.87-1.16,7,7,0,0,0,1.9-4.08,17,17,0,0,0-.1-4.92,19.79,19.79,0,0,0-1.33-4.81,8.47,8.47,0,0,0-1.26-2,4.12,4.12,0,0,0-1.89-1.21,11.49,11.49,0,0,0-4.93-.14Zm0,0,5.07-1.21a11.8,11.8,0,0,1,5.46-.34,5.31,5.31,0,0,1,2.58,1.41,9.64,9.64,0,0,1,1.64,2.31,18.83,18.83,0,0,1,1.71,5.19,16.65,16.65,0,0,1,.24,5.51,8.78,8.78,0,0,1-2.45,5.25,7.31,7.31,0,0,1-2.57,1.55,14.26,14.26,0,0,1-2.73.61c-1.72.29-3.45.53-5.18.79l-.89.14-.14-.86c-.57-3.48-1.06-7-1.51-10.38S838.18,489.46,837.8,486.25Z" transform="translate(-811.11 -414.45)"/><path class="cls-2" d="M849.22,479.5a11.2,11.2,0,0,1,3.39.86,11.46,11.46,0,0,1,3,2,14.92,14.92,0,0,1,3.95,5.88,24.33,24.33,0,0,1,1.6,6.94,19.63,19.63,0,0,1-.65,7.18,12.48,12.48,0,0,1-3.91,6.24,13.83,13.83,0,0,1-6.74,3l-13.76,2.34-1,.17-.17-1c-.91-5.16-1.83-10.32-2.68-15.49L831,489.84l-1.24-7.76-.1-.65.62-.09c3.15-.45,6.3-.9,9.46-1.31l4.73-.62a16.36,16.36,0,0,1,4.79.09,18.27,18.27,0,0,0-4.73.31l-4.68.94c-3.11.64-6.24,1.24-9.36,1.84l.52-.74,1.54,7.71,1.49,7.72c1,5.14,1.93,10.29,2.87,15.45l-1.14-.8,13.77-2.28a12.17,12.17,0,0,0,5.92-2.46,11.26,11.26,0,0,0,3.52-5.34,18.39,18.39,0,0,0,.83-6.62,23.42,23.42,0,0,0-1.2-6.68,14.31,14.31,0,0,0-3.38-5.84A11.12,11.12,0,0,0,849.22,479.5Z" transform="translate(-811.11 -414.45)"/><path class="cls-1" d="M837.8,486.25l3.62,20.19,6.17-1a6.65,6.65,0,0,0,5.8-5.62,15.49,15.49,0,0,0,0-6.07,14.48,14.48,0,0,0-2.83-7q-2-2.27-6.55-1.5Zm11.42-6.75a10.8,10.8,0,0,1,6.15,3,14,14,0,0,1,3.18,4.61,24.07,24.07,0,0,1,1.53,5,20.24,20.24,0,0,1-.7,10.88c-1.62,4.24-4.86,6.76-9.69,7.57l-13.8,2.31L830.35,482l13.79-2.32A17.8,17.8,0,0,1,849.22,479.5Z" transform="translate(-811.11 -414.45)"/><path class="cls-2" d="M837.8,486.25l2.39,10.23c.76,3.31,1.47,6.55,2.11,9.81l-1-.73c1.72-.31,3.44-.65,5.16-.94a12.66,12.66,0,0,0,2.38-.54,5.46,5.46,0,0,0,1.87-1.16,7,7,0,0,0,1.9-4.08,17,17,0,0,0-.1-4.92,19.79,19.79,0,0,0-1.33-4.81,8.47,8.47,0,0,0-1.26-2,4.12,4.12,0,0,0-1.89-1.21,11.49,11.49,0,0,0-4.93-.14Zm0,0,5.07-1.21a11.8,11.8,0,0,1,5.46-.34,5.31,5.31,0,0,1,2.58,1.41,9.64,9.64,0,0,1,1.64,2.31,18.83,18.83,0,0,1,1.71,5.19,16.65,16.65,0,0,1,.24,5.51,8.78,8.78,0,0,1-2.45,5.25,7.31,7.31,0,0,1-2.57,1.55,14.26,14.26,0,0,1-2.73.61c-1.72.29-3.45.53-5.18.79l-.89.14-.14-.86c-.57-3.48-1.06-7-1.51-10.38S838.18,489.46,837.8,486.25Z" transform="translate(-811.11 -414.45)"/><path class="cls-2" d="M849.22,479.5a10.92,10.92,0,0,1,6.19,3,14.76,14.76,0,0,1,3.77,5.83,24.36,24.36,0,0,1,1.61,6.84,19.48,19.48,0,0,1-.57,7.08,12.64,12.64,0,0,1-3.76,6.2,13.55,13.55,0,0,1-6.66,3q-6.85,1.28-13.75,2.39l-1,.16-.17-.95c-.9-5.16-1.76-10.33-2.52-15.52L830.06,482l0-.3.29,0c3.15-.43,6.3-.88,9.44-1.37l4.72-.73A17.25,17.25,0,0,1,849.22,479.5Zm0,0a17.19,17.19,0,0,0-4.75.14c-1.57.25-3.14.53-4.7.83-3.13.56-6.26,1.16-9.38,1.78l.24-.34,3.21,15.4c1.09,5.12,2.07,10.27,3,15.42l-1.13-.8q6.87-1.19,13.78-2.21a12.65,12.65,0,0,0,6-2.4,11.25,11.25,0,0,0,3.66-5.39,18.54,18.54,0,0,0,.92-6.72,23.36,23.36,0,0,0-1.21-6.78,14.33,14.33,0,0,0-3.55-5.89A11,11,0,0,0,849.22,479.5Z" transform="translate(-811.11 -414.45)"/><path class="cls-1" d="M854.57,476.93h6.87v19.26a10.63,10.63,0,0,0,.79,4.71q1.23,2.64,5.34,2.64t5.32-2.64a10.65,10.65,0,0,0,.78-4.71V476.93h6.88V496.2A15.82,15.82,0,0,1,879,504q-3,5.1-11.38,5.1t-11.4-5.1a15.71,15.71,0,0,1-1.6-7.79Z" transform="translate(-811.11 -414.45)"/><path class="cls-2" d="M854.57,476.93l6.87-.2h.2v.2l.33,15.19.06,3.8a14.73,14.73,0,0,0,.38,3.62,5,5,0,0,0,.67,1.53,3.36,3.36,0,0,0,1.16,1.06,7.92,7.92,0,0,0,6.58-.09A3.11,3.11,0,0,0,871.9,501a5.37,5.37,0,0,0,.36-.72,5.93,5.93,0,0,0,.25-.78,15.33,15.33,0,0,0,.3-3.57l0-3.8-.07-15.19V476h.95l6.88,0h1v1c0,6.75,0,13.44-.08,20.23a18.83,18.83,0,0,1-.83,5.22,9.94,9.94,0,0,1-3,4.56,11.69,11.69,0,0,1-4.83,2.4,22.65,22.65,0,0,1-10.4-.13,11.53,11.53,0,0,1-4.72-2.44,9.74,9.74,0,0,1-2.86-4.48,18.87,18.87,0,0,1-.72-5.14C854.2,490.29,854.41,483.49,854.57,476.93Zm0,0,.52,20.19a18,18,0,0,0,.81,4.81,8.5,8.5,0,0,0,2.6,3.86c2.44,2,5.83,2.55,9.06,2.51s6.59-.65,8.91-2.68a8.14,8.14,0,0,0,2.44-3.79,17.17,17.17,0,0,0,.7-4.73c0-6.67-.08-13.45-.05-20.17l1,1-6.88,0,1-.95-.07,15.19,0,3.8a16.63,16.63,0,0,1-.39,4,6.36,6.36,0,0,1-.87,2,4.86,4.86,0,0,1-1.65,1.54,9.33,9.33,0,0,1-8.08-.1A4.69,4.69,0,0,1,862,501.8a6.48,6.48,0,0,1-.8-1.95,16.5,16.5,0,0,1-.31-3.93l0-3.8.34-15.19.19.2Z" transform="translate(-811.11 -414.45)"/><path class="cls-1" d="M854.57,476.93h6.87v19.26a10.63,10.63,0,0,0,.79,4.71q1.23,2.64,5.34,2.64t5.32-2.64a10.65,10.65,0,0,0,.78-4.71V476.93h6.88V496.2A15.82,15.82,0,0,1,879,504q-3,5.1-11.38,5.1t-11.4-5.1a15.71,15.71,0,0,1-1.6-7.79Z" transform="translate(-811.11 -414.45)"/><path class="cls-2" d="M854.57,476.93l6.87-.2h.2v.2l.33,15.19.06,3.8a14.73,14.73,0,0,0,.38,3.62,5,5,0,0,0,.67,1.53,3.36,3.36,0,0,0,1.16,1.06,7.92,7.92,0,0,0,6.58-.09A3.11,3.11,0,0,0,871.9,501a5.37,5.37,0,0,0,.36-.72,5.93,5.93,0,0,0,.25-.78,15.33,15.33,0,0,0,.3-3.57l0-3.8-.07-15.19V476h.95l6.88,0h1v1c0,6.75,0,13.44-.08,20.23a18.83,18.83,0,0,1-.83,5.22,9.94,9.94,0,0,1-3,4.56,11.69,11.69,0,0,1-4.83,2.4,22.65,22.65,0,0,1-10.4-.13,11.53,11.53,0,0,1-4.72-2.44,9.74,9.74,0,0,1-2.86-4.48,18.87,18.87,0,0,1-.72-5.14C854.2,490.29,854.41,483.49,854.57,476.93Zm0,0,.52,20.19a18,18,0,0,0,.81,4.81,8.5,8.5,0,0,0,2.6,3.86c2.44,2,5.83,2.55,9.06,2.51s6.59-.65,8.91-2.68a8.14,8.14,0,0,0,2.44-3.79,17.17,17.17,0,0,0,.7-4.73c0-6.67-.08-13.45-.05-20.17l1,1-6.88,0,1-.95-.07,15.19,0,3.8a16.63,16.63,0,0,1-.39,4,6.36,6.36,0,0,1-.87,2,4.86,4.86,0,0,1-1.65,1.54,9.33,9.33,0,0,1-8.08-.1A4.69,4.69,0,0,1,862,501.8a6.48,6.48,0,0,1-.8-1.95,16.5,16.5,0,0,1-.31-3.93l0-3.8.34-15.19.19.2Z" transform="translate(-811.11 -414.45)"/><path class="cls-1" d="M883.78,483.69a13.23,13.23,0,0,1,8.38-6.48Q899.9,475,905,478.9a11.38,11.38,0,0,1,3.86,5l-6.48,1.89a8.92,8.92,0,0,0-2.6-2.8,6.83,6.83,0,0,0-5.73-.47,6.5,6.5,0,0,0-4.61,4.35c-.76,2.23-.62,5,.42,8.39s2.53,5.69,4.45,7a7.08,7.08,0,0,0,6.14,1,6.29,6.29,0,0,0,4.41-3.64,9.39,9.39,0,0,0,.53-3.95l6.44-1.87a13.75,13.75,0,0,1-1.79,9.23,12.86,12.86,0,0,1-7.81,5.62c-4.42,1.28-8.31.9-11.7-1.13s-5.83-5.51-7.33-10.36q-2.43-7.86.56-13.37" transform="translate(-811.11 -414.45)"/><path class="cls-2" d="M883.78,483.69a12.57,12.57,0,0,1,5.31-5.49,16.94,16.94,0,0,1,3.62-1.46,20.65,20.65,0,0,1,3.84-.72,12.72,12.72,0,0,1,7.68,1.67,12.44,12.44,0,0,1,5.27,6l.25.65-.69.21-6.45,2-.53.16-.32-.47a9.87,9.87,0,0,0-1.87-2.16,4.89,4.89,0,0,0-2.42-1,7.18,7.18,0,0,0-2.75.22,6.67,6.67,0,0,0-2.49,1.13,6.46,6.46,0,0,0-2.32,4.78,16,16,0,0,0,.84,5.77,14.65,14.65,0,0,0,2.63,5.16,6.67,6.67,0,0,0,4.68,2.41,7.07,7.07,0,0,0,4.93-1.8,4.76,4.76,0,0,0,1.24-2.24,10.87,10.87,0,0,0,.23-2.83l0-.74.71-.2,6.44-1.84,1-.29.14,1.05a15.11,15.11,0,0,1-.86,7.61,12.9,12.9,0,0,1-4.77,6,17.36,17.36,0,0,1-7.11,2.61,14.61,14.61,0,0,1-7.52-.76,14.38,14.38,0,0,1-6-4.5,19.89,19.89,0,0,1-3.38-6.6,23.53,23.53,0,0,1-1.19-7.25,14,14,0,0,1,1.86-7,14.36,14.36,0,0,0-1.44,7,23.13,23.13,0,0,0,1.5,7,20.35,20.35,0,0,0,3.47,6.17,12.82,12.82,0,0,0,12.47,4.47,16.35,16.35,0,0,0,6.4-2.53,11.26,11.26,0,0,0,4.08-5.27,13.34,13.34,0,0,0,.68-6.73l1.16.76-6.42,1.9.68-.94a12.83,12.83,0,0,1-.26,3.35,6.73,6.73,0,0,1-1.71,3.15,8.07,8.07,0,0,1-3,1.86,8.42,8.42,0,0,1-3.43.55,8.65,8.65,0,0,1-6.06-3.14,16.51,16.51,0,0,1-2.94-5.86,17.69,17.69,0,0,1-.86-6.47,9.89,9.89,0,0,1,.86-3.3,7.17,7.17,0,0,1,2.2-2.72,8.56,8.56,0,0,1,3.13-1.41,8.83,8.83,0,0,1,3.41-.22,6.46,6.46,0,0,1,3.2,1.45,11.33,11.33,0,0,1,2.12,2.57l-.84-.31,6.5-1.79-.43.86a11.23,11.23,0,0,0-4.61-5.48,12.27,12.27,0,0,0-7-1.81,19,19,0,0,0-3.74.53,15.74,15.74,0,0,0-3.57,1.24A12.79,12.79,0,0,0,883.78,483.69Z" transform="translate(-811.11 -414.45)"/><path class="cls-1" d="M883.78,483.69a13.23,13.23,0,0,1,8.38-6.48Q899.9,475,905,478.9a11.38,11.38,0,0,1,3.86,5l-6.48,1.89a8.92,8.92,0,0,0-2.6-2.8,6.83,6.83,0,0,0-5.73-.47,6.5,6.5,0,0,0-4.61,4.35c-.76,2.23-.62,5,.42,8.39s2.53,5.69,4.45,7a7.08,7.08,0,0,0,6.14,1,6.29,6.29,0,0,0,4.41-3.64,9.39,9.39,0,0,0,.53-3.95l6.44-1.87a13.75,13.75,0,0,1-1.79,9.23,12.86,12.86,0,0,1-7.81,5.62c-4.42,1.28-8.31.9-11.7-1.13s-5.83-5.51-7.33-10.36Q880.79,489.2,883.78,483.69Z" transform="translate(-811.11 -414.45)"/><path class="cls-2" d="M883.78,483.69a12.74,12.74,0,0,1,5.4-5.33,17.5,17.5,0,0,1,3.59-1.37,20.28,20.28,0,0,1,3.8-.66,12.75,12.75,0,0,1,7.48,1.66,12,12,0,0,1,5.16,5.77l.14.35-.37.11-6.45,2-.33.11L902,486a10.36,10.36,0,0,0-1.94-2.21,5.06,5.06,0,0,0-2.55-1.05,7.6,7.6,0,0,0-2.83.26,6.9,6.9,0,0,0-2.53,1.21,6.53,6.53,0,0,0-2.28,4.88,15.94,15.94,0,0,0,.88,5.79,15.32,15.32,0,0,0,2.64,5.15,6.77,6.77,0,0,0,4.69,2.41,7.06,7.06,0,0,0,4.92-1.8,4.85,4.85,0,0,0,1.23-2.24,10.86,10.86,0,0,0,.24-2.83l0-.75.7-.19,6.46-1.8,1-.27.13,1a14.93,14.93,0,0,1-.93,7.56A12.76,12.76,0,0,1,907,507a17.32,17.32,0,0,1-7,2.53,14.3,14.3,0,0,1-7.36-.78,14.11,14.11,0,0,1-5.85-4.43,20.82,20.82,0,0,1-3.37-6.47,24.7,24.7,0,0,1-1.29-7.16A14.27,14.27,0,0,1,883.78,483.69Zm0,0a14.25,14.25,0,0,0-1.62,7,22.45,22.45,0,0,0,1.4,7.1,19.83,19.83,0,0,0,3.48,6.3,13.1,13.1,0,0,0,12.78,4.51,16.36,16.36,0,0,0,6.49-2.61,11.37,11.37,0,0,0,4.07-5.42,13.75,13.75,0,0,0,.6-6.77l1.11.73-6.41,1.94.69-.95a12.85,12.85,0,0,1-.27,3.35,6.73,6.73,0,0,1-1.71,3.15,7.94,7.94,0,0,1-3,1.86,8.42,8.42,0,0,1-3.43.55,8.66,8.66,0,0,1-6.06-3.13,16,16,0,0,1-2.93-5.87,17.7,17.7,0,0,1-.81-6.46,9.65,9.65,0,0,1,.89-3.27,7,7,0,0,1,2.2-2.64,8.18,8.18,0,0,1,3.09-1.35,8.64,8.64,0,0,1,3.33-.16,6.19,6.19,0,0,1,3.07,1.41,11.16,11.16,0,0,1,2.06,2.52l-.55-.2,6.52-1.76-.24.47a11.48,11.48,0,0,0-4.71-5.67,12,12,0,0,0-7.25-1.82,18.71,18.71,0,0,0-7.37,1.9A12.67,12.67,0,0,0,883.78,483.69Z" transform="translate(-811.11 -414.45)"/></svg>