<svg id="hardware" xmlns="http://www.w3.org/2000/svg" viewBox="0 0 101.31 101.87"><defs><style>.cls-1{fill:#faf0ca;}.cls-2{fill:#444;}</style></defs><title>hardware</title><path class="cls-1" d="M639.83,367.86l5.92,17.57,1.41,4.93.25-5.06,1.08-18.69,6.3-.92,5.54,17.63,1.46,4.92.31-5,1.66-18.87,6.08-.88-4.31,32.81-5.72.83-5.64-18-1.73-6-.29,6.27-1.27,19-5.55.81-11.84-30.48Z" transform="translate(-633.31 -333.04)"/><path class="cls-2" d="M639.83,367.86l4,11.1,2,5.62c.65,1.88,1.17,3.78,1.76,5.67l-.77.09q.18-6,.49-11.89l.58-11.88,0-.53.53-.08,6.3-1,.59-.09.19.58,3.64,11.24q1.85,5.61,3.52,11.28l-1.7.19c.13-2,.21-4,.38-6l.5-6,1-11.92.06-.74.74-.11,6.08-.9,1.26-.18-.17,1.26-2.12,16.4-2.21,16.4-.09.71-.71.1-5.72.81-.78.11-.24-.75-3.71-12-1.86-6-1.73-6,1.67-.2-.34,6.33-.48,6.32-1,12.63,0,.51-.5.06-5.56.76-.45.06-.16-.43q-2.91-7.63-5.74-15.3l-5.69-15.33-.06-.16.16,0Zm0,0-6.32,1,.1-.17,6.15,15.14q3.09,7.58,6.11,15.17l-.62-.36,5.54-.86-.53.58.72-12.63.37-6.32.24-6.31.2-5.19,1.46,5,1.77,6,1.89,6,3.78,11.95-1-.64,5.73-.84-.8.81,2.1-16.41,2.19-16.4,1.09,1.07-6.09.86.8-.85-1.08,11.91-.53,5.95c-.18,2-.28,4-.42,6l-.34,4.78L661,388.49l-1.68-5.65-1.73-5.64-3.43-11.29.77.48-6.31.86.55-.61-1.58,23.74-.15,2.28-.61-2.2c-.53-1.89-1-3.81-1.58-5.68l-1.79-5.59Z" transform="translate(-633.31 -333.04)"/><path class="cls-1" d="M671.34,369.5l6.8-.51,12.14,31.07-6.52.49-2.3-6.4-10.6.8-1.54,6.69-6.29.48Zm.82,19.84,7.37-.56-4.41-12.25Z" transform="translate(-633.31 -333.04)"/><path class="cls-2" d="M671.34,369.5c2.19-.25,4.46-.53,6.78-.77l.18,0,.08.18q3.32,7.67,6.49,15.38t6.28,15.45l.46,1.16-1.26.11-6.52.53-.73.06-.25-.7-2.33-6.39,1,.65-10.59.78.87-.75-1.59,6.68-.16.68-.67,0-6.3.41-1.22.08.32-1.16,2.23-8.23,2.29-8.16,2.31-8.06Zm0,0-3.68,16.61-1.88,8.14-1.92,8.08-.9-1.08,6.29-.54-.84.72,1.51-6.7.15-.69.72-.06,10.59-.82.76-.06.25.71,2.28,6.41-1-.63,6.52-.46-.79,1.27q-3-7.8-5.87-15.62t-5.65-15.7l.26.17Z" transform="translate(-633.31 -333.04)"/><path class="cls-2" d="M672.16,389.34c1.37-.22,2.65-.46,3.85-.68s2.34-.44,3.46-.6l-.62,1c-.42-1-.86-2-1.25-3s-.82-2-1.18-3c-.78-2-1.5-4.07-2.2-6.13l1.84-.11c-.52,2-1.1,4-1.76,6Zm0,0c.24-1.92.51-4,.82-6.24s.73-4.52,1.21-6.79l.67-3.21,1.17,3.1c.76,2,1.51,4.07,2.21,6.13.36,1,.68,2.06,1,3.09s.64,2.08,1,3.12l.28.94-.91,0c-1.33,0-2.65,0-3.9,0Z" transform="translate(-633.31 -333.04)"/><path class="cls-1" d="M705.49,368.17a7.22,7.22,0,0,1,2.69,2.23,9.68,9.68,0,0,1,2,6,10.37,10.37,0,0,1-1,4.47,6,6,0,0,1-3.42,3.11,5.56,5.56,0,0,1,2.83,2.52,11.56,11.56,0,0,1,.83,5v2.15a17.34,17.34,0,0,0,.16,3,2.68,2.68,0,0,0,1.11,1.82v.8H704a17.09,17.09,0,0,1-.39-1.71,16.54,16.54,0,0,1-.26-2.75l0-3c0-2-.34-3.4-.95-4.07s-1.76-1-3.43-1H693v12.51h-5.89V367.35h13.79A11.57,11.57,0,0,1,705.49,368.17ZM693,372.89v8.58h6.49a6.37,6.37,0,0,0,2.89-.52q1.71-.92,1.71-3.6,0-2.89-1.65-3.9a5.55,5.55,0,0,0-2.79-.56Z" transform="translate(-633.31 -333.04)"/><path class="cls-2" d="M705.49,368.17a7.75,7.75,0,0,1,3.43,3.32,9.54,9.54,0,0,1,1.29,4.63,10.54,10.54,0,0,1-.93,4.75,6.32,6.32,0,0,1-3.5,3.33v-.35a5.79,5.79,0,0,1,3.09,2.76,11.4,11.4,0,0,1,.84,4.08l.12,4.07a11.4,11.4,0,0,0,.21,1.92,2.12,2.12,0,0,0,.89,1.32l.24.15v.31l0,.8v.56h-.58L704,400h-.57l-.13-.55a26.85,26.85,0,0,1-.6-2.69,23.83,23.83,0,0,1-.19-2.74,18.84,18.84,0,0,0-.48-5,1.67,1.67,0,0,0-.46-.73,2.16,2.16,0,0,0-.82-.39,9.3,9.3,0,0,0-2.38-.19l-5.33,0,1-1c0,2.08,0,4.17,0,6.26l0,6.25v1H693l-5.89-.08h-.88v-.86c0-2.66.11-5.32.16-8l.18-8,.36-16v-.17h.17l9.23.13,4.61,0A11.77,11.77,0,0,1,705.49,368.17Zm0,0a11.77,11.77,0,0,0-4.51-.8l-4.61,0-9.23.13.17-.17.36,16,.18,8c0,2.66.13,5.32.16,8l-.87-.87,5.89-.07-.95.94,0-6.25c0-2.09,0-4.18,0-6.26v-1h1l5.33,0a9.73,9.73,0,0,1,2.9.31,3.86,3.86,0,0,1,1.53.81,3.46,3.46,0,0,1,.94,1.5,18.8,18.8,0,0,1,.43,5.58,21.87,21.87,0,0,0,.07,2.58,24.67,24.67,0,0,0,.45,2.52l-.69-.53,6.65.14-.57.57,0-.8.24.46a3.15,3.15,0,0,1-1.26-2,11.24,11.24,0,0,1-.15-2.13l.06-4.06a10.67,10.67,0,0,0-.61-3.88,5.33,5.33,0,0,0-2.74-2.65l-.43-.2.44-.15a5.75,5.75,0,0,0,3.43-3.07,10.25,10.25,0,0,0,1-4.65,9.44,9.44,0,0,0-1.23-4.61A7.78,7.78,0,0,0,705.49,368.17Z" transform="translate(-633.31 -333.04)"/><path class="cls-2" d="M693,372.89c.28,3.15.61,5.9.75,8.57l-.75-.75c1.15-.06,2.3-.11,3.45-.14s2.33-.07,3.42-.08a6.78,6.78,0,0,0,1.49-.21,2.28,2.28,0,0,0,1-.56,3.48,3.48,0,0,0,.75-2.51,4,4,0,0,0-.69-2.66,2.13,2.13,0,0,0-1-.71,7,7,0,0,0-1.52-.28C697.78,373.41,695.57,373.12,693,372.89Zm0,0c2.06-.23,4.45-.52,6.92-.66a7.23,7.23,0,0,1,1.89.15,3.79,3.79,0,0,1,1.89,1,5.7,5.7,0,0,1,1.34,3.78,6.82,6.82,0,0,1-.19,2,4.24,4.24,0,0,1-1,1.94,4,4,0,0,1-1.94,1.1,8.91,8.91,0,0,1-1.94.23c-1.21,0-2.31,0-3.48-.07s-2.3-.08-3.45-.14l-.79-.05,0-.71C692.42,378.42,692.75,375.46,693,372.89Z" transform="translate(-633.31 -333.04)"/><path class="cls-1" d="M728.46,370.21l-15,3.09,1.12,6.66,13.78-2.83.91,5.45-13.77,2.83,1.35,8.07,15.7-3.23,1,5.64L712,400.31l-5.27-31.37,20.8-4.28Z" transform="translate(-633.31 -333.04)"/><path class="cls-2" d="M728.46,370.21l-14.93,3.45.29-.42,1.25,6.64-.6-.42,13.74-3,.69-.15.13.72,1,5.43.13.72-.73.16-6.87,1.5-6.89,1.44.69-1,1.4,8.06-1.09-.75,15.68-3.29,1-.21.17,1,1,5.64.16.95-.93.18-21.51,4.33-.91.18-.15-.91c-.85-5.23-1.74-10.46-2.53-15.71L706.16,369l-.08-.55.53-.11c6.95-1.36,13.92-2.58,20.88-3.87l.17,0,0,.16Zm0,0-1.09-5.52.19.13c-6.91,1.56-13.8,3.19-20.71,4.68l.45-.66,2.84,15.65c1,5.22,1.83,10.45,2.74,15.68l-1.06-.73,21.47-4.52-.78,1.14-.94-5.64,1.17.8L717,394.38l-.94.19-.15-.94-1.32-8.07-.14-.84.83-.17,6.89-1.38,6.91-1.34-.6.88-.85-5.46.83.56-13.82,2.65-.52.1-.08-.51-1-6.69L713,373l.34-.06Z" transform="translate(-633.31 -333.04)"/><path class="cls-1" d="M636.76,430.18V398.26h6v12.17H654V398.26h6v31.92h-6V415.93H642.75v14.25Z" transform="translate(-633.31 -333.04)"/><path class="cls-2" d="M636.76,430.18l-.36-15.81c-.15-5.32-.21-10.71-.28-16.11v-.63h.65l6-.08h.72v.73c0,4.06.13,8.12.13,12.17l-.86-.86,11.21-.05-.91.91,0-12.17v-1h1l6,0h1v1c0,2.66,0,5.32,0,8l0,8-.07,16v.87H660l-6,0h-.84v-.83l.19-14.25.64.64-11.21-.15.49-.49-.32,14.25v.18h-.17Zm0,0,6-.17-.17.17-.32-14.25v-.48h.5l11.21-.15h.64v.65l.19,14.25-.84-.84,6,0-.87.87-.07-16,0-8c0-2.66,0-5.32,0-8l1,1-6,0,1-1-.06,12.17v.91H654l-11.21,0h-.86v-.86c0-4.05.09-8.11.13-12.17l.73.73-6-.08.65-.65c-.08,5.25-.14,10.49-.29,15.81Z" transform="translate(-633.31 -333.04)"/><path class="cls-1" d="M671.3,399.89l6.77.9,6.7,33-6.49-.86-1.18-6.76-10.55-1.4-2.64,6.26-6.26-.83Zm-2.53,19.67,7.34,1-2.27-12.95Z" transform="translate(-633.31 -333.04)"/><path class="cls-2" d="M671.3,399.89l6.81.64.17,0,.05.19q1.95,8.2,3.79,16.43t3.57,16.47l.27,1.27-1.31-.16-6.49-.82-.71-.09-.12-.71-1.21-6.76.85.81-10.54-1.42,1-.58-2.69,6.24-.28.65-.7-.09-6.25-.9-1.16-.16.49-1.05,3.59-7.63,3.61-7.56,3.64-7.45Zm0,0-6.42,15.55-3.21,7.61-3.24,7.53-.67-1.21,6.27.77-1,.56,2.61-6.28.28-.68.74.1,10.55,1.37.72.1.13.72,1.16,6.77-.83-.8,6.48.9-1,1.11q-1.61-8.28-3.13-16.56t-2.91-16.61l.22.21Z" transform="translate(-633.31 -333.04)"/><path class="cls-2" d="M668.77,419.56c2.79.14,5.17.09,7.43.25l-.81.84c-.24-1.07-.5-2.13-.72-3.21s-.46-2.14-.65-3.22c-.42-2.15-.78-4.31-1.13-6.47l1.83.2c-.85,1.86-1.75,3.69-2.74,5.58Zm0,0c.56-1.84,1.18-3.86,1.86-5.95s1.48-4.27,2.33-6.4l1.2-3.06.62,3.26c.41,2.16.81,4.31,1.15,6.48.18,1.08.32,2.16.48,3.25s.28,2.17.41,3.26l.12,1-.93-.18C673.38,420.75,670.88,420.06,668.77,419.56Z" transform="translate(-633.31 -333.04)"/><path class="cls-1" d="M699.46,398.47a7.08,7.08,0,0,1,2.87,1.94,9.87,9.87,0,0,1,1.67,2.52,9.75,9.75,0,0,1,.82,3.29,10.38,10.38,0,0,1-.66,4.56,6.13,6.13,0,0,1-3.14,3.45,5.45,5.45,0,0,1,3,2.21,11.44,11.44,0,0,1,1.25,4.89l.18,2.13a17.43,17.43,0,0,0,.41,2.94,2.58,2.58,0,0,0,1.26,1.69l.07.8-6.63.69c-.24-.68-.42-1.24-.53-1.66a17.26,17.26,0,0,1-.49-2.71l-.29-2.95c-.2-2-.63-3.34-1.29-4s-1.84-.83-3.51-.65l-5.86.61,1.06,12.46-5.86.61-2.7-31.78,13.73-1.43A11.53,11.53,0,0,1,699.46,398.47Zm-12,6,.73,8.54,6.46-.68a6.41,6.41,0,0,0,2.84-.81c1.08-.73,1.55-2,1.4-3.76-.17-1.93-.83-3.16-2-3.71a5.41,5.41,0,0,0-2.82-.27Z" transform="translate(-633.31 -333.04)"/><path class="cls-2" d="M699.46,398.47a7.57,7.57,0,0,1,3.72,3,9.37,9.37,0,0,1,1.66,4.51,10.59,10.59,0,0,1-.55,4.8,6.4,6.4,0,0,1-3.19,3.63l0-.34a5.61,5.61,0,0,1,3.32,2.44,11.41,11.41,0,0,1,1.18,4l.46,4a10.43,10.43,0,0,0,.37,1.88,2.08,2.08,0,0,0,1,1.23l.25.12,0,.32.08.79.06.54-.57.08-6.6.83-.57.07-.18-.54a23.63,23.63,0,0,1-.83-2.63,24.53,24.53,0,0,1-.43-2.71,18.2,18.2,0,0,0-.9-4.92,1.51,1.51,0,0,0-.51-.66,2.07,2.07,0,0,0-.85-.3,8.89,8.89,0,0,0-2.39.07l-5.28.57.88-1.07c.19,2.08.36,4.15.52,6.23l.5,6.24.07.93-.92.09-5.87.53-.89.08-.07-.87c-.2-2.65-.34-5.31-.51-8l-.5-8-1-15.91v-.17l.16,0,9.19-.83,4.59-.45A11.79,11.79,0,0,1,699.46,398.47Zm0,0a11.74,11.74,0,0,0-4.57-.33l-4.59.5-9.16,1.08.15-.18L683,415.39l.85,7.93c.28,2.65.58,5.29.83,7.93l-.95-.79,5.85-.69-.84,1-.57-6.23c-.18-2.08-.37-4.15-.53-6.23l-.08-1,1-.1,5.29-.52a9.75,9.75,0,0,1,2.91,0,4.05,4.05,0,0,1,1.61.65,3.4,3.4,0,0,1,1.09,1.41,18.8,18.8,0,0,1,.9,5.52,22.84,22.84,0,0,0,.29,2.55,22,22,0,0,0,.66,2.47l-.75-.47,6.64-.54-.51.61,0-.8.29.44a3.11,3.11,0,0,1-1.44-1.88,10.82,10.82,0,0,1-.32-2.1l-.28-4a10.73,10.73,0,0,0-.94-3.79A5.15,5.15,0,0,0,701,414.4l-.45-.15.42-.19a6,6,0,0,0,3.15-3.37,10.42,10.42,0,0,0,.67-4.72,9.34,9.34,0,0,0-1.61-4.5A7.58,7.58,0,0,0,699.46,398.47Z" transform="translate(-633.31 -333.04)"/><path class="cls-2" d="M687.45,404.46c.55,3.11,1.11,5.82,1.48,8.47l-.83-.68c1.14-.19,2.28-.36,3.42-.5s2.31-.31,3.4-.44a6.93,6.93,0,0,0,1.46-.36,2.36,2.36,0,0,0,1-.66,3.52,3.52,0,0,0,.54-2.57,4,4,0,0,0-.89-2.59,2.18,2.18,0,0,0-1.1-.6,6.93,6.93,0,0,0-1.54-.12C692.23,404.48,690,404.43,687.45,404.46Zm0,0c2-.45,4.38-1,6.82-1.37a7,7,0,0,1,1.9,0,3.7,3.7,0,0,1,2,.84,5.63,5.63,0,0,1,1.65,3.66,7,7,0,0,1,0,2,4.29,4.29,0,0,1-.88,2,4.06,4.06,0,0,1-1.83,1.27,9,9,0,0,1-1.89.43c-1.21.13-2.31.2-3.47.29s-2.3.16-3.45.21l-.8,0,0-.72C687.31,410,687.38,407,687.45,404.46Z" transform="translate(-633.31 -333.04)"/><path class="cls-1" d="M725.45,401.23a10,10,0,0,1,4.39,4.72,15.46,15.46,0,0,1,1.44,5.41,27.53,27.53,0,0,1-.08,5.32A22.59,22.59,0,0,1,727.64,427a10,10,0,0,1-10.29,4.52L705,429.76l3.75-31.65,12.33,1.79A14.25,14.25,0,0,1,725.45,401.23Zm-11.53,3.22-2.45,20.65,5.52.8q4.23.62,6.46-3.75a17.76,17.76,0,0,0,1.62-5.9,16.5,16.5,0,0,0-.49-7.62c-.71-1.86-2.42-3-5.14-3.38Z" transform="translate(-633.31 -333.04)"/><path class="cls-2" d="M725.45,401.23A10.15,10.15,0,0,1,729.9,406a16.2,16.2,0,0,1,1.59,6.42,28.52,28.52,0,0,1-.32,6.65,23,23,0,0,1-2,6.43,13.6,13.6,0,0,1-4.35,5.32,10.52,10.52,0,0,1-6.8,1.72c-2.29-.25-4.4-.54-6.61-.85s-4.37-.59-6.55-.94l-1-.15.12-.94c.65-5.27,1.33-10.54,2.14-15.79l2.34-15.77,0-.27.25.05c2.79.5,5.59.95,8.39,1.41l4.21.66A14,14,0,0,1,725.45,401.23Zm0,0A14.1,14.1,0,0,0,721.4,400c-1.4-.21-2.81-.4-4.22-.58-2.81-.36-5.62-.72-8.45-1l.29-.22L707.61,414c-.45,5.29-1,10.57-1.61,15.85l-.84-1.09c4.35.61,8.78,1.31,13,2a9.31,9.31,0,0,0,5.86-1.16,12.36,12.36,0,0,0,4.2-4.6,22.14,22.14,0,0,0,2.25-6.07,26.34,26.34,0,0,0,.68-6.51,15.64,15.64,0,0,0-1.36-6.39A10.14,10.14,0,0,0,725.45,401.23Z" transform="translate(-633.31 -333.04)"/><path class="cls-2" d="M713.92,404.45c-.47,7.34-.86,14.08-1.55,20.76l-.77-1c1.64.2,3.27.42,4.9.65l.61.09.54.05a5,5,0,0,0,1-.05,4.26,4.26,0,0,0,1.85-.73,7.77,7.77,0,0,0,2.5-3.51,19.38,19.38,0,0,0,1.15-4.54,23.76,23.76,0,0,0,.24-4.75,11.34,11.34,0,0,0-.39-2.27A4.15,4.15,0,0,0,723,407.3a7.87,7.87,0,0,0-4.18-1.79C717.25,405.18,715.64,404.8,713.92,404.45Zm0,0,4.91.36a8.42,8.42,0,0,1,4.94,1.61,5.18,5.18,0,0,1,1.57,2.27,11.63,11.63,0,0,1,.61,2.56,21.92,21.92,0,0,1,0,5.12,19.43,19.43,0,0,1-1.13,5,9.62,9.62,0,0,1-3.16,4.43A6.12,6.12,0,0,1,719,426.9a6.86,6.86,0,0,1-1.43,0c-.24,0-.47-.05-.7-.07l-.61-.1c-1.63-.24-3.25-.49-4.88-.77l-.89-.15.12-.86C711.52,417.9,712.75,410.87,713.92,404.45Z" transform="translate(-633.31 -333.04)"/><path class="cls-1" d="M636.76,366V334h6V346.2H654V334h6V366h-6V351.7H642.75V366Z" transform="translate(-633.31 -333.04)"/><path class="cls-2" d="M636.76,366l-.36-15.81c-.15-5.32-.21-10.71-.28-16.1v-.64h.65l6-.08h.72V334c0,4,.13,8.11.13,12.16l-.86-.85L654,345.3l-.91.9L653,334v-1h1l6,0h1v1c0,2.66,0,5.32,0,8l0,8-.07,16v.87H660l-6,0h-.84V366l.19-14.25.64.65-11.21-.16.49-.49L642.92,366v.18h-.17Zm0,0,6-.17-.17.17-.32-14.25v-.48h.5l11.21-.16h.64v.65L654.8,366l-.84-.83,6,0-.87.87L659,350l0-8c0-2.65,0-5.31,0-8l1,1-6,0,1-1-.06,12.16v.92H654l-11.21-.05h-.86v-.86c0-4.05.09-8.11.13-12.16l.73.72-6-.08.65-.64c-.08,5.24-.14,10.49-.29,15.8Z" transform="translate(-633.31 -333.04)"/><path class="cls-1" d="M671.3,335.67l6.77.89,6.7,33-6.49-.86L677.1,362l-10.55-1.4-2.64,6.26-6.26-.83Zm-2.53,19.66,7.34,1-2.27-12.95Z" transform="translate(-633.31 -333.04)"/><path class="cls-2" d="M671.3,335.67l6.81.64h.17l.05.19q1.95,8.21,3.79,16.43t3.57,16.47l.27,1.28-1.31-.17-6.49-.82-.71-.09-.12-.71-1.21-6.76.85.82-10.54-1.43,1-.58-2.69,6.24-.28.66-.7-.1-6.25-.9-1.16-.16.49-1,3.59-7.63,3.61-7.56L667.7,343Zm0,0-6.42,15.54-3.21,7.61-3.24,7.53-.67-1.2,6.27.76-1,.56,2.61-6.27.28-.68.74.09L677.23,361l.72.09.13.72,1.16,6.77-.83-.8,6.48.9-1,1.11q-1.61-8.26-3.13-16.56t-2.91-16.6l.22.2Z" transform="translate(-633.31 -333.04)"/><path class="cls-2" d="M668.77,355.33c2.79.14,5.17.1,7.43.25l-.81.85c-.24-1.07-.5-2.14-.72-3.21s-.46-2.15-.65-3.23c-.42-2.15-.78-4.31-1.13-6.47l1.83.21c-.85,1.85-1.75,3.68-2.74,5.57Zm0,0c.56-1.84,1.18-3.85,1.86-5.95s1.48-4.27,2.33-6.4l1.2-3.05.62,3.26c.41,2.15.81,4.3,1.15,6.47.18,1.08.32,2.17.48,3.25s.28,2.18.41,3.27l.12,1L676,357C673.38,356.53,670.88,355.84,668.77,355.33Z" transform="translate(-633.31 -333.04)"/><path class="cls-1" d="M699.46,334.24a7.08,7.08,0,0,1,2.87,1.94,9.52,9.52,0,0,1,2.49,5.81,10.38,10.38,0,0,1-.66,4.56A6.13,6.13,0,0,1,701,350a5.42,5.42,0,0,1,3,2.22,11.35,11.35,0,0,1,1.25,4.88l.18,2.13a17.26,17.26,0,0,0,.41,2.94,2.62,2.62,0,0,0,1.26,1.7l.07.79-6.63.69c-.24-.68-.42-1.24-.53-1.66a17.06,17.06,0,0,1-.49-2.71l-.29-3c-.2-2-.63-3.34-1.29-3.95s-1.84-.84-3.51-.66l-5.86.61,1.06,12.46-5.86.61-2.7-31.78,13.73-1.43A11.53,11.53,0,0,1,699.46,334.24Zm-12,6,.73,8.54,6.46-.67a6.54,6.54,0,0,0,2.84-.82c1.08-.72,1.55-2,1.4-3.76s-.83-3.16-2-3.71a5.41,5.41,0,0,0-2.82-.27Z" transform="translate(-633.31 -333.04)"/><path class="cls-2" d="M699.46,334.24a7.63,7.63,0,0,1,3.72,3,9.41,9.41,0,0,1,1.66,4.51,10.59,10.59,0,0,1-.55,4.8,6.45,6.45,0,0,1-3.19,3.64l0-.35a5.59,5.59,0,0,1,3.32,2.45,11.29,11.29,0,0,1,1.18,4l.46,4a10.72,10.72,0,0,0,.37,1.89,2,2,0,0,0,1,1.22l.25.12,0,.32.08.8.06.54-.57.07-6.6.83-.57.08-.18-.55a23,23,0,0,1-.83-2.63,24.53,24.53,0,0,1-.43-2.71,18,18,0,0,0-.9-4.91,1.55,1.55,0,0,0-.51-.67,2.23,2.23,0,0,0-.85-.3,8.89,8.89,0,0,0-2.39.07l-5.28.57.88-1.07q.28,3.12.52,6.23l.5,6.24.07.94-.92.08-5.87.53L683,368l-.07-.87c-.2-2.65-.34-5.3-.51-8l-.5-7.95-1-15.92v-.17l.16,0,9.19-.82,4.59-.46A11.79,11.79,0,0,1,699.46,334.24Zm0,0a11.74,11.74,0,0,0-4.57-.33l-4.59.5-9.16,1.08.15-.18L683,351.17l.85,7.92c.28,2.65.58,5.29.83,7.93l-.95-.79,5.85-.68-.84,1-.57-6.23c-.18-2.07-.37-4.15-.53-6.23l-.08-1,1-.1,5.29-.52a10.09,10.09,0,0,1,2.91,0,4.05,4.05,0,0,1,1.61.65,3.42,3.42,0,0,1,1.09,1.42,18.68,18.68,0,0,1,.9,5.51,23,23,0,0,0,.29,2.56,21.82,21.82,0,0,0,.66,2.46l-.75-.47,6.64-.54-.51.61,0-.8.29.44a3.11,3.11,0,0,1-1.44-1.88,10.71,10.71,0,0,1-.32-2.1l-.28-4a10.73,10.73,0,0,0-.94-3.79,5.09,5.09,0,0,0-2.95-2.36l-.45-.16.42-.19a6,6,0,0,0,3.15-3.37,10.42,10.42,0,0,0,.67-4.72,9.34,9.34,0,0,0-1.61-4.5A7.58,7.58,0,0,0,699.46,334.24Z" transform="translate(-633.31 -333.04)"/><path class="cls-2" d="M687.45,340.23c.55,3.11,1.11,5.82,1.48,8.47l-.83-.68c1.14-.19,2.28-.35,3.42-.5s2.31-.31,3.4-.44a6.94,6.94,0,0,0,1.46-.35,2.48,2.48,0,0,0,1-.67,3.5,3.5,0,0,0,.54-2.56,4,4,0,0,0-.89-2.6,2.1,2.1,0,0,0-1.1-.59,6.91,6.91,0,0,0-1.54-.13C692.23,340.26,690,340.2,687.45,340.23Zm0,0c2-.44,4.38-1,6.82-1.37a7.47,7.47,0,0,1,1.9-.05,3.7,3.7,0,0,1,2,.84,5.63,5.63,0,0,1,1.65,3.66,7,7,0,0,1,0,2,4.37,4.37,0,0,1-.88,2,4,4,0,0,1-1.83,1.26,8.41,8.41,0,0,1-1.89.43c-1.21.14-2.31.21-3.47.29s-2.3.16-3.45.22l-.8,0,0-.72C687.31,345.79,687.38,342.82,687.45,340.23Z" transform="translate(-633.31 -333.04)"/><path class="cls-1" d="M725.45,337a10.07,10.07,0,0,1,4.39,4.73,15.46,15.46,0,0,1,1.44,5.4,27.51,27.51,0,0,1-.08,5.32,22.63,22.63,0,0,1-3.56,10.36,10,10,0,0,1-10.29,4.51L705,365.53l3.75-31.65,12.33,1.79A14.25,14.25,0,0,1,725.45,337Zm-11.53,3.22-2.45,20.65,5.52.81c2.82.41,5-.85,6.46-3.76a17.76,17.76,0,0,0,1.62-5.9,16.5,16.5,0,0,0-.49-7.62c-.71-1.86-2.42-3-5.14-3.38Z" transform="translate(-633.31 -333.04)"/><path class="cls-2" d="M725.45,337a10.22,10.22,0,0,1,4.45,4.76,16.11,16.11,0,0,1,1.59,6.41,28.52,28.52,0,0,1-.32,6.65,23,23,0,0,1-2,6.43,13.53,13.53,0,0,1-4.35,5.32,10.52,10.52,0,0,1-6.8,1.72c-2.29-.25-4.4-.54-6.61-.85s-4.37-.59-6.55-.93l-1-.15.12-.95c.65-5.27,1.33-10.54,2.14-15.79l2.34-15.77,0-.26.25,0c2.79.5,5.59,1,8.39,1.41l4.21.66A14,14,0,0,1,725.45,337Zm0,0a14.1,14.1,0,0,0-4.05-1.25c-1.4-.21-2.81-.4-4.22-.58-2.81-.36-5.62-.72-8.45-1l.29-.23-1.41,15.88c-.45,5.3-1,10.58-1.61,15.85l-.84-1.09c4.35.61,8.78,1.31,13,2a9.38,9.38,0,0,0,5.86-1.17,12.36,12.36,0,0,0,4.2-4.6,22.2,22.2,0,0,0,2.25-6.06,26.47,26.47,0,0,0,.68-6.52,15.64,15.64,0,0,0-1.36-6.39A10.14,10.14,0,0,0,725.45,337Z" transform="translate(-633.31 -333.04)"/><path class="cls-2" d="M713.92,340.22c-.47,7.35-.86,14.08-1.55,20.76l-.77-1c1.64.2,3.27.42,4.9.65l.61.09.54.05a5,5,0,0,0,1-.05,4.26,4.26,0,0,0,1.85-.73,7.69,7.69,0,0,0,2.5-3.5,19.59,19.59,0,0,0,1.15-4.55,23.76,23.76,0,0,0,.24-4.75,11.47,11.47,0,0,0-.39-2.27,4.2,4.2,0,0,0-1.06-1.84,8,8,0,0,0-4.18-1.79C717.25,341,715.64,340.57,713.92,340.22Zm0,0,4.91.36a8.42,8.42,0,0,1,4.94,1.61,5.21,5.21,0,0,1,1.57,2.28A11.49,11.49,0,0,1,726,347a21.84,21.84,0,0,1,0,5.11,19.59,19.59,0,0,1-1.13,5.05,9.68,9.68,0,0,1-3.16,4.43,6.22,6.22,0,0,1-2.71,1.05,6.86,6.86,0,0,1-1.43,0c-.24,0-.47,0-.7-.07l-.61-.09c-1.63-.24-3.25-.5-4.88-.78l-.89-.14.12-.86C711.52,353.68,712.75,346.65,713.92,340.22Z" transform="translate(-633.31 -333.04)"/></svg>