<svg id="Layer_27_copy" data-name="Layer 27 copy" xmlns="http://www.w3.org/2000/svg" viewBox="0 0 24 24"><defs><style>.cls-1,.cls-2{fill:none;}.cls-2{stroke:#444;stroke-miterlimit:10;}</style></defs><title>help-rev</title><path class="cls-1" d="M662,360h24v24H662Z" transform="translate(-662 -360)"/><path class="cls-2" d="M674,362a10,10,0,1,0,10,10A10,10,0,0,0,674,362Zm1,17h-2v-2h2Zm2.07-7.75-.9.92a3.5,3.5,0,0,0-1,1.69A4.59,4.59,0,0,0,675,375h-2v-.5a4,4,0,0,1,.22-1.31,4,4,0,0,1,.95-1.52l1.24-1.26a2,2,0,0,0,.55-1.8,2,2,0,0,0-1.39-1.53,2,2,0,0,0-2.47,1.27.88.88,0,0,1-.82.65H671a.87.87,0,0,1-.82-1.12,4,4,0,0,1,3.23-2.83,4.07,4.07,0,0,1,3.87,1.8A3.31,3.31,0,0,1,677.07,371.25Z" transform="translate(-662 -360)"/></svg>