<svg id="Layer_32" data-name="Layer 32" xmlns="http://www.w3.org/2000/svg" viewBox="0 0 20 20"><defs><style>.cls-1{fill:#444;}</style></defs><title>home</title><path class="cls-1" d="M504.18,375A10,10,0,1,0,514,385.17,10,10,0,0,0,504.18,375Zm6.75,9.39-1.35,0-.11,5.57a.79.79,0,0,1-.81.78l-2.39,0a.8.8,0,0,1-.78-.81l.08-4-3.19-.06-.07,4a.81.81,0,0,1-.81.78l-2.39-.05a.79.79,0,0,1-.78-.81l.1-5.57-1.35,0a.39.39,0,0,1-.25-.69l6.77-5.87a.78.78,0,0,1,1.06,0l6.55,6.12A.4.4,0,0,1,510.93,384.38Z" transform="translate(-493.99 -374.98)"/></svg>