<svg id="Layer_32" data-name="Layer 32" xmlns="http://www.w3.org/2000/svg" viewBox="0 0 20 20"><defs><style>.cls-1{fill:#444;}</style></defs><title>home</title><path class="cls-1" d="M527.68,369a10,10,0,1,0,9.8,10.19A10,10,0,0,0,527.68,369Zm5.79,10.3-1.17,0-.09,4.82a.7.7,0,0,1-.7.68l-2.07,0a.71.71,0,0,1-.68-.71l.07-3.44-2.76-.05-.06,3.44a.7.7,0,0,1-.7.68l-2.07,0a.7.7,0,0,1-.68-.7l.09-4.83-1.17,0a.34.34,0,0,1-.21-.6l5.86-5.08a.69.69,0,0,1,.92,0l5.66,5.3A.34.34,0,0,1,533.47,379.26Z" transform="translate(-517.49 -368.96)"/></svg>