<svg id="info" xmlns="http://www.w3.org/2000/svg" viewBox="0 0 24 24"><defs><style>.cls-1{fill:#eee;}.cls-2{fill:none;}</style></defs><title>info</title><circle class="cls-1" cx="12" cy="12" r="10"/><path class="cls-2" d="M644.89,372.4h24v24h-24Z" transform="translate(-644.89 -372.4)"/><path d="M656.89,394.9a10.5,10.5,0,1,1,10.5-10.5A10.51,10.51,0,0,1,656.89,394.9Zm0-20a9.5,9.5,0,1,0,9.5,9.5A9.51,9.51,0,0,0,656.89,374.9Zm0,15a1.5,1.5,0,0,1-1.5-1.5v-4a1.5,1.5,0,0,1,3,0v4A1.5,1.5,0,0,1,656.89,389.9Zm0-6a.5.5,0,0,0-.5.5v4a.5.5,0,0,0,.5.5.5.5,0,0,0,.5-.5v-4A.5.5,0,0,0,656.89,383.9Zm1.5-2h-3v-3h3Zm-2-1h1v-1h-1Z" transform="translate(-644.89 -372.4)"/></svg>