<svg id="organisation" xmlns="http://www.w3.org/2000/svg" viewBox="0 0 102.27 99.86"><defs><style>.cls-1{fill:#ce2455;}.cls-2{fill:#444;}</style></defs><title>inspirations</title><path class="cls-1" d="M842.29,427.54a8.53,8.53,0,0,1,3.15,2.42,9.43,9.43,0,0,1,1.57,2.77,7.86,7.86,0,0,1,.37,3.34,8.74,8.74,0,0,1-1.69,4.31,7.3,7.3,0,0,1-4.53,2.76,6.43,6.43,0,0,1,3.29,2.73,9.18,9.18,0,0,1,.59,5l-.19,2.1a13.58,13.58,0,0,0-.06,2.94,2.55,2.55,0,0,0,1.22,1.88l-.07.79-8.27-.57c-.16-.71-.27-1.29-.33-1.72a13.76,13.76,0,0,1-.08-2.73l.22-2.92c.15-2-.13-3.36-.83-4.08s-2.09-1.15-4.17-1.3l-7.32-.5-1.1,12.31-7.32-.51,2.82-31.39,17.15,1.19A17.43,17.43,0,0,1,842.29,427.54Zm-15.9,3.57-.76,8.43,8.06.56a9.91,9.91,0,0,0,3.65-.26,3.56,3.56,0,0,0,2.44-3.39q.26-2.85-1.71-4a8.32,8.32,0,0,0-3.41-.79Z" transform="translate(-782.72 -424.16)"/><path class="cls-2" d="M842.29,427.54a9,9,0,0,1,4.91,5.71,8,8,0,0,1,.24,2.58,9,9,0,0,1-1.81,4.82,7.72,7.72,0,0,1-4.43,2.67l0-.34a6.8,6.8,0,0,1,3.38,2.62,8.16,8.16,0,0,1,.85,4.23c0,1.44-.19,2.82-.25,4.2a7.88,7.88,0,0,0,.09,2,2.08,2.08,0,0,0,1,1.32l.27.16,0,.34-.06.79,0,.52-.54,0-8.28-.4-.53,0-.11-.52a17.93,17.93,0,0,1-.52-3,13.36,13.36,0,0,1,0-1.55l.07-1.47a28.25,28.25,0,0,0,.11-2.84,3.33,3.33,0,0,0-.66-2.11,4.55,4.55,0,0,0-2.2-.81c-.44-.07-.9-.11-1.36-.14l-1.47-.09-5.85-.38,1-.9c-.35,4.1-.76,8.2-1.14,12.3l-.09.95L824,458l-7.31-.59-.9-.08.09-.87.86-7.83.87-7.83,1.73-15.67,0-.23.22,0c3.8.36,7.61.65,11.42,1l5.71.43A17.78,17.78,0,0,1,842.29,427.54Zm0,0a17.78,17.78,0,0,0-5.58-1.18L831,426c-3.81-.21-7.63-.45-11.44-.62l.24-.21-1.08,15.73-.55,7.86-.56,7.86-.8-.94,7.32.41-1,.87c.36-4.1.69-8.21,1.08-12.31l.09-1,1,.07,5.86.43,1.46.11a11.92,11.92,0,0,1,1.55.19,5.92,5.92,0,0,1,3.16,1.38,3.67,3.67,0,0,1,.91,1.68,6.93,6.93,0,0,1,.21,1.66,13.41,13.41,0,0,1,0,1.56l-.13,1.46-.14,1.46a12.73,12.73,0,0,0,0,1.38,16.69,16.69,0,0,0,.36,2.77l-.65-.56L846,458l-.58.5.08-.79.25.5a3.09,3.09,0,0,1-1.37-2,8.81,8.81,0,0,1,0-2.23c.12-1.41.33-2.81.42-4.17a7.57,7.57,0,0,0-.61-3.94,6.36,6.36,0,0,0-3-2.56l-.52-.24.55-.11a7.12,7.12,0,0,0,4.33-2.45,8.68,8.68,0,0,0,1.9-4.69,7.83,7.83,0,0,0-.21-2.55,8.58,8.58,0,0,0-1-2.36A8.7,8.7,0,0,0,842.29,427.54Z" transform="translate(-782.72 -424.16)"/><path class="cls-2" d="M826.39,431.11v4.41c0,1.41,0,2.75-.06,4.08l-.64-.75q4.08.07,8.15.29a7.65,7.65,0,0,0,3.52-.39,2.67,2.67,0,0,0,1.48-2.48,3,3,0,0,0-.92-2.88,7.16,7.16,0,0,0-3.42-1C832,432,829.33,431.56,826.39,431.11Zm0,0c2.49-.07,5.3-.16,8.18-.12a14.39,14.39,0,0,1,2.15.18,5.39,5.39,0,0,1,2.21.84,4.08,4.08,0,0,1,1.53,2,6,6,0,0,1,.29,2.38,5.64,5.64,0,0,1-.64,2.35,4.22,4.22,0,0,1-1.9,1.79,6.18,6.18,0,0,1-2.33.53,14.2,14.2,0,0,1-2.17,0c-2.72-.23-5.42-.5-8.13-.82l-.74-.09.1-.67c.22-1.48.44-3,.7-4.35Z" transform="translate(-782.72 -424.16)"/><path class="cls-1" d="M871.83,436.11a6.39,6.39,0,0,0-4.17-4.51,11.49,11.49,0,0,0-4.12-.7,9.49,9.49,0,0,0-7.13,2.87q-2.79,2.87-2.79,8.62c0,3.87,1,6.6,3,8.21a10.79,10.79,0,0,0,6.88,2.41,9.74,9.74,0,0,0,6.19-1.9,8,8,0,0,0,3-5h-8.32v-5.26h15v16.9h-5l-.75-3.93a16.57,16.57,0,0,1-3.91,3.15,15.34,15.34,0,0,1-7.31,1.59,16.29,16.29,0,0,1-11.71-4.33q-4.76-4.35-4.76-11.91t4.81-12.26q4.8-4.6,12.71-4.61,6.84,0,11,3a11,11,0,0,1,4.76,7.59Z" transform="translate(-782.72 -424.16)"/><path class="cls-2" d="M871.83,436.11a6.26,6.26,0,0,0-1.81-3,7.75,7.75,0,0,0-3.07-1.61,11.7,11.7,0,0,0-6.86.21,8.63,8.63,0,0,0-4.89,4.5,15.22,15.22,0,0,0-1.05,6.74,10.26,10.26,0,0,0,2,6.3,8.62,8.62,0,0,0,2.63,2,9.65,9.65,0,0,0,3.17,1,10.37,10.37,0,0,0,6.42-1.11,7.25,7.25,0,0,0,3.51-5.13l.81,1-8.32.05h-.86v-.87l0-5.26V440h.89l15-.05h.93v.94l.06,16.9v1h-6.8l-.15-.79-.74-3.94,1.65.5a17,17,0,0,1-4.53,3.5,15.33,15.33,0,0,1-5.57,1.42,19.12,19.12,0,0,1-11-2.22,17.15,17.15,0,0,1-4.38-3.66,14.94,14.94,0,0,1-2.79-5,18.45,18.45,0,0,1-.89-5.59,21.16,21.16,0,0,1,.61-5.59A15.79,15.79,0,0,1,852,428.2,18.59,18.59,0,0,1,862.55,425a20.38,20.38,0,0,1,10.71,2.37,13.66,13.66,0,0,1,4.13,3.66,10.58,10.58,0,0,1,2,5.1l0,.19h-.2Zm0,0,7.39-.17-.16.19a10.25,10.25,0,0,0-2.09-4.82,13.28,13.28,0,0,0-4.06-3.36A20.18,20.18,0,0,0,862.59,426a17.31,17.31,0,0,0-9.83,3.22,14.43,14.43,0,0,0-5.54,8.5,19.61,19.61,0,0,0-.45,5.19,18.17,18.17,0,0,0,.87,5.09,13.26,13.26,0,0,0,2.5,4.4,15.33,15.33,0,0,0,3.94,3.24,17.28,17.28,0,0,0,10,1.92,13.44,13.44,0,0,0,4.88-1.27,14.9,14.9,0,0,0,4-3.15l1.29-1.32.36,1.82.77,3.92-1-.79,5,0-1,1,.06-16.9.94.94-15-.05.89-.89,0,5.26-.87-.87,8.32.05h1l-.19,1a8.78,8.78,0,0,1-4.38,6.13,10.32,10.32,0,0,1-3.62,1.17,13.39,13.39,0,0,1-3.74,0,11.14,11.14,0,0,1-3.56-1.18,9.92,9.92,0,0,1-3-2.33,11.29,11.29,0,0,1-2.12-7,15.54,15.54,0,0,1,1.35-7.12,9.35,9.35,0,0,1,5.44-4.7,12.15,12.15,0,0,1,7.14,0,7.89,7.89,0,0,1,3.09,1.8A6.35,6.35,0,0,1,871.83,436.11Z" transform="translate(-782.72 -424.16)"/><path class="cls-1" d="M796.82,455.36h8.5L818,486.85h-8.15l-2.37-6.47H794.28l-2.43,6.47H784ZM796.33,475h9.2L801,462.56Z" transform="translate(-782.72 -424.16)"/><path class="cls-2" d="M796.82,455.36l8.5-.29h.19l.08.19q3.43,7.77,6.75,15.59t6.55,15.66l.52,1.26H818l-8.15.05h-.67l-.24-.64-2.39-6.46.93.65-13.24,0,.91-.62-2.48,6.45-.24.6h-.62l-7.86-.08h-1.27l.49-1.15c2.24-5.29,4.5-10.56,6.78-15.76l3.42-7.76Zm0,0-6,16.09c-2,5.29-4,10.51-6.05,15.72L784,486l7.86-.07-.86.6,2.39-6.49.23-.63h.67l13.24,0h.7l.23.66,2.35,6.47-.91-.63,8.15.05-.86,1.26q-3.12-7.89-6.16-15.82t-6-15.9l.27.19Z" transform="translate(-782.72 -424.16)"/><path class="cls-2" d="M796.33,475c1.72-.13,3.31-.28,4.83-.44s3-.28,4.37-.35l-.74,1.06c-.44-1-.84-2-1.25-3.05s-.81-2.05-1.2-3.08-.78-2-1.14-3.09l-1.09-3.11h1.76c-.78,1.93-1.63,3.82-2.57,5.79S797.36,472.71,796.33,475Zm0,0,1.68-6.11c.62-2.17,1.33-4.41,2.1-6.61l.84-2.41.93,2.42,1.17,3.08c.4,1,.76,2.06,1.13,3.1s.74,2.07,1.08,3.12.7,2.08,1,3.14l.33,1.11-1.08-.05c-1.64-.06-3.28-.2-4.83-.34Z" transform="translate(-782.72 -424.16)"/><path class="cls-1" d="M812.11,458.19l7.77-1.12L838,476.71,834,455l6.9-1,5.83,31.07-7.41,1.07-18.57-20,4.13,22-6.9,1Z" transform="translate(-782.72 -424.16)"/><path class="cls-2" d="M812.11,458.19l7.74-1.3.09,0,.07.07,9.26,9.65c3.1,3.21,6.13,6.47,9.2,9.7l-1.05.53-4.3-21.62-.17-.87.89-.13,6.9-1,.83-.12.16.83,5.94,31,.2,1-1,.15-7.42,1-.51.07-.34-.37-18.5-20,1.49-.75c.68,3.68,1.36,7.35,2,11l1.94,11,.13.69-.68.09-6.92.92-.56.07-.1-.54c-.94-5.26-1.81-10.52-2.67-15.72Zm0,0,3.24,15.61c1.09,5.15,2.15,10.25,3.16,15.35l-.66-.47,6.9-1.07-.56.78-2.2-11c-.74-3.67-1.44-7.34-2.14-11l-.56-2.94,2.05,2.19L840,485.52l-.86-.3,7.41-1.09-.84,1.17L840,454.21l1,.71-6.91,1,.71-1,3.84,21.7.37,2.13-1.43-1.6c-3-3.31-6-6.59-8.94-9.93l-8.89-10,.16.06Z" transform="translate(-782.72 -424.16)"/><path class="cls-1" d="M854.49,487.4H847V455.91h7.46Z" transform="translate(-782.72 -424.16)"/><path class="cls-2" d="M854.49,487.4l-7.46.38-.37,0v-.4c-.25-5.25-.37-10.5-.48-15.75s-.12-10.49-.14-15.74v-1h1l7.46,0h1v1c0,2.68-.08,5.36-.12,8l-.21,8c-.1,2.63-.18,5.26-.3,7.83Zm0,0-.33-8.1-.31-7.91-.21-7.77c0-2.57-.11-5.14-.11-7.71l1,1-7.46,0,1-1c0,5.25,0,10.5-.14,15.74s-.23,10.5-.48,15.75L847,487Z" transform="translate(-782.72 -424.16)"/><path class="cls-1" d="M861.35,479a6,6,0,0,0,1.37,3.22q1.88,1.95,6.4,1.95a15.29,15.29,0,0,0,4.41-.52q3.21-1,3.21-3.65a2.64,2.64,0,0,0-1.57-2.41,18.61,18.61,0,0,0-5-1.48l-3.89-.74q-5.74-1.11-7.89-2.42a7.37,7.37,0,0,1-3.63-6.81,8.6,8.6,0,0,1,3.55-7q3.55-2.8,10.45-2.8a17.62,17.62,0,0,1,9.81,2.64,9,9,0,0,1,4.26,7.66h-7.22a4.5,4.5,0,0,0-2.9-4,11.08,11.08,0,0,0-4.47-.79,9.38,9.38,0,0,0-4.75,1,3.15,3.15,0,0,0-1.78,2.86,2.69,2.69,0,0,0,1.75,2.52,24.15,24.15,0,0,0,4.78,1.3l6.31,1.3a17.37,17.37,0,0,1,6.21,2.29,7.31,7.31,0,0,1,3.22,6.43,8.63,8.63,0,0,1-3.81,7.17q-3.81,2.85-10.76,2.85-7.11,0-11.17-2.81a8.9,8.9,0,0,1-4.07-7.72Z" transform="translate(-782.72 -424.16)"/><path class="cls-2" d="M861.35,479a7.2,7.2,0,0,0,.93,2.53,4.63,4.63,0,0,0,2.06,1.65,12.26,12.26,0,0,0,5.28.74,11.17,11.17,0,0,0,5.13-1.16,3,3,0,0,0,1.47-1.86,2.42,2.42,0,0,0-.37-2.2,4.64,4.64,0,0,0-2.13-1.18,21.68,21.68,0,0,0-2.58-.67l-5.37-1a41.36,41.36,0,0,1-5.38-1.32,9.27,9.27,0,0,1-4.82-3.2,9.56,9.56,0,0,1,.44-11.16,11.62,11.62,0,0,1,4.72-3.43,19.35,19.35,0,0,1,5.57-1.24,21.18,21.18,0,0,1,11.14,1.72,11.52,11.52,0,0,1,4.57,3.69,10.5,10.5,0,0,1,1.8,5.64l0,1h-1l-7.22,0h-1l0-.93a3.62,3.62,0,0,0-2.48-3.29,11.83,11.83,0,0,0-5-.61,9,9,0,0,0-2.42.47,3.75,3.75,0,0,0-1.76,1.2,2,2,0,0,0-.33.87,2,2,0,0,0,.06.93,2.22,2.22,0,0,0,1.41,1.24,38,38,0,0,0,5.15,1.3l5.36,1.13a22.29,22.29,0,0,1,5.42,1.76,9.48,9.48,0,0,1,2.43,1.76,7.71,7.71,0,0,1,1.65,2.56,9.75,9.75,0,0,1,.28,5.87,9.4,9.4,0,0,1-3.23,4.85,13.23,13.23,0,0,1-5.09,2.59A26.15,26.15,0,0,1,859.67,488a11.13,11.13,0,0,1-4.22-3.66A9.31,9.31,0,0,1,854,479v-.18h.17Zm0,0-7.17.17.18-.17a8.82,8.82,0,0,0,1.56,5,10.39,10.39,0,0,0,4.1,3.29,17,17,0,0,0,5.13,1.43,31.06,31.06,0,0,0,5.37.21c3.55-.17,7.2-1,9.81-3.27a8,8,0,0,0,2.66-4.18,8.23,8.23,0,0,0-.33-4.89,6.78,6.78,0,0,0-3.36-3.4,20,20,0,0,0-5-1.57l-5.37-1.09a39,39,0,0,1-5.47-1.36,5.41,5.41,0,0,1-1.44-.83,3.5,3.5,0,0,1-1-1.52,4,4,0,0,1,.48-3.45,5.48,5.48,0,0,1,2.65-1.92,10.93,10.93,0,0,1,2.94-.61,13.51,13.51,0,0,1,5.83.71,6.16,6.16,0,0,1,2.61,1.89,5.54,5.54,0,0,1,1.13,3.08l-1-.93,7.22,0-1,1a8.57,8.57,0,0,0-1.42-4.64,9.82,9.82,0,0,0-3.83-3.11,19.42,19.42,0,0,0-10.18-1.61c-3.48.25-7,1.31-9.12,4a8.05,8.05,0,0,0-.58,9.24,8,8,0,0,0,4.08,2.81,41.64,41.64,0,0,0,5.19,1.39l5.35,1.11a22.06,22.06,0,0,1,2.69.76,5.44,5.44,0,0,1,2.51,1.56,3.63,3.63,0,0,1-1.47,5.24,11.7,11.7,0,0,1-5.46,1,12.41,12.41,0,0,1-5.41-1,4.74,4.74,0,0,1-2.06-1.83A7.23,7.23,0,0,1,861.35,479Z" transform="translate(-782.72 -424.16)"/><path class="cls-1" d="M793.28,484.79l8.15-2.11,22.41,27-7.81,2-4.38-5.62L799,509.41l-.24,6.81-7.53,1.95Zm5.88,18.91,8.83-2.3-8.38-10.74Z" transform="translate(-782.72 -424.16)"/><path class="cls-2" d="M793.28,484.79l8.07-2.4.17-.05.13.15,5.79,6.6,5.74,6.64q5.73,6.66,11.37,13.37l1,1.12-1.43.38-7.8,2.07-.61.16-.4-.51-4.39-5.6,1,.35-12.7,3.27.72-.9-.28,6.81,0,.69-.66.16L791.4,519l-1.13.28.09-1.14q.64-8.46,1.38-16.83Zm0,0-.55,16.89c-.2,5.56-.45,11.06-.71,16.55l-1-.86,7.52-2-.69.85.19-6.82,0-.71.7-.19,12.68-3.32L812,505l.4.52,4.36,5.63-1-.35,7.82-2-.48,1.49q-5.55-6.8-11-13.65l-5.46-6.86-5.42-6.92.3.1Z" transform="translate(-782.72 -424.16)"/><path class="cls-2" d="M799.16,503.7c1.61-.56,3.1-1.1,4.52-1.64s2.76-1,4.11-1.42l-.42,1.25c-.76-.86-1.47-1.74-2.2-2.61s-1.44-1.76-2.14-2.65-1.42-1.77-2.1-2.68-1.39-1.8-2.06-2.72l1.68-.54c-.13,2.05-.33,4.08-.58,6.22Zm0,0c-.12-1.94-.26-4.05-.36-6.26s-.15-4.52-.12-6.82l0-2.5,1.65,2c.73.87,1.42,1.77,2.13,2.66s1.4,1.78,2.09,2.69,1.38,1.8,2,2.72,1.34,1.83,2,2.77l.68,1-1.11.24c-1.59.35-3.18.63-4.71.87Z" transform="translate(-782.72 -424.16)"/><path class="cls-1" d="M843.16,492.62l-.62,5.55-10.71-.92L829,523l-7.52-.64,2.87-25.79-10.75-.92.61-5.55Z" transform="translate(-782.72 -424.16)"/><path class="cls-2" d="M843.16,492.62l-.42,5.57v.19h-.21l-10.73-.6.56-.46q-1.14,12.93-2.48,25.83l-.09.88-.89-.07-7.53-.59-1-.08.11-1,1.41-12.9,1.48-12.89.86,1.05-10.75-1-.87-.08.11-.85.7-5.54.09-.75.73.07c4.92.49,9.81,1,14.65,1.58Zm0,0-14.71-.82c-4.83-.28-9.6-.56-14.34-.9l.82-.67-.53,5.55-.77-.93,10.76.82,1,.07-.11,1-1.39,12.9L822.4,522.5l-.88-1.06,7.52.69-1,.81q1.55-12.89,3.27-25.75l.07-.51.49.06L842.56,498l-.22.18Z" transform="translate(-782.72 -424.16)"/><path class="cls-1" d="M849.26,519.37H841.8V487.88h7.46Z" transform="translate(-782.72 -424.16)"/><path class="cls-2" d="M849.26,519.37l-7.46.38-.37,0,0-.4c-.25-5.25-.37-10.5-.47-15.74s-.13-10.5-.14-15.75v-1h1l7.46,0h1v1c0,2.69-.07,5.36-.11,8l-.21,8c-.11,2.63-.18,5.27-.31,7.84Zm0,0-.34-8.1-.3-7.91-.21-7.77c0-2.57-.11-5.14-.12-7.71l1,1-7.46,0,1-1c0,5.25,0,10.5-.14,15.75s-.22,10.49-.47,15.74l-.38-.38Z" transform="translate(-782.72 -424.16)"/><path class="cls-1" d="M883.11,493.09h-19v6.69h17.46v5.46H864.09v8.1H884V519H856.75V487.52h26.36Z" transform="translate(-782.72 -424.16)"/><path class="cls-2" d="M883.11,493.09l-19,.4.39-.4.12,6.69-.51-.52,17.46-.2h.71v.73l.07,5.46V506h-.79c-5.82.09-11.64.09-17.46.11l.89-.88,0,8.09-.92-.92,19.9-.07h1V520h-1l-27.24-.11h-.89V519c0-5.25,0-10.49.11-15.74l.18-15.74v-.6h.59c8.78.07,17.57.28,26.36.44h.15v.14Zm0,0-.14-5.57.14.14c-8.79.16-17.58.37-26.36.44l.58-.58.19,15.74c.07,5.25.09,10.49.11,15.74l-.88-.88L884,518l-1,1v-5.66l1,1-19.9-.08h-.93v-.92l0-8.09v-.9h.89c5.82,0,11.64,0,17.46.11l-.78.77.06-5.46.72.71-17.46-.2h-.53v-.5l.12-6.69v-.41h.39Z" transform="translate(-782.72 -424.16)"/><path class="cls-1" d="M813.86,454.69q-4.07,3.68-11.78,3.67t-11.78-3.67q-5.46-4.5-5.46-13,0-8.65,5.46-13,4.08-3.66,11.78-3.67t11.78,3.67q5.45,4.35,5.44,13T813.86,454.69Zm-4.69-4.78c1.75-1.93,2.62-4.66,2.62-8.21s-.87-6.26-2.62-8.19a9.09,9.09,0,0,0-7.09-2.89A9.22,9.22,0,0,0,795,433.5c-1.77,1.92-2.66,4.66-2.66,8.2s.89,6.28,2.66,8.21a9.22,9.22,0,0,0,7.12,2.88A9.12,9.12,0,0,0,809.17,449.91Z" transform="translate(-782.72 -424.16)"/><path class="cls-2" d="M813.86,454.69a13.75,13.75,0,0,1-6,3.07,26.08,26.08,0,0,1-6.77.73,21.46,21.46,0,0,1-6.77-1.05,14,14,0,0,1-3.13-1.53,19.69,19.69,0,0,1-2.68-2.23,15.13,15.13,0,0,1-3.57-6,22.24,22.24,0,0,1-.94-7,19.61,19.61,0,0,1,1.34-7,15.62,15.62,0,0,1,10.73-9,25.59,25.59,0,0,1,7-.56A21.48,21.48,0,0,1,810,425.6a14.35,14.35,0,0,1,3.11,1.73c.49.36.92.75,1.35,1.13a14.39,14.39,0,0,1,4.45,7.39,23.07,23.07,0,0,1,.55,6.82,19.38,19.38,0,0,1-1.49,6.64A14.2,14.2,0,0,1,813.86,454.69Zm0,0a14.17,14.17,0,0,0,4-5.41,18.55,18.55,0,0,0,1.28-6.62,21.46,21.46,0,0,0-.88-6.64,13.57,13.57,0,0,0-3.33-5.63,13,13,0,0,0-1.23-1.1c-.44-.35-.86-.69-1.31-1a13.72,13.72,0,0,0-2.91-1.41,20.88,20.88,0,0,0-6.45-1,25.07,25.07,0,0,0-6.5.7,12.72,12.72,0,0,0-5.59,2.87c-3.46,2.62-5,6.89-5.22,11.26a21.22,21.22,0,0,0,.53,6.51,13.89,13.89,0,0,0,3,5.74,17.78,17.78,0,0,0,2.42,2.25,13.3,13.3,0,0,0,2.88,1.61,20.25,20.25,0,0,0,6.56,1.35,25,25,0,0,0,6.74-.52A13.7,13.7,0,0,0,813.86,454.69Z" transform="translate(-782.72 -424.16)"/><path class="cls-2" d="M809.17,449.91a9.5,9.5,0,0,0,2-3.64,14.36,14.36,0,0,0,.5-4.12,12.42,12.42,0,0,0-2.31-7.65,8,8,0,0,0-3.07-2.34,9.71,9.71,0,0,0-3.78-.68,8.82,8.82,0,0,0-6.8,2.71,11.12,11.12,0,0,0-2.51,7.08,12.32,12.32,0,0,0,1.61,7.63,8.39,8.39,0,0,0,2.92,2.66,9.6,9.6,0,0,0,3.91,1.08,10.72,10.72,0,0,0,4.1-.47A8.51,8.51,0,0,0,809.17,449.91Zm0,0a9.72,9.72,0,0,1-7.57,3,10.58,10.58,0,0,1-4.17-.79A9.15,9.15,0,0,1,794,449.5a13.29,13.29,0,0,1-2.53-8.26,15,15,0,0,1,.56-4.39,10.27,10.27,0,0,1,2.2-4,9.69,9.69,0,0,1,3.86-2.53,11.77,11.77,0,0,1,4.46-.54,10.46,10.46,0,0,1,4.32,1.16,9.22,9.22,0,0,1,3.28,3,13.25,13.25,0,0,1,1.79,8.25A12.23,12.23,0,0,1,809.17,449.91Z" transform="translate(-782.72 -424.16)"/></svg>