<svg id="location" xmlns="http://www.w3.org/2000/svg" viewBox="0 0 98.3 99.33"><defs><style>.cls-1{fill:#5c9ead;}.cls-2{fill:#444;}</style></defs><title>location</title><polygon class="cls-1" points="23.84 31.41 9.41 28.32 14.21 3.26 8.17 1.97 4.24 22.51 4.24 32.94 22.79 36.91 23.84 31.41"/><path class="cls-2" d="M793.72,240.78l-7.39-1.3c-2.42-.42-4.8-.81-7.16-1.26l-.5-.09.09-.54c.68-4.2,1.4-8.39,2.13-12.58l2.25-12.56.74,1.12-6-1.27,1.17-.78q-1,5.14-2,10.27c-.66,3.42-1.33,6.85-2,10.26v-.17c0,3.47-.07,7-.15,10.43l-.6-.75,9.23,2.19c3.08.73,6.14,1.53,9.21,2.3l-.28.18Zm0,0-.82,5.54,0,.23-.25,0c-3.11-.56-6.23-1.09-9.34-1.68L774,243.05l-.59-.11v-.63c-.07-3.48-.11-7-.15-10.43v-.08l0-.09q.91-5.15,1.9-10.29t2-10.27l.19-1,1,.22,6,1.31.93.2-.18.92-2.55,12.5q-1.31,6.25-2.66,12.48l-.42-.63c2.46.59,4.88,1.23,7.27,1.83Z" transform="translate(-769.87 -209.37)"/><path class="cls-1" d="M803.41,234.88q2.16-2.85,2.16-8.12t-2.16-8.11a6.89,6.89,0,0,0-5.81-2.87,7,7,0,0,0-5.84,2.86q-2.18,2.85-2.18,8.12t2.18,8.12a7,7,0,0,0,5.84,2.86A6.88,6.88,0,0,0,803.41,234.88Zm3.86,4.74q-3.35,3.65-9.67,3.64t-9.66-3.64q-4.49-4.45-4.48-12.86,0-8.56,4.48-12.86,3.34-3.63,9.66-3.64t9.67,3.64q4.46,4.29,4.46,12.86Q811.73,235.16,807.27,239.62Z" transform="translate(-769.87 -209.37)"/><path class="cls-2" d="M803.41,234.88a12.12,12.12,0,0,0,2-7.22,15.91,15.91,0,0,0-1.53-7.27,7.59,7.59,0,0,0-2.3-2.65,6.07,6.07,0,0,0-3.19-1.06,6.43,6.43,0,0,0-5.84,2.57,12.53,12.53,0,0,0-2.09,6.65,16,16,0,0,0,.82,7.22,7.77,7.77,0,0,0,2.09,2.94,6.42,6.42,0,0,0,3.33,1.49,7.62,7.62,0,0,0,3.73-.37A6.88,6.88,0,0,0,803.41,234.88Zm0,0a7,7,0,0,1-2.95,2.38,8.23,8.23,0,0,1-3.78.57,7.23,7.23,0,0,1-3.7-1.26,8.81,8.81,0,0,1-2.61-3,16.89,16.89,0,0,1-1.63-7.73A13,13,0,0,1,791,218a8.18,8.18,0,0,1,3.4-2.62,8.82,8.82,0,0,1,4.21-.45,7.36,7.36,0,0,1,3.84,1.69,8.76,8.76,0,0,1,2.37,3.31,17,17,0,0,1,.91,7.7A13.41,13.41,0,0,1,803.41,234.88Z" transform="translate(-769.87 -209.37)"/><path class="cls-2" d="M807.27,239.62a10.88,10.88,0,0,1-5.22,3.13,18.62,18.62,0,0,1-6.13.58,13.53,13.53,0,0,1-6-1.66,11.21,11.21,0,0,1-2.47-2,14,14,0,0,1-2-2.46,17.24,17.24,0,0,1-2.3-5.9,27.31,27.31,0,0,1-.51-6.31,21.41,21.41,0,0,1,1.11-6.3,14.24,14.24,0,0,1,3.46-5.52,11.6,11.6,0,0,1,2.61-2.08,12.85,12.85,0,0,1,3.08-1.25,18.64,18.64,0,0,1,6.43-.41,13.64,13.64,0,0,1,6.12,2.06,11.36,11.36,0,0,1,2.42,2.15,13.37,13.37,0,0,1,1.89,2.58,16.83,16.83,0,0,1,1.91,6,29.26,29.26,0,0,1,.14,6.2,21.76,21.76,0,0,1-1.27,6A14.21,14.21,0,0,1,807.27,239.62Zm0,0a14,14,0,0,0,3.2-5.19,20.21,20.21,0,0,0,1.07-6,27.44,27.44,0,0,0-.48-6.08,15.89,15.89,0,0,0-2.16-5.57A12,12,0,0,0,807,214.5a10.51,10.51,0,0,0-2.28-1.8,12.6,12.6,0,0,0-5.54-1.51c-3.91-.22-8,.54-10.55,3.42-2.83,2.65-4,6.57-4.28,10.52s0,8.11,2,11.6a13.06,13.06,0,0,0,1.73,2.42,10.44,10.44,0,0,0,2.21,2,12.55,12.55,0,0,0,5.68,1.91,17.58,17.58,0,0,0,6.09-.37A10.76,10.76,0,0,0,807.27,239.62Z" transform="translate(-769.87 -209.37)"/><path class="cls-1" d="M817.62,214.11a11.78,11.78,0,0,1,9.06-3.85q7.37,0,10.77,5.16a11.64,11.64,0,0,1,2,5.82H833.3a9,9,0,0,0-1.51-3.39,6.45,6.45,0,0,0-10.07.84q-1.9,2.87-1.9,8.11t2,7.86a6.15,6.15,0,0,0,5.09,2.61,5.66,5.66,0,0,0,4.84-2.24,10.15,10.15,0,0,0,1.52-3.62h6.12a14.27,14.27,0,0,1-4,8.29,11.41,11.41,0,0,1-8.34,3.2,12.19,12.19,0,0,1-9.9-4.32q-3.6-4.34-3.6-11.89Q813.52,218.53,817.62,214.11Z" transform="translate(-769.87 -209.37)"/><path class="cls-2" d="M817.62,214.11a11.59,11.59,0,0,1,6.14-3.58,15,15,0,0,1,3.59-.31,16.05,16.05,0,0,1,3.59.46A11.29,11.29,0,0,1,837,214.5a12.23,12.23,0,0,1,2.79,6.72l0,.36h-.38l-6.16.13H833l-.11-.36a10.1,10.1,0,0,0-1.08-2.61,4.56,4.56,0,0,0-2-1.74,6.37,6.37,0,0,0-2.63-.53,5.57,5.57,0,0,0-2.57.54,6.71,6.71,0,0,0-3.15,4.12,17.53,17.53,0,0,0-.72,5.58,16.4,16.4,0,0,0,.86,5.51,6.24,6.24,0,0,0,3.35,3.68,5.8,5.8,0,0,0,4.84-.36,4.73,4.73,0,0,0,1.63-1.8,11.52,11.52,0,0,0,.93-2.57l.19-.74h.74l6.12.08h1l-.16,1a15.63,15.63,0,0,1-2.75,6.77,12.06,12.06,0,0,1-5.81,4.41,14.66,14.66,0,0,1-7.19.46,12.22,12.22,0,0,1-6.42-3.1,13.92,13.92,0,0,1-3.68-6,22.82,22.82,0,0,1-1-7,25.71,25.71,0,0,1,.85-6.93A14.67,14.67,0,0,1,817.62,214.11Zm0,0a14.71,14.71,0,0,0-3.27,6.1,23.75,23.75,0,0,0-.74,6.92,21.58,21.58,0,0,0,1.18,6.82,13.3,13.3,0,0,0,3.77,5.64,11.41,11.41,0,0,0,6.11,2.66,13.82,13.82,0,0,0,6.62-.68,10.76,10.76,0,0,0,5-4.13,15,15,0,0,0,2.25-6.16l.87,1-6.12.08.93-.73a13.11,13.11,0,0,1-1.08,3,6.62,6.62,0,0,1-2.29,2.56,6.9,6.9,0,0,1-3.27,1,7.25,7.25,0,0,1-3.36-.49,8.16,8.16,0,0,1-4.42-4.84,16.83,16.83,0,0,1-.88-6.19,19.33,19.33,0,0,1,1-6.13,8.22,8.22,0,0,1,4.14-4.87,6.8,6.8,0,0,1,3.21-.55,7.49,7.49,0,0,1,3.12.78,5.64,5.64,0,0,1,2.34,2.25,11.22,11.22,0,0,1,1.08,2.92l-.46-.36,6.16.13-.34.36a11.66,11.66,0,0,0-2.41-6.5,10.68,10.68,0,0,0-5.82-3.89,15.86,15.86,0,0,0-7.12-.27A11.61,11.61,0,0,0,817.62,214.11Z" transform="translate(-769.87 -209.37)"/><path class="cls-1" d="M855.2,230.44h-7.55l3.83-12.27ZM844,242.22l2-6.41h10.86l1.95,6.41h4.62v-6.16l-8.31-24.83H848l-10.46,31Z" transform="translate(-769.87 -209.37)"/><path class="cls-2" d="M855.2,230.44l-3.57.4c-.63.08-1.3.13-2,.19s-1.34.11-2,.14l-.95,0,.25-1c.51-2.09,1.08-4.15,1.69-6.21s1.26-4.09,1.92-6.13l1-3,.83,3c.61,2.18,1.15,4.39,1.61,6.53S854.84,228.59,855.2,230.44Zm0,0-2.52-6.25c-.78-2-1.48-3.84-2.12-5.74h1.83c-.61,2.06-1.22,4.11-1.9,6.14s-1.38,4.06-2.14,6.07l-.7-1c.58,0,1.16.08,1.76.14l1.81.19C852.47,230.18,853.79,230.32,855.2,230.44Z" transform="translate(-769.87 -209.37)"/><path class="cls-2" d="M844,242.22l1.74-6.49,0-.18h.2c3.62-.11,7.24-.25,10.86-.32h.43l.14.43,2.08,6.37-.7-.52,4.62-.08-.81.81-.08-6.16,0,.28q-2.16-6.18-4.24-12.39t-4.15-12.41l.92.66-7.1,0,.89-.63q-2.68,7.72-5.45,15.42t-5.66,15.35l-.24-.34Zm0,0c-2.09.08-4.25.19-6.45.25h-.34l.1-.34q2.34-7.84,4.8-15.64t5-15.57l.21-.63H848l7.1,0h.7l.22.67q2.12,6.2,4.16,12.41t4.07,12.44l0,.15v.14l-.08,6.16V243h-.8l-4.62-.08h-.56l-.14-.51L856.27,236l.56.42c-3.62-.07-7.24-.21-10.86-.33l.26-.18C845.48,238.06,844.71,240.17,844,242.22Z" transform="translate(-769.87 -209.37)"/><path class="cls-1" d="M847.65,230.44h7.55l-3.72-12.27Zm.41-19.4h7l10.43,31.18h-6.68l-1.95-6.41H846l-2,6.41h-6.45Z" transform="translate(-769.87 -209.37)"/><path class="cls-2" d="M847.65,230.44c1.42-.12,2.74-.26,4-.41.63-.08,1.22-.13,1.82-.19s1.17-.11,1.75-.14l-.7,1c-.75-2-1.44-4-2.09-6.07s-1.26-4.08-1.85-6.13h1.83c-.65,1.91-1.36,3.79-2.16,5.74Zm0,0c.37-1.85.79-3.9,1.25-6s1-4.34,1.66-6.53l.87-3,1,3c.65,2,1.3,4.07,1.88,6.13s1.14,4.12,1.64,6.2l.23,1-.94,0c-.68,0-1.35-.08-2-.14s-1.32-.11-2-.19Z" transform="translate(-769.87 -209.37)"/><path class="cls-2" d="M848.06,211c2.26-.09,4.59-.2,7-.27h.18l.07.18q2.88,7.71,5.64,15.45t5.42,15.52l.42,1.22h-1.3l-6.68,0h-.72l-.21-.69-2-6.4,1,.7-10.86,0,.93-.68-2,6.39-.21.66H844l-6.45-.07h-1.21l.4-1.13,2.79-7.85,2.84-7.79,2.86-7.69Zm0,0L843.24,227l-2.43,7.8-2.46,7.73-.82-1.13,6.45-.07-.89.65,2-6.42.21-.68H846l10.86,0h.74l.21.71,1.93,6.42-.93-.69,6.68,0-.88,1.22q-2.55-7.81-5-15.66t-4.79-15.73l.25.19Z" transform="translate(-769.87 -209.37)"/><polygon class="cls-1" points="15.89 67.78 15.89 42.12 24.71 42.12 24.71 36.6 4.24 36.6 4.24 42.12 9.69 42.12 9.69 67.78 15.89 67.78"/><path class="cls-2" d="M785.76,277.14l-.45-13c-.13-4.26-.26-8.46-.32-12.64l0-.76.79,0c2.94-.06,5.88-.09,8.82-.12l-.9.9-.06-5.52,1,.95-10.23,0-10.24,0,1-1,0,5.52-.93-.94,5.45.06h.88v.87l-.1,6.41-.12,6.42c-.1,4.27-.24,8.55-.39,12.82l-.26-.25Zm0,0-6.2.26h-.25v-.27c-.16-4.27-.3-8.55-.39-12.82l-.12-6.42-.1-6.41.87.87-5.45.06h-.92v-.94l0-5.52v-1h1l10.24,0,10.23,0h1v1l-.06,5.52v.9h-.89q-4.41,0-8.82-.12l.77-.77c-.06,4.36-.19,8.72-.32,13Z" transform="translate(-769.87 -209.37)"/><polygon class="cls-1" points="24.71 36.6 24.71 42.12 15.89 42.12 15.89 67.78 9.69 67.78 9.69 42.12 0.83 42.12 0.83 36.6 24.71 36.6"/><path class="cls-2" d="M794.58,246l.22,5.52v.21h-.23l-8.82.28.5-.5c.11,4.27.21,8.55.27,12.83s.11,8.55.16,12.82v.93h-.94l-6.2,0h-1v-1l0-12.82.07-12.83.92.91-8.86-.1h-.83v-.8L770,246v-.73h.71c4.06.07,8.12.18,12.1.32Zm0,0-12.11.39c-4,.14-7.88.25-11.77.32l.72-.71.09,5.52-.81-.82,8.86-.1h.91v.93l.08,12.83,0,12.82-1-1,6.2,0-.93.93c0-4.27.07-8.55.16-12.82s.16-8.56.27-12.83V251h.49l8.82.29-.22.22Z" transform="translate(-769.87 -209.37)"/><polygon class="cls-1" points="38.42 66.97 32.37 68.27 26.36 37.81 32.41 36.51 38.42 66.97"/><path class="cls-2" d="M808.29,276.34l-6,1.63-.31.09-.09-.35c-1.27-5-2.39-10.08-3.51-15.13s-2.13-10.13-3.15-15.2l-.2-1,1-.2,6.05-1.28,1-.2.19,1c.51,2.6,1,5.2,1.43,7.8s.88,5.18,1.32,7.75.83,5.13,1.19,7.64Zm0,0-1.88-7.78c-.64-2.56-1.22-5.08-1.81-7.59s-1.17-5-1.69-7.47-1.09-4.95-1.58-7.43l1.15.76-6,1.33.77-1.17q1.49,7.62,2.86,15.26c.88,5.1,1.77,10.2,2.5,15.33l-.4-.27Z" transform="translate(-769.87 -209.37)"/><polygon class="cls-1" points="38.42 66.97 32.37 68.27 26.36 37.81 32.41 36.51 38.42 66.97"/><path class="cls-2" d="M808.29,276.34l-6,1.63-.31.09-.09-.35c-1.27-5-2.39-10.08-3.51-15.13s-2.13-10.13-3.15-15.2l-.2-1,1-.2,6.05-1.28,1-.2.19,1c.51,2.6,1,5.2,1.43,7.8s.88,5.18,1.32,7.75.83,5.13,1.19,7.64Zm0,0-1.88-7.78c-.64-2.56-1.22-5.08-1.81-7.59s-1.17-5-1.69-7.47-1.09-4.95-1.58-7.43l1.15.76-6,1.33.77-1.17q1.49,7.62,2.86,15.26c.88,5.1,1.77,10.2,2.5,15.33l-.4-.27Z" transform="translate(-769.87 -209.37)"/><path class="cls-1" d="M828.21,268.74c1.45-1.89,2.17-4.6,2.17-8.1s-.72-6.18-2.17-8.09a7,7,0,0,0-5.86-2.86,7.07,7.07,0,0,0-5.89,2.85q-2.21,2.85-2.2,8.1c0,3.5.73,6.21,2.2,8.1a7.07,7.07,0,0,0,5.89,2.85,7,7,0,0,0,5.86-2.85m3.89,4.73q-3.37,3.63-9.75,3.63t-9.74-3.63q-4.53-4.46-4.52-12.83,0-8.53,4.52-12.82,3.36-3.63,9.74-3.63t9.75,3.63q4.5,4.27,4.49,12.82,0,8.39-4.49,12.83" transform="translate(-769.87 -209.37)"/><path class="cls-2" d="M828.21,268.74a13.14,13.14,0,0,0,1.67-7.24,16.13,16.13,0,0,0-1.47-7.13,7.62,7.62,0,0,0-2.2-2.6,6,6,0,0,0-3.1-1.1,7.49,7.49,0,0,0-3.31.46,6.3,6.3,0,0,0-2.56,2,11.72,11.72,0,0,0-2,6.65,15.81,15.81,0,0,0,1,7.1,7.7,7.7,0,0,0,2.08,2.77,6.48,6.48,0,0,0,3.19,1.38,7.93,7.93,0,0,0,3.62-.25,7.05,7.05,0,0,0,3.08-2.07,6.89,6.89,0,0,1-2.88,2.59,8.45,8.45,0,0,1-3.92.71,7.66,7.66,0,0,1-3.88-1.31,8.82,8.82,0,0,1-2.69-3.13,16.51,16.51,0,0,1-1.51-7.86,13.41,13.41,0,0,1,2.33-7.8,8.21,8.21,0,0,1,3.41-2.62,9,9,0,0,1,4.22-.53,7.84,7.84,0,0,1,4,1.58,8.75,8.75,0,0,1,2.55,3.32,16.11,16.11,0,0,1,1,7.84A12.24,12.24,0,0,1,828.21,268.74Z" transform="translate(-769.87 -209.37)"/><path class="cls-2" d="M832.1,273.47a10.81,10.81,0,0,1-2.33,2,12.07,12.07,0,0,1-2.86,1.29,18.71,18.71,0,0,1-6.23.72,14,14,0,0,1-6.16-1.67,10.77,10.77,0,0,1-2.56-2,13.82,13.82,0,0,1-2-2.51,16.91,16.91,0,0,1-2.31-6,27.75,27.75,0,0,1-.42-6.36,21.33,21.33,0,0,1,1.19-6.32,14.24,14.24,0,0,1,3.51-5.51,11.35,11.35,0,0,1,2.62-2.07,13.05,13.05,0,0,1,3.08-1.26,19.09,19.09,0,0,1,6.46-.48,14.22,14.22,0,0,1,6.24,1.93,11.54,11.54,0,0,1,2.53,2.11,13.92,13.92,0,0,1,2,2.58,16.77,16.77,0,0,1,2.07,6.07,28.19,28.19,0,0,1,.17,6.29,21.34,21.34,0,0,1-1.42,6.1,13.59,13.59,0,0,1-3.52,5.08,14.41,14.41,0,0,0,3-5.27,20.46,20.46,0,0,0,.94-6,27.32,27.32,0,0,0-.48-6,15.79,15.79,0,0,0-2.11-5.48,12.25,12.25,0,0,0-1.85-2.23,10.39,10.39,0,0,0-2.23-1.78,12.62,12.62,0,0,0-5.49-1.55c-3.9-.26-8,.47-10.59,3.33-2.86,2.65-4,6.59-4.23,10.54s.2,8.07,2.16,11.45a12.73,12.73,0,0,0,1.76,2.33,10.59,10.59,0,0,0,2.19,1.89,12.87,12.87,0,0,0,5.57,1.82,17.85,17.85,0,0,0,6-.26A11.23,11.23,0,0,0,832.1,273.47Z" transform="translate(-769.87 -209.37)"/><path class="cls-1" d="M828.45,268.33q2.2-2.86,2.22-8.18T828.5,252a7.07,7.07,0,0,0-5.93-2.91,7.17,7.17,0,0,0-6,2.87q-2.25,2.87-2.26,8.18c0,3.54.72,6.28,2.2,8.2a7.19,7.19,0,0,0,6,2.9A7.09,7.09,0,0,0,828.45,268.33Zm3.92,4.79q-3.42,3.66-9.88,3.64t-9.87-3.69q-4.56-4.51-4.53-13,0-8.64,4.62-13,3.42-3.66,9.88-3.64t9.86,3.69q4.54,4.35,4.52,13Q836.94,268.64,832.37,273.12Z" transform="translate(-769.87 -209.37)"/><path class="cls-2" d="M828.45,268.33a12.13,12.13,0,0,0,2.06-7.31,15.7,15.7,0,0,0-1.55-7.35,7.56,7.56,0,0,0-2.37-2.67,6.36,6.36,0,0,0-3.25-1.05,6.61,6.61,0,0,0-6,2.59,12.35,12.35,0,0,0-2.16,6.72,15.87,15.87,0,0,0,.85,7.32,8,8,0,0,0,2.15,2.95,6.66,6.66,0,0,0,3.41,1.48,8,8,0,0,0,3.78-.37A7.13,7.13,0,0,0,828.45,268.33Zm0,0a7.24,7.24,0,0,1-3,2.38,8.54,8.54,0,0,1-3.84.58,7.55,7.55,0,0,1-3.76-1.25,8.72,8.72,0,0,1-2.67-3,16.66,16.66,0,0,1-1.67-7.83,17.06,17.06,0,0,1,.49-4.05,10.57,10.57,0,0,1,1.81-3.82,8.3,8.3,0,0,1,3.46-2.63,9.12,9.12,0,0,1,4.25-.45,7.73,7.73,0,0,1,3.91,1.66,8.88,8.88,0,0,1,2.43,3.33,16.86,16.86,0,0,1,.94,7.8A13.46,13.46,0,0,1,828.45,268.33Z" transform="translate(-769.87 -209.37)"/><path class="cls-2" d="M832.37,273.12a11.08,11.08,0,0,1-5.32,3.14,19.41,19.41,0,0,1-6.22.57,14.05,14.05,0,0,1-6.08-1.64,11,11,0,0,1-2.53-2,14.07,14.07,0,0,1-2.06-2.48,17.18,17.18,0,0,1-2.37-6,26.91,26.91,0,0,1-.51-6.39,21.79,21.79,0,0,1,1.15-6.4,14.35,14.35,0,0,1,3.56-5.56,11.89,11.89,0,0,1,2.66-2.08,13.94,13.94,0,0,1,3.12-1.25,19.18,19.18,0,0,1,6.52-.41,14.17,14.17,0,0,1,6.22,2,11.67,11.67,0,0,1,2.48,2.15,13.79,13.79,0,0,1,1.94,2.59,16.66,16.66,0,0,1,2,6.05,28.7,28.7,0,0,1,.13,6.28,21.24,21.24,0,0,1-1.31,6.11A14.28,14.28,0,0,1,832.37,273.12Zm0,0a14.22,14.22,0,0,0,3.3-5.23,20.2,20.2,0,0,0,1.1-6.1,25.89,25.89,0,0,0-.48-6.16,16,16,0,0,0-2.22-5.64,12,12,0,0,0-1.94-2.28,10,10,0,0,0-2.33-1.8,13.2,13.2,0,0,0-5.65-1.5c-4-.21-8.13.54-10.74,3.43-2.9,2.67-4.1,6.64-4.41,10.65s0,8.22,2,11.74a12.86,12.86,0,0,0,1.79,2.44,10.75,10.75,0,0,0,2.27,2,13.27,13.27,0,0,0,5.78,1.9,18.34,18.34,0,0,0,6.18-.38A11.06,11.06,0,0,0,832.37,273.12Z" transform="translate(-769.87 -209.37)"/><polygon class="cls-1" points="69.49 35.88 75.95 35.88 87.65 57.62 87.65 35.88 93.39 35.88 93.39 67.06 87.23 67.06 75.23 44.93 75.23 67.06 69.49 67.06 69.49 35.88"/><path class="cls-2" d="M839.36,245.24l6.46-.16h.09l.06.09L852,255.92c2,3.58,4,7.18,6,10.78l-1.12.28-.26-21.74v-.84h.86l5.74,0h.87v.87l.12,31.18v1h-1l-6.16,0h-.58l-.28-.51-11.91-22.17,1.65-.42c0,3.69,0,7.37-.07,11.06l-.14,11.06v.68h-.66l-5.74-.07h-.61v-.6c0-5.27.14-10.52.27-15.72Zm0,0,.32,15.73c.13,5.19.23,10.33.28,15.45l-.6-.6,5.74-.07-.67.67-.13-11.06c-.06-3.69,0-7.37-.07-11.06l0-3.46,1.67,3L858,276l-.86-.51,6.16,0-1,1,.12-31.18.87.88-5.74,0,.85-.85L858.12,267l0,2.38L857,267.27c-1.91-3.65-3.83-7.29-5.69-11l-5.64-11,.15.09Z" transform="translate(-769.87 -209.37)"/><polygon class="cls-1" points="69.49 35.88 75.95 35.88 87.65 57.62 87.65 35.88 93.39 35.88 93.39 67.06 87.23 67.06 75.23 44.93 75.23 67.06 69.49 67.06 69.49 35.88"/><path class="cls-2" d="M839.36,245.24l6.46-.16h.09l.06.09L852,255.92c2,3.58,4,7.18,6,10.78l-1.12.28-.26-21.74v-.84h.86l5.74,0h.87v.87l.12,31.18v1h-1l-6.16,0h-.58l-.28-.51-11.91-22.17,1.65-.42c0,3.69,0,7.37-.07,11.06l-.14,11.06v.68h-.66l-5.74-.07h-.61v-.6c0-5.27.14-10.52.27-15.72Zm0,0,.32,15.73c.13,5.19.23,10.33.28,15.45l-.6-.6,5.74-.07-.67.67-.13-11.06c-.06-3.69,0-7.37-.07-11.06l0-3.46,1.67,3L858,276l-.86-.51,6.16,0-1,1,.12-31.18.87.88-5.74,0,.85-.85L858.12,267l0,2.38L857,267.27c-1.91-3.65-3.83-7.29-5.69-11l-5.64-11,.15.09Z" transform="translate(-769.87 -209.37)"/><path class="cls-1" d="M780.15,280.41l.58,8.35,6.61-.5a6.69,6.69,0,0,0,2.92-.74q1.68-1,1.5-3.63c-.13-1.89-.78-3.11-1.94-3.67a5.75,5.75,0,0,0-2.88-.33Zm12.39-5.57a7.19,7.19,0,0,1,2.9,2,9.64,9.64,0,0,1,1.66,2.5,9.24,9.24,0,0,1,.77,3.23,9.77,9.77,0,0,1-.76,4.43,6.06,6.06,0,0,1-3.28,3.3,5.53,5.53,0,0,1,3,2.24,10.66,10.66,0,0,1,1.18,4.79l.14,2.09a17.28,17.28,0,0,0,.36,2.88,2.62,2.62,0,0,0,1.26,1.69l0,.78-6.78.52c-.23-.68-.4-1.22-.51-1.64a16.41,16.41,0,0,1-.45-2.66l-.23-2.88c-.17-2-.58-3.28-1.25-3.9s-1.86-.85-3.57-.72l-6,.46.84,12.2-6,.46-2.13-31.1,14.06-1.08a12.23,12.23,0,0,1,4.7.45" transform="translate(-769.87 -209.37)"/><path class="cls-2" d="M780.15,280.41c.49,3,1,5.71,1.32,8.3l-.8-.68c2.3-.31,4.65-.56,6.92-.77a7.62,7.62,0,0,0,1.51-.3,2.55,2.55,0,0,0,1.06-.62,3.19,3.19,0,0,0,.64-2.51,3.71,3.71,0,0,0-.91-2.56,3.86,3.86,0,0,0-2.74-.73C785,280.56,782.73,280.45,780.15,280.41Zm0,0c2.06-.39,4.45-.87,6.92-1.2a8.65,8.65,0,0,1,1.91,0,3.89,3.89,0,0,1,2,.79,4.34,4.34,0,0,1,1.27,1.76,7.7,7.7,0,0,1,.46,1.94,6.68,6.68,0,0,1-.09,2,4.07,4.07,0,0,1-1,2,4.16,4.16,0,0,1-1.91,1.13,9.39,9.39,0,0,1-1.91.35c-2.36.16-4.66.26-7,.31l-.78,0v-.7C779.92,285.84,780.05,282.93,780.15,280.41Z" transform="translate(-769.87 -209.37)"/><path class="cls-2" d="M792.54,274.84a7.72,7.72,0,0,1,3.83,2.84,9.18,9.18,0,0,1,1.77,4.53,10.21,10.21,0,0,1-.62,4.89,6.54,6.54,0,0,1-3.47,3.65l0-1a6.05,6.05,0,0,1,3.49,2.56,10.6,10.6,0,0,1,1.19,4.07l.36,4a9.85,9.85,0,0,0,.31,1.81,1.75,1.75,0,0,0,.85,1.05l.39.2,0,.46.06.78.07.8-.82.07-6.78.59-.7.06-.21-.65a24,24,0,0,1-.77-2.67,24.59,24.59,0,0,1-.35-2.73c-.18-1.75-.2-3.6-.83-4.83-.37-1-2.15-1-3.85-.83l-5.29.42.91-1.06.82,12.2.06,1-1,.08-6,.44-1,.07,0-1-.92-15.56c-.29-5.18-.57-10.37-.81-15.56l0-.55.52,0,9.42-.48,4.71-.23a12.33,12.33,0,0,1,4.68.62,12.36,12.36,0,0,0-4.65-.28l-4.69.48-9.38,1,.49-.58q.71,7.77,1.33,15.53l1.22,15.54-1-.88,6-.48-.89,1L780.09,294l-.07-1,1-.07,5.3-.39a12,12,0,0,1,2.87,0,4.73,4.73,0,0,1,1.59.53,3.19,3.19,0,0,1,1.25,1.36c.94,2,.79,3.83,1,5.56a16.48,16.48,0,0,0,.94,5l-.91-.6,6.79-.45-.75.87,0-.78.42.66a3.36,3.36,0,0,1-1.57-2,11.06,11.06,0,0,1-.33-2.14l-.24-4a9.73,9.73,0,0,0-.89-3.6,4.91,4.91,0,0,0-2.76-2.16l-1.33-.47,1.28-.53a5.75,5.75,0,0,0,3.12-3,9.45,9.45,0,0,0,.83-4.51,8.67,8.67,0,0,0-1.46-4.39A7.63,7.63,0,0,0,792.54,274.84Z" transform="translate(-769.87 -209.37)"/><path class="cls-1" d="M780.15,280.41l.58,8.35,6.61-.5a6.69,6.69,0,0,0,2.92-.74q1.68-1,1.5-3.63c-.13-1.89-.78-3.11-1.94-3.67a5.75,5.75,0,0,0-2.88-.33Zm12.39-5.57a7.19,7.19,0,0,1,2.9,2,9.64,9.64,0,0,1,1.66,2.5,9.24,9.24,0,0,1,.77,3.23,9.77,9.77,0,0,1-.76,4.43,6.06,6.06,0,0,1-3.28,3.3,5.53,5.53,0,0,1,3,2.24,10.66,10.66,0,0,1,1.18,4.79l.14,2.09a17.28,17.28,0,0,0,.36,2.88,2.62,2.62,0,0,0,1.26,1.69l0,.78-6.78.52c-.23-.68-.4-1.22-.51-1.64a16.41,16.41,0,0,1-.45-2.66l-.23-2.88c-.17-2-.58-3.28-1.25-3.9s-1.86-.85-3.57-.72l-6,.46.84,12.2-6,.46-2.13-31.1,14.06-1.08A12.23,12.23,0,0,1,792.54,274.84Z" transform="translate(-769.87 -209.37)"/><path class="cls-2" d="M780.15,280.41c.49,3,1,5.71,1.32,8.3l-.8-.68c2.3-.31,4.65-.56,6.92-.77a7.62,7.62,0,0,0,1.51-.3,2.55,2.55,0,0,0,1.06-.62,3.19,3.19,0,0,0,.64-2.51,3.71,3.71,0,0,0-.91-2.56,3.86,3.86,0,0,0-2.74-.73C785,280.56,782.73,280.45,780.15,280.41Zm0,0c2.06-.39,4.45-.87,6.92-1.2a8.65,8.65,0,0,1,1.91,0,3.89,3.89,0,0,1,2,.79,4.34,4.34,0,0,1,1.27,1.76,7.7,7.7,0,0,1,.46,1.94,6.68,6.68,0,0,1-.09,2,4.07,4.07,0,0,1-1,2,4.16,4.16,0,0,1-1.91,1.13,9.39,9.39,0,0,1-1.91.35c-2.36.16-4.66.26-7,.31l-.78,0v-.7C779.92,285.84,780.05,282.93,780.15,280.41Z" transform="translate(-769.87 -209.37)"/><path class="cls-2" d="M792.54,274.84a7.7,7.7,0,0,1,3.71,2.93,8.88,8.88,0,0,1,1.64,4.47,9.86,9.86,0,0,1-.67,4.74,6.34,6.34,0,0,1-3.32,3.45v-.35a5.77,5.77,0,0,1,3.3,2.4,10.29,10.29,0,0,1,1.16,3.94l.39,4a9.31,9.31,0,0,0,.35,1.86,2,2,0,0,0,1,1.2l.26.13,0,.32.07.78,0,.54-.57.06-6.77.67-.56.06-.17-.54a21.24,21.24,0,0,1-.81-2.64,24.16,24.16,0,0,1-.38-2.71c-.2-1.75-.22-3.6-.88-4.84-.42-1-2.2-1-3.9-.82l-5.29.43.91-1.06c.3,4.07.54,8.13.8,12.2l.06.95-.94.06-6,.38-.88.06-.05-.86c-.16-2.6-.25-5.19-.38-7.79l-.36-7.78-.72-15.58v-.18h.17l9.41-.59,4.7-.33A12.25,12.25,0,0,1,792.54,274.84Zm0,0a12.24,12.24,0,0,0-4.66-.43l-4.7.38-9.39.86.17-.19L775.38,291l.71,7.77c.23,2.58.49,5.17.69,7.76l-.93-.81,6-.54-.88,1c-.3-4.06-.62-8.12-.88-12.19l-.06-1,1-.07,5.3-.39a11.93,11.93,0,0,1,2.86,0,4.64,4.64,0,0,1,1.58.54,3.12,3.12,0,0,1,1.22,1.34,8.41,8.41,0,0,1,.74,2.87c.09.95.13,1.79.19,2.68a23.16,23.16,0,0,0,.24,2.56,19.78,19.78,0,0,0,.64,2.46l-.73-.48,6.79-.37-.52.6,0-.78.28.45a3.17,3.17,0,0,1-1.43-1.86,10.5,10.5,0,0,1-.29-2.08l-.22-4a9.75,9.75,0,0,0-.91-3.73,5.22,5.22,0,0,0-2.94-2.32l-.47-.17.45-.18A5.92,5.92,0,0,0,797,286.9a9.8,9.8,0,0,0,.78-4.66,8.85,8.85,0,0,0-1.59-4.45A7.71,7.71,0,0,0,792.54,274.84Z" transform="translate(-769.87 -209.37)"/><path class="cls-1" d="M814,299.9c1.45-1.89,2.17-4.6,2.17-8.1s-.72-6.18-2.17-8.09a7,7,0,0,0-5.86-2.86,7.05,7.05,0,0,0-5.89,2.85q-2.21,2.85-2.2,8.1c0,3.5.73,6.21,2.2,8.1a7.05,7.05,0,0,0,5.89,2.85A7,7,0,0,0,814,299.9m3.88,4.73q-3.36,3.63-9.74,3.63t-9.75-3.63q-4.51-4.45-4.51-12.83,0-8.54,4.51-12.82,3.38-3.63,9.75-3.63t9.74,3.63q4.5,4.27,4.5,12.82,0,8.38-4.5,12.83" transform="translate(-769.87 -209.37)"/><path class="cls-2" d="M814,299.9a13,13,0,0,0,1.66-7.24,16.12,16.12,0,0,0-1.46-7.13,7.62,7.62,0,0,0-2.2-2.6,6,6,0,0,0-3.1-1.1,7.49,7.49,0,0,0-3.31.46,6.3,6.3,0,0,0-2.56,2,11.72,11.72,0,0,0-2,6.65,15.81,15.81,0,0,0,1,7.1,7.59,7.59,0,0,0,2.08,2.77,6.48,6.48,0,0,0,3.19,1.38,7.88,7.88,0,0,0,3.61-.25A7,7,0,0,0,814,299.9a7,7,0,0,1-2.88,2.59,8.45,8.45,0,0,1-3.92.71,7.66,7.66,0,0,1-3.88-1.31,8.82,8.82,0,0,1-2.69-3.13,16.51,16.51,0,0,1-1.51-7.86,13.41,13.41,0,0,1,2.33-7.8,8.21,8.21,0,0,1,3.41-2.62A9,9,0,0,1,809,280a7.84,7.84,0,0,1,4,1.58,8.75,8.75,0,0,1,2.55,3.32,16.11,16.11,0,0,1,1,7.84A12.24,12.24,0,0,1,814,299.9Z" transform="translate(-769.87 -209.37)"/><path class="cls-2" d="M817.83,304.63a10.83,10.83,0,0,1-2.32,2.05,12.45,12.45,0,0,1-2.86,1.28,18.71,18.71,0,0,1-6.23.72,14,14,0,0,1-6.16-1.67,10.77,10.77,0,0,1-2.56-2,13.82,13.82,0,0,1-2-2.51,16.72,16.72,0,0,1-2.31-6,27.75,27.75,0,0,1-.42-6.36,21.64,21.64,0,0,1,1.18-6.32,14.38,14.38,0,0,1,3.52-5.51,11.14,11.14,0,0,1,2.62-2.07,13.05,13.05,0,0,1,3.08-1.26,19.07,19.07,0,0,1,6.46-.48A14.22,14.22,0,0,1,816,276.4a11.54,11.54,0,0,1,2.53,2.11,13.92,13.92,0,0,1,2,2.58,16.77,16.77,0,0,1,2.07,6.07,27.61,27.61,0,0,1,.16,6.29,21,21,0,0,1-1.41,6.1,13.5,13.5,0,0,1-3.53,5.08,14.33,14.33,0,0,0,3-5.26,20.58,20.58,0,0,0,.94-6,27.32,27.32,0,0,0-.48-6,15.79,15.79,0,0,0-2.11-5.48,11.91,11.91,0,0,0-1.86-2.23,10.1,10.1,0,0,0-2.22-1.78,12.62,12.62,0,0,0-5.49-1.55c-3.9-.26-8,.47-10.59,3.33-2.86,2.65-4,6.59-4.23,10.54s.2,8.07,2.16,11.45a12.73,12.73,0,0,0,1.76,2.33,10.34,10.34,0,0,0,2.19,1.89,12.87,12.87,0,0,0,5.57,1.82,18.11,18.11,0,0,0,6-.25A11.26,11.26,0,0,0,817.83,304.63Z" transform="translate(-769.87 -209.37)"/><path class="cls-1" d="M814,299.9c1.45-1.89,2.17-4.6,2.17-8.1s-.72-6.18-2.17-8.09a7,7,0,0,0-5.86-2.86,7.05,7.05,0,0,0-5.89,2.85q-2.21,2.85-2.2,8.1c0,3.5.73,6.21,2.2,8.1a7.05,7.05,0,0,0,5.89,2.85A7,7,0,0,0,814,299.9Zm3.88,4.73q-3.36,3.63-9.74,3.63t-9.75-3.63q-4.51-4.45-4.51-12.83,0-8.54,4.51-12.82,3.38-3.63,9.75-3.63t9.74,3.63q4.5,4.27,4.5,12.82Q822.33,300.18,817.83,304.63Z" transform="translate(-769.87 -209.37)"/><path class="cls-2" d="M814,299.9a12,12,0,0,0,2-7.23,15.46,15.46,0,0,0-1.56-7.26,7.63,7.63,0,0,0-2.33-2.64,6.34,6.34,0,0,0-3.21-1,6.53,6.53,0,0,0-5.88,2.57,12.22,12.22,0,0,0-2.1,6.64,15.75,15.75,0,0,0,.85,7.23,7.69,7.69,0,0,0,2.13,2.92,6.56,6.56,0,0,0,3.36,1.46,7.77,7.77,0,0,0,3.73-.38A7,7,0,0,0,814,299.9Zm0,0a7.1,7.1,0,0,1-3,2.37,8.44,8.44,0,0,1-3.79.58,7.45,7.45,0,0,1-3.71-1.23,8.57,8.57,0,0,1-2.65-3,16.35,16.35,0,0,1-1.67-7.73,16.74,16.74,0,0,1,.46-4,10.86,10.86,0,0,1,1.78-3.79,8.21,8.21,0,0,1,3.42-2.61A8.91,8.91,0,0,1,809,280a7.66,7.66,0,0,1,3.87,1.64A8.8,8.8,0,0,1,815.3,285a16.75,16.75,0,0,1,.94,7.71A13.34,13.34,0,0,1,814,299.9Z" transform="translate(-769.87 -209.37)"/><path class="cls-2" d="M817.83,304.63a11,11,0,0,1-5.24,3.12,19,19,0,0,1-6.14.58,13.94,13.94,0,0,1-6-1.61,11,11,0,0,1-2.5-1.94,14,14,0,0,1-2-2.44,17,17,0,0,1-2.36-5.9,26.38,26.38,0,0,1-.52-6.32,20.85,20.85,0,0,1,1.11-6.32,14.18,14.18,0,0,1,3.5-5.52,11.85,11.85,0,0,1,2.62-2.07,13.06,13.06,0,0,1,3.09-1.24,19,19,0,0,1,6.44-.42,13.85,13.85,0,0,1,6.15,2,11.14,11.14,0,0,1,2.45,2.12,13.38,13.38,0,0,1,1.92,2.56,16.35,16.35,0,0,1,2,6,28.69,28.69,0,0,1,.16,6.21C822.14,297.52,820.83,301.73,817.83,304.63Zm0,0a14,14,0,0,0,3.24-5.19,19.93,19.93,0,0,0,1.08-6,26.3,26.3,0,0,0-.5-6.08,15.69,15.69,0,0,0-2.2-5.56,12.49,12.49,0,0,0-1.92-2.26,10.29,10.29,0,0,0-2.31-1.77,12.86,12.86,0,0,0-5.58-1.47c-3.91-.2-8,.55-10.59,3.41-2.85,2.65-4,6.58-4.32,10.53s0,8.13,2,11.6a13,13,0,0,0,1.77,2.41,10,10,0,0,0,2.25,2,12.78,12.78,0,0,0,5.71,1.87,17.89,17.89,0,0,0,6.1-.38A10.86,10.86,0,0,0,817.83,304.63Z" transform="translate(-769.87 -209.37)"/><path class="cls-1" d="M833.73,289c1.44-1.91,2.15-4.61,2.15-8.13s-.71-6.2-2.15-8.11a6.88,6.88,0,0,0-5.81-2.86,7,7,0,0,0-5.84,2.85q-2.18,2.85-2.18,8.12c0,3.52.73,6.22,2.18,8.13a7,7,0,0,0,5.84,2.85,6.89,6.89,0,0,0,5.81-2.85m3.85,4.73q-3.33,3.64-9.66,3.64t-9.66-3.64q-4.49-4.45-4.48-12.86,0-8.56,4.48-12.86,3.35-3.63,9.66-3.64t9.66,3.64q4.47,4.31,4.47,12.86,0,8.4-4.47,12.86" transform="translate(-769.87 -209.37)"/><path class="cls-2" d="M833.73,289a13.25,13.25,0,0,0,1.65-7.25,16.55,16.55,0,0,0-1.43-7.12,7.76,7.76,0,0,0-2.17-2.63,5.83,5.83,0,0,0-3.08-1.12,7.26,7.26,0,0,0-3.29.45,6.18,6.18,0,0,0-2.54,2,11.7,11.7,0,0,0-2,6.64,16,16,0,0,0,1,7.11,6.77,6.77,0,0,0,5.21,4.2,7.84,7.84,0,0,0,3.6-.24,7.16,7.16,0,0,0,3.07-2.08,6.9,6.9,0,0,1-2.86,2.59,8.18,8.18,0,0,1-3.91.7,7.42,7.42,0,0,1-3.87-1.34,8.89,8.89,0,0,1-2.65-3.16A16.8,16.8,0,0,1,819,280a13.5,13.5,0,0,1,2.31-7.78,8.08,8.08,0,0,1,3.4-2.64,8.73,8.73,0,0,1,4.21-.52,7.71,7.71,0,0,1,4,1.62,8.66,8.66,0,0,1,2.5,3.34,16.44,16.44,0,0,1,1,7.83A12.38,12.38,0,0,1,833.73,289Z" transform="translate(-769.87 -209.37)"/><path class="cls-2" d="M837.58,293.76a10.56,10.56,0,0,1-2.31,2.06,12.15,12.15,0,0,1-2.84,1.29,18.64,18.64,0,0,1-6.22.71,13.61,13.61,0,0,1-6.14-1.72,11.11,11.11,0,0,1-2.52-2,14.52,14.52,0,0,1-2-2.53,16.91,16.91,0,0,1-2.25-6,27.53,27.53,0,0,1-.4-6.34,21.3,21.3,0,0,1,1.17-6.31,14.44,14.44,0,0,1,3.48-5.51,11.55,11.55,0,0,1,2.6-2.08,13.23,13.23,0,0,1,3.08-1.26,18.78,18.78,0,0,1,6.45-.48,14,14,0,0,1,6.21,2,12.07,12.07,0,0,1,2.5,2.14,13.51,13.51,0,0,1,1.94,2.61,16.62,16.62,0,0,1,2,6.06,28,28,0,0,1,.15,6.27,21.17,21.17,0,0,1-1.4,6.09,13.43,13.43,0,0,1-3.5,5.08,14.54,14.54,0,0,0,3-5.26,20.83,20.83,0,0,0,.93-6,27.89,27.89,0,0,0-.47-6,15.85,15.85,0,0,0-2.06-5.48,11.81,11.81,0,0,0-1.82-2.25A10.15,10.15,0,0,0,835,267a12.15,12.15,0,0,0-5.45-1.58c-3.89-.28-8,.45-10.54,3.33-2.84,2.65-4,6.59-4.2,10.53s.18,8.05,2.1,11.45a12.64,12.64,0,0,0,1.73,2.34,10.06,10.06,0,0,0,2.16,1.92,12.58,12.58,0,0,0,5.53,1.86,17.8,17.8,0,0,0,6-.25A11,11,0,0,0,837.58,293.76Z" transform="translate(-769.87 -209.37)"/><path class="cls-1" d="M834.71,289c1.51-1.91,2.26-4.61,2.26-8.13s-.75-6.2-2.26-8.11a7.33,7.33,0,0,0-6.09-2.86,7.45,7.45,0,0,0-6.13,2.85q-2.29,2.85-2.29,8.12c0,3.52.76,6.22,2.29,8.13a7.45,7.45,0,0,0,6.13,2.85A7.35,7.35,0,0,0,834.71,289Zm4,4.73q-3.5,3.64-10.13,3.64t-10.14-3.64q-4.69-4.45-4.7-12.86,0-8.56,4.7-12.86,3.51-3.63,10.14-3.64T838.75,268q4.68,4.31,4.68,12.86Q843.43,289.3,838.75,293.76Z" transform="translate(-769.87 -209.37)"/><path class="cls-2" d="M834.71,289a9.69,9.69,0,0,0,1.66-3.49,16.14,16.14,0,0,0,.45-3.85,14.85,14.85,0,0,0-1.7-7.34,7.34,7.34,0,0,0-2.48-2.59,6.79,6.79,0,0,0-3.32-.95,6.93,6.93,0,0,0-6.06,2.61,11.89,11.89,0,0,0-2.18,6.72,14.88,14.88,0,0,0,1,7.32,7.76,7.76,0,0,0,2.28,2.87,7,7,0,0,0,3.48,1.38,8.51,8.51,0,0,0,3.81-.4A7.24,7.24,0,0,0,834.71,289Zm0,0a7.32,7.32,0,0,1-3.06,2.35,9,9,0,0,1-3.85.61,7.86,7.86,0,0,1-3.81-1.13,8.69,8.69,0,0,1-2.82-2.93,15.85,15.85,0,0,1-1.82-7.85,16.72,16.72,0,0,1,.49-4.07,10.53,10.53,0,0,1,1.86-3.84,8.46,8.46,0,0,1,3.5-2.59,9.42,9.42,0,0,1,4.25-.48,8.06,8.06,0,0,1,4,1.54,8.6,8.6,0,0,1,2.58,3.24,15.78,15.78,0,0,1,1.09,7.82A13.07,13.07,0,0,1,834.71,289Z" transform="translate(-769.87 -209.37)"/><path class="cls-2" d="M838.75,293.76a11.47,11.47,0,0,1-5.39,3.11,20,20,0,0,1-6.26.62,15.16,15.16,0,0,1-6.17-1.48,11.09,11.09,0,0,1-2.64-1.87,14.52,14.52,0,0,1-2.16-2.4,16.54,16.54,0,0,1-2.58-5.95,25.89,25.89,0,0,1-.58-6.44,20.53,20.53,0,0,1,1.15-6.45,14.17,14.17,0,0,1,3.66-5.57,12,12,0,0,1,2.7-2.05,14.06,14.06,0,0,1,3.14-1.24,20.17,20.17,0,0,1,6.55-.45,15.22,15.22,0,0,1,6.31,1.87,11.3,11.3,0,0,1,2.59,2.06,13.53,13.53,0,0,1,2,2.52,16.27,16.27,0,0,1,2.2,6,27.5,27.5,0,0,1,.21,6.34,20.87,20.87,0,0,1-1.32,6.15A13.85,13.85,0,0,1,838.75,293.76Zm0,0a14,14,0,0,0,3.39-5.23,19.76,19.76,0,0,0,1.11-6.14c.09-4.14-.59-8.47-3-11.79a13,13,0,0,0-2-2.22,9.85,9.85,0,0,0-2.42-1.71,14.19,14.19,0,0,0-5.76-1.35c-4-.17-8.21.58-10.89,3.45-3,2.64-4.21,6.63-4.49,10.67s.11,8.28,2.28,11.74a13.45,13.45,0,0,0,1.89,2.38,10.16,10.16,0,0,0,2.38,1.9,13.92,13.92,0,0,0,5.89,1.75,18.87,18.87,0,0,0,6.22-.41A11.37,11.37,0,0,0,838.75,293.76Z" transform="translate(-769.87 -209.37)"/><path class="cls-1" d="M854.76,273.88l8.81-1,3.24,31-5.7.67-2.2-21c-.06-.61-.14-1.45-.24-2.54s-.19-1.93-.25-2.51l-2.83,26.65-6,.7-8.24-25.36c.07.59.16,1.42.29,2.51s.22,1.93.28,2.53l2.2,21-5.71.67-3.25-31,8.92-1L852,298.87Z" transform="translate(-769.87 -209.37)"/><path class="cls-2" d="M854.76,273.88l8.79-1.19.16,0,0,.17c1.21,10.32,2.5,20.63,3.64,30.95l.06.55-.55.07-5.7.72-.61.07-.07-.62-1.48-13-.74-6.5-.69-6.5h1.67l-2.75,26.67-.08.73-.73.08-6,.72-.76.09-.24-.73-8.29-25.35,1.93-.4.7,6.5.66,6.5,1.32,13,.1.9-.9.1-5.71.65-.9.1-.09-.9L836,291.75l-1.5-15.5-.07-.73.71-.08,8.92-1,.54-.06.16.5c2.55,7.94,5.14,15.86,7.64,23.82l-.77.08Zm0,0-2.35,25-.17,1.8-.6-1.72c-2.77-7.87-5.43-15.77-8.13-23.66l.69.45-8.9,1.12.64-.81,1.74,15.49,1.67,15.49-1-.8,5.7-.69-.8,1-1.4-13-.7-6.5-.74-6.5,1.92-.41,8.19,25.38-1-.64,6-.68-.81.82,2.91-26.65h1.67l.58,6.51.63,6.51,1.25,13-.68-.54,5.71-.62-.5.62c-1-10.34-1.89-20.69-2.85-31l.19.14Z" transform="translate(-769.87 -209.37)"/><path class="cls-1" d="M855.4,273.52l8.93-1,3.22,31.34-5.78.67-2.18-21.2c-.06-.61-.14-1.47-.24-2.57s-.18-1.94-.24-2.54l-2.93,26.95-6,.69-8.29-25.66c.06.6.16,1.45.28,2.54s.22,2,.28,2.56l2.18,21.2-5.78.67-3.22-31.35,9-1,7.94,24Z" transform="translate(-769.87 -209.37)"/><path class="cls-2" d="M855.4,273.52l8.91-1.19.17,0,0,.16c1.2,10.44,2.47,20.86,3.61,31.3l.06.55-.56.07-5.77.72-.61.07-.07-.62-1.47-13.14-.73-6.57-.69-6.57h1.67l-2.85,27L857,306l-.73.08-6,.71-.76.09-.24-.73-8.34-25.64,1.92-.41.7,6.58.66,6.57,1.31,13.16.09.9-.89.1-5.79.65-.9.1-.09-.9-1.57-15.68-1.49-15.68-.07-.73.72-.07,9-1,.53-.06.16.5c2.57,8,5.18,16.05,7.69,24.1l-.77.08Zm0,0L853,298.82l-.17,1.8-.6-1.72c-2.78-8-5.46-16-8.18-23.94l.7.45-9,1.11.65-.8,1.73,15.66L839.71,307l-1-.8,5.78-.68-.81,1-1.38-13.14-.7-6.58-.73-6.56,1.92-.41L851,305.54l-1-.64,6-.67-.81.81,3-26.94h1.67l.58,6.59.62,6.58,1.24,13.16-.68-.54,5.79-.62-.5.62c-1-10.45-1.88-20.92-2.82-31.38l.18.15Z" transform="translate(-769.87 -209.37)"/></svg>