<svg id="Layer_30" data-name="Layer 30" xmlns="http://www.w3.org/2000/svg" viewBox="0 0 17.33 19"><defs><style>.cls-1{fill:#444;}</style></defs><title>mic-off</title><path class="cls-1" d="M659.11,384.52v-5.6a3,3,0,0,0-6-.35Zm3.08.4a.84.84,0,0,0-.83.71,5.49,5.49,0,0,1-.22.93l1.27,1.27a6.69,6.69,0,0,0,.63-1.94A.86.86,0,0,0,662.19,384.92Zm-14.37-7.44a1,1,0,0,0,0,1.41l5.29,5.3v.43a3.33,3.33,0,0,0,1.63,2.91,2.7,2.7,0,0,0,2,.31l1.66,1.66a5.5,5.5,0,0,1-2.31.52,5.23,5.23,0,0,1-5.25-4.39.84.84,0,0,0-.83-.71.86.86,0,0,0-.85,1,7.07,7.07,0,0,0,5.93,5.75v2.28a1,1,0,0,0,2,0v-2.28a7.13,7.13,0,0,0,2.55-.9l3.49,3.49a1,1,0,1,0,1.41-1.41l-15.33-15.34A1,1,0,0,0,647.82,377.48Z" transform="translate(-647.53 -375.92)"/></svg>