<svg id="prganisation_EN" data-name="prganisation EN" xmlns="http://www.w3.org/2000/svg" viewBox="0 0 102.16 99.36"><defs><style>.cls-1{fill:#000005;}.cls-2{fill:#444;}</style></defs><title>organisation</title><path class="cls-1" d="M571.61,423.16q2.11-2.75,2-7.77c0-3.34-.81-5.92-2.27-7.72a7.59,7.59,0,0,0-11.67.11q-2.15,2.76-2.07,7.78t2.3,7.73a7.13,7.13,0,0,0,5.89,2.66,7,7,0,0,0,5.78-2.79m3.92,4.48q-3.3,3.51-9.62,3.58t-9.73-3.37q-4.54-4.2-4.67-12.22-.1-8.17,4.31-12.33,3.3-3.51,9.63-3.58t9.72,3.37q4.53,4.05,4.65,12.23.1,8-4.29,12.32" transform="translate(-550.58 -395.09)"/><path class="cls-2" d="M571.61,423.16a12.29,12.29,0,0,0,1.55-7,14.72,14.72,0,0,0-1.63-6.84,7.33,7.33,0,0,0-2.26-2.4,6.2,6.2,0,0,0-3.07-.93,7.54,7.54,0,0,0-3.22.49,6.15,6.15,0,0,0-2.49,2,10.93,10.93,0,0,0-1.9,6.42,14.31,14.31,0,0,0,1.18,6.82,6.74,6.74,0,0,0,5.31,3.79,8.23,8.23,0,0,0,3.52-.28,7.15,7.15,0,0,0,3-2,6.77,6.77,0,0,1-2.81,2.51,8.62,8.62,0,0,1-3.79.75,7.65,7.65,0,0,1-3.82-1.11,8.39,8.39,0,0,1-2.78-2.9,15,15,0,0,1-1.71-7.61,12.57,12.57,0,0,1,2.22-7.62,8,8,0,0,1,3.33-2.54,9,9,0,0,1,4.08-.56,7.83,7.83,0,0,1,3.91,1.36,8.3,8.3,0,0,1,2.65,3.1,14.65,14.65,0,0,1,1.24,7.6A11.51,11.51,0,0,1,571.61,423.16Z" transform="translate(-550.58 -395.09)"/><path class="cls-2" d="M575.53,427.64a10.63,10.63,0,0,1-2.28,2,12.6,12.6,0,0,1-2.77,1.26,19.32,19.32,0,0,1-6.05.79,14.44,14.44,0,0,1-6-1.4,10.36,10.36,0,0,1-2.61-1.82,14.73,14.73,0,0,1-2.11-2.34,15.89,15.89,0,0,1-2.51-5.77,25.31,25.31,0,0,1-.56-6.19,20,20,0,0,1,1.08-6.18,13.66,13.66,0,0,1,3.44-5.38,11.23,11.23,0,0,1,2.56-2,13.44,13.44,0,0,1,3-1.23,19.63,19.63,0,0,1,6.27-.56,15,15,0,0,1,6.13,1.65,11,11,0,0,1,2.58,1.93,13.72,13.72,0,0,1,2.06,2.41,15.48,15.48,0,0,1,2.27,5.82,25.26,25.26,0,0,1,.3,6.13,19.58,19.58,0,0,1-1.31,6,12.87,12.87,0,0,1-3.44,4.93,13.66,13.66,0,0,0,2.94-5.11,18.81,18.81,0,0,0,.84-5.82c0-3.9-.68-7.95-2.89-11a12.13,12.13,0,0,0-1.92-2.08,9.43,9.43,0,0,0-2.25-1.6,13.11,13.11,0,0,0-5.42-1.31c-3.8-.17-7.8.56-10.31,3.32-2.8,2.54-3.88,6.38-4,10.21s.38,7.83,2.46,11a12.92,12.92,0,0,0,1.82,2.18,10,10,0,0,0,2.23,1.71,13.36,13.36,0,0,0,5.49,1.57,18.32,18.32,0,0,0,5.86-.32A11.08,11.08,0,0,0,575.53,427.64Z" transform="translate(-550.58 -395.09)"/><path class="cls-1" d="M571.61,423.16q2.11-2.75,2-7.77c0-3.34-.81-5.92-2.27-7.72a7.59,7.59,0,0,0-11.67.11q-2.15,2.76-2.07,7.78t2.3,7.73a7.13,7.13,0,0,0,5.89,2.66A7,7,0,0,0,571.61,423.16Zm3.92,4.48q-3.3,3.51-9.62,3.58t-9.73-3.37q-4.54-4.2-4.67-12.22-.1-8.17,4.31-12.33,3.3-3.51,9.63-3.58t9.72,3.37q4.53,4.05,4.65,12.23Q579.92,423.33,575.53,427.64Z" transform="translate(-550.58 -395.09)"/><path class="cls-2" d="M571.61,423.16a11.29,11.29,0,0,0,1.9-7,14.19,14.19,0,0,0-1.74-7,7,7,0,0,0-2.39-2.42,6.43,6.43,0,0,0-3.18-.87,6.57,6.57,0,0,0-5.71,2.54,11.48,11.48,0,0,0-2,6.42,14.28,14.28,0,0,0,1,7,7.41,7.41,0,0,0,2.2,2.71,6.78,6.78,0,0,0,3.33,1.29,8.16,8.16,0,0,0,3.63-.41A7,7,0,0,0,571.61,423.16Zm0,0a7.08,7.08,0,0,1-2.9,2.29,8.66,8.66,0,0,1-3.67.62,7.61,7.61,0,0,1-3.66-1,8.19,8.19,0,0,1-2.73-2.76,15.09,15.09,0,0,1-1.87-7.47,15.81,15.81,0,0,1,.41-3.91,10.14,10.14,0,0,1,1.73-3.71,8.12,8.12,0,0,1,3.33-2.53,9.05,9.05,0,0,1,4.07-.49,7.77,7.77,0,0,1,3.82,1.44,8.38,8.38,0,0,1,2.51,3.08,15.17,15.17,0,0,1,1.13,7.46A12.42,12.42,0,0,1,571.61,423.16Z" transform="translate(-550.58 -395.09)"/><path class="cls-2" d="M575.53,427.64a10.83,10.83,0,0,1-5.11,3,19.36,19.36,0,0,1-6,.66,14.58,14.58,0,0,1-5.92-1.35,10.55,10.55,0,0,1-2.54-1.75,13.73,13.73,0,0,1-2.1-2.27,16.16,16.16,0,0,1-2.56-5.65,24.42,24.42,0,0,1-.65-6.14,20,20,0,0,1,1-6.19,13.59,13.59,0,0,1,3.43-5.38,11.51,11.51,0,0,1,2.56-2,13.45,13.45,0,0,1,3-1.21,18.94,18.94,0,0,1,6.26-.49,14.39,14.39,0,0,1,6,1.73,10.6,10.6,0,0,1,2.5,1.94,12.81,12.81,0,0,1,2,2.39,15.45,15.45,0,0,1,2.17,5.73,26.7,26.7,0,0,1,.29,6.05C579.73,420.72,578.47,424.84,575.53,427.64Zm0,0a13.22,13.22,0,0,0,3.16-5,18.61,18.61,0,0,0,1-5.87c0-4-.69-8.08-3-11.2a12.27,12.27,0,0,0-2-2.1,9.82,9.82,0,0,0-2.33-1.59,13.71,13.71,0,0,0-5.5-1.22c-3.82-.11-7.81.64-10.32,3.4-2.79,2.54-3.91,6.36-4.13,10.21s.21,7.89,2.32,11.17a13.51,13.51,0,0,0,1.84,2.25,9.87,9.87,0,0,0,2.28,1.78,13.48,13.48,0,0,0,5.63,1.62,18.27,18.27,0,0,0,5.94-.45A10.86,10.86,0,0,0,575.53,427.64Z" transform="translate(-550.58 -395.09)"/><path class="cls-1" d="M581.71,407.73l.11,8,6.64-.07a7.07,7.07,0,0,0,3-.52,3.33,3.33,0,0,0,1.7-3.37c0-1.8-.61-3-1.74-3.62a6.18,6.18,0,0,0-2.86-.49Zm12.68-4.55a7.4,7.4,0,0,1,2.8,2.05,9.62,9.62,0,0,1,1.52,2.49,8.43,8.43,0,0,1,.59,3.13,9,9,0,0,1-1,4.18,5.91,5.91,0,0,1-3.46,2.93,5.53,5.53,0,0,1,2.92,2.32,9.79,9.79,0,0,1,.92,4.65l0,2a14.52,14.52,0,0,0,.21,2.76,2.45,2.45,0,0,0,1.16,1.68v.75l-6.81.08c-.2-.66-.34-1.19-.42-1.6a14.33,14.33,0,0,1-.3-2.56l-.08-2.76c-.05-1.9-.4-3.16-1-3.79s-1.81-.93-3.53-.91l-6,.07.18,11.67-6,.06-.44-29.76,14.12-.15a13,13,0,0,1,4.67.71" transform="translate(-550.58 -395.09)"/><path class="cls-2" d="M581.71,407.73c.31,2.93.66,5.5.84,8l-.73-.72c2.29-.16,4.62-.25,6.89-.32a4.63,4.63,0,0,0,2.66-.68,2.8,2.8,0,0,0,.79-2.35,3.3,3.3,0,0,0-.82-2.49,4.32,4.32,0,0,0-2.72-.83C586.48,408.2,584.26,407.93,581.71,407.73Zm0,0c2-.26,4.44-.58,6.9-.75a9.19,9.19,0,0,1,1.88.06,3.81,3.81,0,0,1,3.2,2.58,6.62,6.62,0,0,1,.39,2,6.26,6.26,0,0,1-.22,2,3.91,3.91,0,0,1-1.22,1.91,4.26,4.26,0,0,1-2,.9,9.71,9.71,0,0,1-1.9.19c-2.34,0-4.62-.05-6.93-.16l-.76,0,0-.69C581.2,412.89,581.47,410.12,581.71,407.73Z" transform="translate(-550.58 -395.09)"/><path class="cls-2" d="M594.39,403.18a7.74,7.74,0,0,1,3.63,2.89,8.43,8.43,0,0,1,1.57,4.45,9.34,9.34,0,0,1-.91,4.7,6.34,6.34,0,0,1-3.66,3.25l0-1a6.14,6.14,0,0,1,3.29,2.57,9.64,9.64,0,0,1,1,4c.08,1.34.07,2.62.14,3.88a8.68,8.68,0,0,0,.22,1.74,1.66,1.66,0,0,0,.78,1l.38.22,0,.46,0,.75,0,.81-.83,0-6.81.14-.69,0-.17-.65a19.3,19.3,0,0,1-.63-2.65,21.2,21.2,0,0,1-.2-2.69c0-.85-.05-1.76-.11-2.54a5.69,5.69,0,0,0-.51-2.11,1.12,1.12,0,0,0-.53-.5,3,3,0,0,0-1-.3,13.29,13.29,0,0,0-2.41-.09l-5.18.07,1-1L583,432.3v1h-1l-6,0h-1v-.94L575,417.52l0-14.89v-.56h.54c3.14,0,6.29.1,9.44.15l4.72.08a12.82,12.82,0,0,1,4.63.88,13.2,13.2,0,0,0-4.63-.54l-4.72.18c-3.14.12-6.29.27-9.43.35l.54-.55.47,14.87.37,14.88-1-.94,6-.08-1,1-.19-11.67,0-1h1l5.19,0a14.82,14.82,0,0,1,2.77.14,5.15,5.15,0,0,1,1.51.5,3.14,3.14,0,0,1,1.31,1.27,7.21,7.21,0,0,1,.73,2.89c.06.95.05,1.77.07,2.65a20,20,0,0,0,.14,2.49,18.62,18.62,0,0,0,.53,2.39l-.86-.63h6.81l-.8.82v-.74l.39.68a3.32,3.32,0,0,1-1.46-2A10.14,10.14,0,0,1,598,428c0-1.31,0-2.62,0-3.86a8.47,8.47,0,0,0-.71-3.47,5,5,0,0,0-2.61-2.17l-1.36-.57,1.37-.45a5.58,5.58,0,0,0,3.27-2.61,8.59,8.59,0,0,0,1.07-4.29,8,8,0,0,0-1.25-4.3A7.72,7.72,0,0,0,594.39,403.18Z" transform="translate(-550.58 -395.09)"/><path class="cls-1" d="M581.71,407.73l.11,8,6.64-.07a7.07,7.07,0,0,0,3-.52,3.33,3.33,0,0,0,1.7-3.37c0-1.8-.61-3-1.74-3.62a6.18,6.18,0,0,0-2.86-.49Zm12.68-4.55a7.4,7.4,0,0,1,2.8,2.05,9.62,9.62,0,0,1,1.52,2.49,8.43,8.43,0,0,1,.59,3.13,9,9,0,0,1-1,4.18,5.91,5.91,0,0,1-3.46,2.93,5.53,5.53,0,0,1,2.92,2.32,9.79,9.79,0,0,1,.92,4.65l0,2a14.52,14.52,0,0,0,.21,2.76,2.45,2.45,0,0,0,1.16,1.68v.75l-6.81.08c-.2-.66-.34-1.19-.42-1.6a14.33,14.33,0,0,1-.3-2.56l-.08-2.76c-.05-1.9-.4-3.16-1-3.79s-1.81-.93-3.53-.91l-6,.07.18,11.67-6,.06-.44-29.76,14.12-.15A13,13,0,0,1,594.39,403.18Z" transform="translate(-550.58 -395.09)"/><path class="cls-2" d="M581.71,407.73c.31,2.93.66,5.5.84,8l-.73-.72c2.29-.16,4.62-.25,6.89-.32a4.63,4.63,0,0,0,2.66-.68,2.8,2.8,0,0,0,.79-2.35,3.3,3.3,0,0,0-.82-2.49,4.32,4.32,0,0,0-2.72-.83C586.48,408.2,584.26,407.93,581.71,407.73Zm0,0c2-.26,4.44-.58,6.9-.75a9.19,9.19,0,0,1,1.88.06,3.81,3.81,0,0,1,3.2,2.58,6.62,6.62,0,0,1,.39,2,6.26,6.26,0,0,1-.22,2,3.91,3.91,0,0,1-1.22,1.91,4.26,4.26,0,0,1-2,.9,9.71,9.71,0,0,1-1.9.19c-2.34,0-4.62-.05-6.93-.16l-.76,0,0-.69C581.2,412.89,581.47,410.12,581.71,407.73Z" transform="translate(-550.58 -395.09)"/><path class="cls-2" d="M594.39,403.18a7.76,7.76,0,0,1,3.51,3,8.37,8.37,0,0,1,1.44,4.38,9.1,9.1,0,0,1-.94,4.55,6.25,6.25,0,0,1-3.5,3.06v-.35A5.76,5.76,0,0,1,598,420.2a9.43,9.43,0,0,1,1,3.85c.09,1.32.09,2.6.17,3.87a8.88,8.88,0,0,0,.25,1.8,2,2,0,0,0,.92,1.19l.25.14v.32l0,.74,0,.55-.57,0-6.81.23-.55,0-.14-.53a20.51,20.51,0,0,1-.67-2.62,20.94,20.94,0,0,1-.23-2.67c-.05-.86-.06-1.76-.13-2.55a5.73,5.73,0,0,0-.54-2.12,1.23,1.23,0,0,0-.56-.52,3.51,3.51,0,0,0-1-.28,13.49,13.49,0,0,0-2.42-.08l-5.18.08,1-1c.08,3.89.1,7.78.14,11.67v1h-.95l-6,0h-.88v-.85c0-2.48,0-5,.05-7.45l.06-7.44.13-14.88v-.2h.19l9.44,0,4.72,0A13,13,0,0,1,594.39,403.18Zm0,0a13,13,0,0,0-4.63-.69l-4.72.08-9.44.25.2-.2.56,14.88.28,7.43c.09,2.48.2,5,.26,7.44l-.87-.85,6-.15-.94,1c-.07-3.89-.17-7.78-.2-11.67v-1h1l5.19,0a12.68,12.68,0,0,1,2.77.15,5.19,5.19,0,0,1,1.5.5,3.08,3.08,0,0,1,1.27,1.26,7.1,7.1,0,0,1,.7,2.88c.05.94,0,1.76.06,2.64a20.37,20.37,0,0,0,.09,2.5A18.75,18.75,0,0,0,594,432l-.7-.51,6.81.08-.55.57v-.75l.26.46a3,3,0,0,1-1.32-1.85,9.09,9.09,0,0,1-.19-2c0-1.31,0-2.6,0-3.87a8.78,8.78,0,0,0-.74-3.62,5.36,5.36,0,0,0-2.78-2.34l-.47-.19.47-.15A5.75,5.75,0,0,0,598.2,415a8.94,8.94,0,0,0,1-4.45,8.19,8.19,0,0,0-1.39-4.36A7.71,7.71,0,0,0,594.39,403.18Z" transform="translate(-550.58 -395.09)"/><path class="cls-1" d="M615.68,405.06a5.82,5.82,0,0,0-3.81-3.93,8.39,8.39,0,0,0-3.43-.36,7.32,7.32,0,0,0-5.58,3.23q-2,2.91-1.52,8.33c.33,3.64,1.4,6.14,3.19,7.5a8.15,8.15,0,0,0,5.83,1.76,7.28,7.28,0,0,0,4.9-2.25,7.75,7.75,0,0,0,2-4.91l-6.8.62L610,410.1,622.24,409l1.49,15.9-4.07.37-1-3.64a14,14,0,0,1-2.91,3.25,11.26,11.26,0,0,1-5.84,2.05,12.5,12.5,0,0,1-10-3.21q-4.26-3.75-4.93-10.86T597.9,401a13.34,13.34,0,0,1,10-5.29,13.58,13.58,0,0,1,9.28,2.05,10.77,10.77,0,0,1,4.56,6.79Z" transform="translate(-550.58 -395.09)"/><path class="cls-2" d="M615.68,405.06a6.37,6.37,0,0,0-1.67-2.58,6.12,6.12,0,0,0-2.72-1.35,8.24,8.24,0,0,0-5.87.86,7.65,7.65,0,0,0-3.36,4.77,17.23,17.23,0,0,0-.15,6,11.47,11.47,0,0,0,2,5.54,5.45,5.45,0,0,0,1,1,8.9,8.9,0,0,0,1.24.78,7.18,7.18,0,0,0,2.73.81,7.39,7.39,0,0,0,5.32-1.56,6.86,6.86,0,0,0,2.26-5l.9.87-6.79.66-.86.08-.08-.86-.49-4.95-.08-.88.89-.08,12.24-1.16.92-.09.09.93,1.55,15.9.1,1-1,.09-4.07.35-.84.08-.2-.8-1-3.65,1.73.3a14.72,14.72,0,0,1-3.46,3.7,11.9,11.9,0,0,1-4.79,1.82,16.25,16.25,0,0,1-5,0,13,13,0,0,1-4.74-1.77,14.69,14.69,0,0,1-6.16-7.75,20.05,20.05,0,0,1-1-4.81,23,23,0,0,1,0-4.91,15.45,15.45,0,0,1,3.94-8.93,14,14,0,0,1,8.69-4.3,15.14,15.14,0,0,1,9.48,1.58,12.06,12.06,0,0,1,3.59,3.23,10.94,10.94,0,0,1,1.89,4.42l0,.18h-.18Zm0,0,6-.71-.14.19a10.65,10.65,0,0,0-2-4.17,11.64,11.64,0,0,0-3.54-2.93,14.56,14.56,0,0,0-9-1.15,12.74,12.74,0,0,0-7.88,4.12,14,14,0,0,0-3.39,8.22,22.26,22.26,0,0,0,1.13,9,13,13,0,0,0,5.48,6.8,12.19,12.19,0,0,0,8.53,1.42,9.89,9.89,0,0,0,4-1.55,13,13,0,0,0,2.95-3.23l1.19-1.7.54,2,1,3.64-1-.73,4.07-.38-.91,1.09-1.42-15.92,1,.85L610.08,411l.8-1,.44,5-.94-.79,6.8-.58,1-.08-.06,1a8.46,8.46,0,0,1-3,6,7.71,7.71,0,0,1-3.06,1.51,9.45,9.45,0,0,1-3.35.24,8.48,8.48,0,0,1-3.2-1,10.79,10.79,0,0,1-1.39-.92,6.65,6.65,0,0,1-1.2-1.23,12.43,12.43,0,0,1-2.06-6.15,17.19,17.19,0,0,1,.39-6.38,8.34,8.34,0,0,1,3.87-5.05,7.8,7.8,0,0,1,3.07-.92,8.91,8.91,0,0,1,3.17.24,6.27,6.27,0,0,1,2.75,1.55A6.39,6.39,0,0,1,615.68,405.06Z" transform="translate(-550.58 -395.09)"/><path class="cls-1" d="M615.41,404.86a5.93,5.93,0,0,0-4-3.81,8.34,8.34,0,0,0-3.44-.25,7.25,7.25,0,0,0-5.45,3.41q-1.9,3-1.17,8.37c.5,3.63,1.67,6.09,3.51,7.4a8.23,8.23,0,0,0,5.91,1.56,7.17,7.17,0,0,0,4.8-2.4,7.72,7.72,0,0,0,1.79-5l-6.77.84-.67-4.93,12.19-1.51,2.15,15.85-4,.5-1.11-3.61a14.12,14.12,0,0,1-2.78,3.35,11.13,11.13,0,0,1-5.75,2.23A12.6,12.6,0,0,1,600.52,424q-4.42-3.62-5.4-10.7t2.35-12a13.17,13.17,0,0,1,9.75-5.61,13.77,13.77,0,0,1,9.36,1.75,11,11,0,0,1,4.85,6.65Z" transform="translate(-550.58 -395.09)"/><path class="cls-2" d="M615.41,404.86a6.25,6.25,0,0,0-1.77-2.51,6.07,6.07,0,0,0-2.76-1.27,8.19,8.19,0,0,0-5.84,1,7.48,7.48,0,0,0-3.17,4.88A17.1,17.1,0,0,0,602,413a11.44,11.44,0,0,0,2.2,5.45,4.92,4.92,0,0,0,1,.95,8.32,8.32,0,0,0,1.26.74,7.39,7.39,0,0,0,2.76.73,7.28,7.28,0,0,0,5.26-1.71,6.81,6.81,0,0,0,2.06-5.05l.93.84-6.77.87-.84.11-.12-.85-.69-4.92-.13-.89.9-.11L622,407.65l.91-.12.13.92,2.22,15.84.15,1-1,.12-4,.49-.83.1-.24-.79-1.1-3.61,1.74.23a14.08,14.08,0,0,1-3.33,3.82,11.64,11.64,0,0,1-4.72,2,16.25,16.25,0,0,1-5,.18,13,13,0,0,1-4.8-1.63,14.85,14.85,0,0,1-6.44-7.51,20,20,0,0,1-1.24-4.77,22.88,22.88,0,0,1-.21-4.9,15.36,15.36,0,0,1,3.57-9.09,13.81,13.81,0,0,1,8.55-4.57,15.06,15.06,0,0,1,9.52,1.3,12.33,12.33,0,0,1,3.7,3.11,10.94,10.94,0,0,1,2.06,4.34l0,.18-.18,0Zm0,0,6-.9-.14.2a10.82,10.82,0,0,0-2.14-4.1,11.86,11.86,0,0,0-3.64-2.81,14.63,14.63,0,0,0-9-.89,12.61,12.61,0,0,0-7.75,4.37,14,14,0,0,0-3,8.35,22.43,22.43,0,0,0,1.52,8.94,13.24,13.24,0,0,0,5.74,6.6,12.29,12.29,0,0,0,8.58,1.18,9.83,9.83,0,0,0,4-1.67,12.41,12.41,0,0,0,2.83-3.34l1.12-1.74.62,2,1.13,3.61-1.06-.68,4-.52-.87,1.13-2.09-15.86,1,.8L610.05,411l.77-1,.65,4.93-1-.74,6.78-.8.94-.11,0,.95a8.36,8.36,0,0,1-2.71,6.13,7.83,7.83,0,0,1-3,1.61,9.9,9.9,0,0,1-3.34.33,8.8,8.8,0,0,1-3.23-.94,9.82,9.82,0,0,1-1.42-.87,6.93,6.93,0,0,1-1.23-1.19A12.57,12.57,0,0,1,601,413.2a17.18,17.18,0,0,1,.12-6.39,8.2,8.2,0,0,1,3.66-5.19,7.8,7.8,0,0,1,3-1,8.72,8.72,0,0,1,3.18.15,6.16,6.16,0,0,1,2.79,1.46A6.44,6.44,0,0,1,615.41,404.86Z" transform="translate(-550.58 -395.09)"/><path class="cls-1" d="M641,417.27l-7.56.09,3.66-11.76ZM629.9,428.64l1.91-6.14,10.88-.12,2,6.1,4.91-.05-.08-5.1-9-24.57-7,.08-10.1,29.87Z" transform="translate(-550.58 -395.09)"/><path class="cls-2" d="M641,417.27c-2.18.26-4.82.67-7.55.84l-1,.05.25-1q.74-3,1.62-5.94c.3-1,.57-2,.9-2.94l.95-2.93,1-3,.85,2.94.92,3.14.79,3.1C640.17,413.57,640.59,415.52,641,417.27Zm0,0-2.61-5.93-1.16-2.73-1-2.7,1.82,0-.88,2.95c-.29,1-.62,2-.93,2.93-.64,2-1.31,3.89-2,5.81l-.72-1C635.72,416.72,638.12,417.07,641,417.27Z" transform="translate(-550.58 -395.09)"/><path class="cls-2" d="M629.9,428.64l1.67-6.21,0-.18h.2c3.62-.16,7.25-.34,10.87-.45h.42l.15.42,2.17,6.05-.7-.5,4.9-.14-.81.83-.14-5.09.05.29q-2.33-6.12-4.6-12.26t-4.5-12.28l.92.63-7,0,.88-.63q-2.6,7.44-5.27,14.86t-5.47,14.8l-.25-.35Zm0,0c-2.08.11-4.24.25-6.45.34h-.36l.11-.36q2.25-7.56,4.63-15.08t4.84-15l.21-.62.66,0,7-.11.69,0,.24.65c1.52,4.09,3,8.18,4.51,12.29s3,8.2,4.42,12.32l.06.15v6.07h-.81l-4.91,0h-.55l-.15-.5-1.91-6.14.57.41c-3.62,0-7.25-.13-10.87-.22l.24-.18C631.35,424.66,630.6,426.68,629.9,428.64Z" transform="translate(-550.58 -395.09)"/><path class="cls-1" d="M633.42,417.36l7.56-.09-3.9-11.67Zm.13-18.52,7-.08,10.88,29.65-6.69.07-2-6.1-10.88.12-1.91,6.14-6.45.07Z" transform="translate(-550.58 -395.09)"/><path class="cls-2" d="M633.42,417.36c2.85-.27,5.25-.68,7.55-.84l-.7,1c-.77-1.9-1.49-3.83-2.16-5.76-.33-1-.69-1.94-1-2.91l-.94-2.93,1.82,0-1,2.72-1.11,2.76Zm0,0c.35-1.77.73-3.72,1.17-5.77l.73-3.12.85-3.15.79-3,1,2.94,1,2.91c.35,1,.64,2,1,2.92q.94,2.92,1.74,5.91l.27,1-1,0C638.25,417.92,635.6,417.57,633.42,417.36Z" transform="translate(-550.58 -395.09)"/><path class="cls-2" d="M633.55,398.84c2.26-.12,4.6-.26,7-.35h.19l.07.19q3,7.31,5.85,14.67t5.65,14.75l.46,1.22-1.33,0-6.69.11H644l-.23-.67-2.06-6.09,1,.68-10.88.09.92-.68-2,6.13-.21.65h-8.34l.4-1.13c1.78-5,3.59-10.05,5.42-15l2.75-7.36Zm0,0L629,414.1c-1.54,5-3.1,10-4.69,14.89l-.82-1.13,6.45-.14-.87.65,1.87-6.15.2-.68h.71l10.88-.14h.72l.23.69,2,6.1-.93-.66,6.69,0-.86,1.25q-2.65-7.44-5.23-14.9t-5-15l.26.18Z" transform="translate(-550.58 -395.09)"/><polygon class="cls-1" points="31.13 42.93 25.62 41.26 19.75 61.13 14.38 37.84 8.18 35.96 5.09 46.43 5.38 65.79 11.25 45.91 16.8 69.63 22.71 71.43 31.13 42.93"/><path class="cls-2" d="M581.71,438l-5.56-1.52.2-.11c-1.83,6.66-3.59,13.34-5.48,20l-.58,2-.51-2.07L567,444.74c-.94-3.87-1.91-7.73-2.82-11.61l.59.62-6.21-1.85,1.1-.6-3.05,10.48,0-.27.18,9.68c.06,3.23.14,6.45.16,9.68l-1.93-.26,6-19.86,1-3.26.75,3.31,2.73,11.87,2.62,11.9-.47-.5,5.89,1.87-.76.41c1.43-4.67,2.9-9.33,4.43-14Zm0,0-3.85,14.21c-1.28,4.78-2.62,9.62-4,14.45l-.16.58-.6-.17-5.93-1.72-.38-.1-.09-.4-2.93-11.82L561,441.21l1.73.05-5.79,19.91-1.78,6.14L555,460.9c-.08-3.23-.09-6.45-.13-9.68l-.1-9.69v-.14l0-.13,3.14-10.45.26-.86.84.26,6.19,1.91.48.15.11.48c.88,3.88,1.69,7.78,2.55,11.67l2.53,11.67-1.09,0c2-6.6,4.17-13.17,6.25-19.75l.05-.17.16.06Z" transform="translate(-550.58 -395.09)"/><polygon class="cls-1" points="42.6 67.37 36.48 67.44 36.04 37.68 42.17 37.61 42.6 67.37"/><path class="cls-2" d="M593.18,462.47l-6.12.41-.32,0,0-.36c-.34-5-.53-9.92-.72-14.88s-.28-9.91-.37-14.87l0-1h1l6.13,0h1v1c0,2.54,0,5.08,0,7.61s-.07,5-.1,7.54-.11,5-.2,7.41Zm0,0-.45-7.67c-.16-2.53-.28-5-.41-7.47s-.25-4.91-.32-7.34-.18-4.85-.22-7.27l1,.95-6.13.1,1-1q.09,7.44.07,14.88c-.05,5-.09,9.92-.29,14.89l-.35-.34Z" transform="translate(-550.58 -395.09)"/><polygon class="cls-1" points="42.6 67.37 36.48 67.44 36.04 37.68 42.17 37.61 42.6 67.37"/><path class="cls-2" d="M593.18,462.47l-6.12.41-.32,0,0-.36c-.34-5-.53-9.92-.72-14.88s-.28-9.91-.37-14.87l0-1h1l6.13,0h1v1c0,2.54,0,5.08,0,7.61s-.07,5-.1,7.54-.11,5-.2,7.41Zm0,0-.45-7.67c-.16-2.53-.28-5-.41-7.47s-.25-4.91-.32-7.34-.18-4.85-.22-7.27l1,.95-6.13.1,1-1q.09,7.44.07,14.88c-.05,5-.09,9.92-.29,14.89l-.35-.34Z" transform="translate(-550.58 -395.09)"/><path class="cls-1" d="M604,453a6,6,0,0,0,1.17,3q1.56,1.83,5.28,1.78a11.2,11.2,0,0,0,3.62-.52,3.43,3.43,0,0,0,2.58-3.48,2.54,2.54,0,0,0-1.32-2.27,13.74,13.74,0,0,0-4.12-1.35l-3.21-.67a19.84,19.84,0,0,1-6.5-2.21q-3-2-3.08-6.41a8.53,8.53,0,0,1,2.82-6.67q2.88-2.69,8.54-2.74a13,13,0,0,1,8.09,2.4,9,9,0,0,1,3.61,7.2l-5.93.07a4.29,4.29,0,0,0-2.44-3.79,8,8,0,0,0-3.69-.71,7,7,0,0,0-3.88,1,3,3,0,0,0-1.42,2.72,2.54,2.54,0,0,0,1.47,2.37,17.93,17.93,0,0,0,3.94,1.19l5.2,1.17a13.29,13.29,0,0,1,5.14,2.11,7.35,7.35,0,0,1,2.73,6,8.53,8.53,0,0,1-3,6.81q-3.09,2.73-8.8,2.79t-9.21-2.56a8.85,8.85,0,0,1-3.45-7.26Z" transform="translate(-550.58 -395.09)"/><path class="cls-2" d="M604,453a7.89,7.89,0,0,0,.73,2.23,3.82,3.82,0,0,0,1.62,1.59,8.56,8.56,0,0,0,4.51.74,7.76,7.76,0,0,0,4.29-1.24,2.7,2.7,0,0,0,1-1.76,2.6,2.6,0,0,0-.34-1.94,3.51,3.51,0,0,0-1.74-1.1,17,17,0,0,0-2.2-.63l-4.63-.92a27.54,27.54,0,0,1-4.66-1.32,7.53,7.53,0,0,1-3.88-3.3,9.94,9.94,0,0,1-1.11-5,9.3,9.3,0,0,1,1.44-4.91,9.74,9.74,0,0,1,3.8-3.43,14.25,14.25,0,0,1,4.84-1.35,19.55,19.55,0,0,1,5,.08,13.64,13.64,0,0,1,4.76,1.69,9.83,9.83,0,0,1,3.68,3.62,11.22,11.22,0,0,1,1.35,4.94l.05,1h-1l-5.93.09-.95,0-.06-.94a3.35,3.35,0,0,0-1.88-3,8.09,8.09,0,0,0-4.11-.57,5.88,5.88,0,0,0-2,.49,2.67,2.67,0,0,0-1.3,1.13,2.35,2.35,0,0,0-.17,1.63,1.77,1.77,0,0,0,1.06,1.11,13.49,13.49,0,0,0,2.09.68c.74.2,1.5.37,2.28.55l4.63,1.07a15.11,15.11,0,0,1,4.66,1.84,7.46,7.46,0,0,1,3.12,4.17,10.79,10.79,0,0,1,.19,5.08,9.13,9.13,0,0,1-2.4,4.47,10.61,10.61,0,0,1-4.23,2.67,18.65,18.65,0,0,1-14.21-1.26,9.4,9.4,0,0,1-3.32-3.54,10,10,0,0,1-1.05-4.7v-.17h.16Zm0,0-5.88.23.16-.17a9.55,9.55,0,0,0,1.19,4.43,8.67,8.67,0,0,0,3.23,3.16,16,16,0,0,0,8.94,1.64c3-.17,6.14-1.1,8.11-3.33a7.74,7.74,0,0,0,1.94-3.83,9.32,9.32,0,0,0-.27-4.3,6.1,6.1,0,0,0-2.5-3.23,13.73,13.73,0,0,0-4.14-1.57l-4.63-1c-.76-.17-1.55-.34-2.34-.54a14.94,14.94,0,0,1-2.41-.78,4,4,0,0,1-1.24-.86,3.31,3.31,0,0,1-.82-1.4,4.4,4.4,0,0,1-.14-1.51,4.17,4.17,0,0,1,.42-1.48,4.52,4.52,0,0,1,2.15-2,7.79,7.79,0,0,1,2.6-.69,9.84,9.84,0,0,1,5.17.72,5.26,5.26,0,0,1,2.16,1.9,5.83,5.83,0,0,1,.84,2.7l-1-.92,5.93,0-1,1A9.32,9.32,0,0,0,619.4,437a7.89,7.89,0,0,0-3-2.95,13.61,13.61,0,0,0-8.57-1.6,12.32,12.32,0,0,0-4.24,1.13,8.12,8.12,0,0,0-3.16,2.8,7.85,7.85,0,0,0-1.28,4,8.39,8.39,0,0,0,.81,4.2c1.27,2.62,4.55,3.4,7.52,4.16l4.62,1a17.8,17.8,0,0,1,2.32.73,4.45,4.45,0,0,1,2.12,1.52,3.46,3.46,0,0,1,.38,2.61,3.52,3.52,0,0,1-1.4,2.17,8.29,8.29,0,0,1-4.71,1.17,8.77,8.77,0,0,1-4.66-1,4.11,4.11,0,0,1-1.61-1.77A8,8,0,0,1,604,453Z" transform="translate(-550.58 -395.09)"/><path class="cls-1" d="M604,453a6,6,0,0,0,1.17,3q1.56,1.83,5.28,1.78a11.2,11.2,0,0,0,3.62-.52,3.43,3.43,0,0,0,2.58-3.48,2.54,2.54,0,0,0-1.32-2.27,13.74,13.74,0,0,0-4.12-1.35l-3.21-.67a19.84,19.84,0,0,1-6.5-2.21q-3-2-3.08-6.41a8.53,8.53,0,0,1,2.82-6.67q2.88-2.69,8.54-2.74a13,13,0,0,1,8.09,2.4,9,9,0,0,1,3.61,7.2l-5.93.07a4.29,4.29,0,0,0-2.44-3.79,8,8,0,0,0-3.69-.71,7,7,0,0,0-3.88,1,3,3,0,0,0-1.42,2.72,2.54,2.54,0,0,0,1.47,2.37,17.93,17.93,0,0,0,3.94,1.19l5.2,1.17a13.29,13.29,0,0,1,5.14,2.11,7.35,7.35,0,0,1,2.73,6,8.53,8.53,0,0,1-3,6.81q-3.09,2.73-8.8,2.79t-9.21-2.56a8.85,8.85,0,0,1-3.45-7.26Z" transform="translate(-550.58 -395.09)"/><path class="cls-2" d="M604,453a7.89,7.89,0,0,0,.73,2.23,3.82,3.82,0,0,0,1.62,1.59,8.56,8.56,0,0,0,4.51.74,7.76,7.76,0,0,0,4.29-1.24,2.7,2.7,0,0,0,1-1.76,2.6,2.6,0,0,0-.34-1.94,3.51,3.51,0,0,0-1.74-1.1,17,17,0,0,0-2.2-.63l-4.63-.92a27.54,27.54,0,0,1-4.66-1.32,7.53,7.53,0,0,1-3.88-3.3,9.94,9.94,0,0,1-1.11-5,9.3,9.3,0,0,1,1.44-4.91,9.74,9.74,0,0,1,3.8-3.43,14.25,14.25,0,0,1,4.84-1.35,19.55,19.55,0,0,1,5,.08,13.64,13.64,0,0,1,4.76,1.69,9.83,9.83,0,0,1,3.68,3.62,11.22,11.22,0,0,1,1.35,4.94l.05,1h-1l-5.93.09-.95,0-.06-.94a3.35,3.35,0,0,0-1.88-3,8.09,8.09,0,0,0-4.11-.57,5.88,5.88,0,0,0-2,.49,2.67,2.67,0,0,0-1.3,1.13,2.35,2.35,0,0,0-.17,1.63,1.77,1.77,0,0,0,1.06,1.11,13.49,13.49,0,0,0,2.09.68c.74.2,1.5.37,2.28.55l4.63,1.07a15.11,15.11,0,0,1,4.66,1.84,7.46,7.46,0,0,1,3.12,4.17,10.79,10.79,0,0,1,.19,5.08,9.13,9.13,0,0,1-2.4,4.47,10.61,10.61,0,0,1-4.23,2.67,18.65,18.65,0,0,1-14.21-1.26,9.4,9.4,0,0,1-3.32-3.54,10,10,0,0,1-1.05-4.7v-.17h.16Zm0,0-5.88.23.16-.17a9.55,9.55,0,0,0,1.19,4.43,8.67,8.67,0,0,0,3.23,3.16,16,16,0,0,0,8.94,1.64c3-.17,6.14-1.1,8.11-3.33a7.74,7.74,0,0,0,1.94-3.83,9.32,9.32,0,0,0-.27-4.3,6.1,6.1,0,0,0-2.5-3.23,13.73,13.73,0,0,0-4.14-1.57l-4.63-1c-.76-.17-1.55-.34-2.34-.54a14.94,14.94,0,0,1-2.41-.78,4,4,0,0,1-1.24-.86,3.31,3.31,0,0,1-.82-1.4,4.4,4.4,0,0,1-.14-1.51,4.17,4.17,0,0,1,.42-1.48,4.52,4.52,0,0,1,2.15-2,7.79,7.79,0,0,1,2.6-.69,9.84,9.84,0,0,1,5.17.72,5.26,5.26,0,0,1,2.16,1.9,5.83,5.83,0,0,1,.84,2.7l-1-.92,5.93,0-1,1A9.32,9.32,0,0,0,619.4,437a7.89,7.89,0,0,0-3-2.95,13.61,13.61,0,0,0-8.57-1.6,12.32,12.32,0,0,0-4.24,1.13,8.12,8.12,0,0,0-3.16,2.8,7.85,7.85,0,0,0-1.28,4,8.39,8.39,0,0,0,.81,4.2c1.27,2.62,4.55,3.4,7.52,4.16l4.62,1a17.8,17.8,0,0,1,2.32.73,4.45,4.45,0,0,1,2.12,1.52,3.46,3.46,0,0,1,.38,2.61,3.52,3.52,0,0,1-1.4,2.17,8.29,8.29,0,0,1-4.71,1.17,8.77,8.77,0,0,1-4.66-1,4.11,4.11,0,0,1-1.61-1.77A8,8,0,0,1,604,453Z" transform="translate(-550.58 -395.09)"/><path class="cls-1" d="M641.4,445.72l-7.15,2.45-.15-12.33Zm-7,14.29-.08-6.44,10.28-3.52,3.82,5.17,1.6-.55-.11-7.79-14.63-18.64-6.6,2.26-.39,31.6Z" transform="translate(-550.58 -395.09)"/><path class="cls-2" d="M641.4,445.72c-2,.93-4.37,2.15-6.91,3.16l-.91.36-.08-1.06c-.16-2.06-.25-4.11-.3-6.16,0-1-.06-2.06-.06-3.09v-6.19l1.72,2.53,1.83,2.7,1.7,2.7C639.49,442.45,640.49,444.17,641.4,445.72Zm0,0-4.31-4.83-1.94-2.24-1.82-2.25,1.72-.57.08,3.08c0,1,0,2,0,3.08,0,2.06,0,4.11-.15,6.17l-1-.7C636.23,446.84,638.62,446.43,641.4,445.72Z" transform="translate(-550.58 -395.09)"/><path class="cls-2" d="M634.39,460l-.35-6.44v-.18l.19-.07c3.39-1.3,6.77-2.6,10.18-3.84l.4-.15.28.36,3.93,5.08-.84-.26,1.59-.58-.53.75L649,446.9l.19.53q-3.72-4.6-7.39-9.26t-7.31-9.32l1.09.32L629,431.39l.64-.88c-.22,10.53-.52,21.06-1.06,31.59l-.36-.25Zm0,0c-1.95.76-4,1.57-6,2.34l-.35.13v-.38c-.28-10.54-.32-21.08-.29-31.61v-.66l.64-.22,6.59-2.29.66-.23.43.55q3.69,4.64,7.31,9.32t7.24,9.38l.19.24v8.65l-.52.17-1.61.52-.54.17-.3-.43-3.7-5.25.68.22c-3.45,1.1-6.93,2.14-10.4,3.19l.18-.25C634.54,455.77,634.45,457.93,634.39,460Z" transform="translate(-550.58 -395.09)"/><polygon class="cls-1" points="22.21 96.93 17.14 72.95 25.79 71.13 24.7 65.97 5.44 70.03 5.51 75.41 11.07 74.23 16.14 98.21 22.21 96.93"/><path class="cls-2" d="M572.79,492l-3-12.08c-1-3.95-1.93-7.84-2.82-11.74l-.16-.73.76-.18c2.86-.67,5.74-1.31,8.61-2l-.69,1.07-1.15-5.15,1.13.74-9.62,2.07-9.63,2,.77-1,0,5.38-1.13-.9,5.57-1.12.87-.17.16.85,1.18,6,1.14,6q1.13,6,2.16,12.07l-.31-.21Zm0,0-6,1.54-.24.06-.07-.26q-1.5-6-2.91-11.91l-1.39-6-1.36-6,1,.67-5.54,1.23-1.1.25,0-1.15-.11-5.37,0-.79.79-.17,9.62-2.06,9.64-2,.95-.2.18.94,1,5.17.18.88-.87.18q-4.32.87-8.67,1.7l.6-.91c.8,4.09,1.53,8.19,2.25,12.23Z" transform="translate(-550.58 -395.09)"/><polygon class="cls-1" points="24.7 65.97 25.79 71.13 17.15 72.95 22.21 96.93 16.14 98.21 11.07 74.23 2.39 76.06 1.3 70.91 24.7 65.97"/><path class="cls-2" d="M575.28,461.06l1.3,5.12,0,.2-.22.05-8.58,2.11.39-.6c.95,4,1.89,7.95,2.79,11.93s1.8,8,2.69,12l.2.9-.92.2-6.06,1.32-.95.21-.2-1c-.85-4-1.73-8-2.55-12s-1.68-8-2.47-12l1.09.71-8.7,1.73-.82.16-.15-.79-1-5.18-.14-.73.7-.13,6-1.13,5.94-1.06Zm0,0L563.5,464l-5.76,1.41L552,466.71l.57-.86,1.18,5.14-1-.64,8.66-1.93.89-.2.21.92c.9,4,1.73,8,2.59,12s1.68,8,2.52,12l-1.15-.75,6.08-1.24-.71,1.1c-.81-4-1.62-8-2.38-12s-1.53-8-2.28-12l-.1-.52.49-.08,8.7-1.54-.16.26Z" transform="translate(-550.58 -395.09)"/><polygon class="cls-1" points="34.85 98 28.83 96.85 34.22 67.61 40.25 68.76 34.85 98"/><path class="cls-2" d="M585.43,493.09l-6.09-.81-.32,0,.05-.36c.63-4.93,1.42-9.82,2.2-14.71s1.66-9.78,2.55-14.65l.18-1,1,.2,6,1.18.94.19-.17.94c-.46,2.49-1,5-1.49,7.45s-1,4.93-1.57,7.37-1.08,4.86-1.64,7.22Zm0,0,1.06-7.6c.33-2.51.7-4.95,1-7.4s.72-4.85,1.12-7.25.78-4.78,1.22-7.16l.77,1.12-6-1.12,1.17-.8c-.91,4.87-1.84,9.74-2.84,14.59s-2,9.71-3.19,14.53l-.28-.4Z" transform="translate(-550.58 -395.09)"/><polygon class="cls-1" points="34.85 98 28.83 96.85 34.22 67.61 40.25 68.76 34.85 98"/><path class="cls-2" d="M585.43,493.09l-6.09-.81-.32,0,.05-.36c.63-4.93,1.42-9.82,2.2-14.71s1.66-9.78,2.55-14.65l.18-1,1,.2,6,1.18.94.19-.17.94c-.46,2.49-1,5-1.49,7.45s-1,4.93-1.57,7.37-1.08,4.86-1.64,7.22Zm0,0,1.06-7.6c.33-2.51.7-4.95,1-7.4s.72-4.85,1.12-7.25.78-4.78,1.22-7.16l.77,1.12-6-1.12,1.17-.8c-.91,4.87-1.84,9.74-2.84,14.59s-2,9.71-3.19,14.53l-.28-.4Z" transform="translate(-550.58 -395.09)"/><path class="cls-1" d="M613.58,484.3q2.11-2.76,2-7.78t-2.26-7.72a7.6,7.6,0,0,0-11.67.12q-2.15,2.74-2.07,7.77c0,3.36.81,5.93,2.3,7.73a7.12,7.12,0,0,0,5.88,2.67,7,7,0,0,0,5.78-2.79m3.92,4.48q-3.29,3.51-9.62,3.58T598.16,489q-4.56-4.22-4.67-12.23-.12-8.17,4.31-12.32,3.29-3.51,9.62-3.58t9.73,3.36q4.51,4.06,4.64,12.23t-4.29,12.33" transform="translate(-550.58 -395.09)"/><path class="cls-2" d="M613.58,484.3a12.24,12.24,0,0,0,1.55-7,14.48,14.48,0,0,0-1.63-6.84,7.17,7.17,0,0,0-2.25-2.39,6.12,6.12,0,0,0-3.08-.94,7.65,7.65,0,0,0-3.21.49,6.09,6.09,0,0,0-2.49,2,10.89,10.89,0,0,0-1.9,6.43,14.22,14.22,0,0,0,1.18,6.82,6.72,6.72,0,0,0,5.31,3.78,8,8,0,0,0,3.51-.28,7,7,0,0,0,3-2,6.73,6.73,0,0,1-2.8,2.5,8.48,8.48,0,0,1-3.79.75,7.71,7.71,0,0,1-3.82-1.1,8.45,8.45,0,0,1-2.79-2.91,15,15,0,0,1-1.7-7.61,12.51,12.51,0,0,1,2.21-7.61,8,8,0,0,1,3.33-2.54,9,9,0,0,1,4.09-.57,8,8,0,0,1,3.91,1.37,8.23,8.23,0,0,1,2.65,3.1,14.73,14.73,0,0,1,1.24,7.6A11.48,11.48,0,0,1,613.58,484.3Z" transform="translate(-550.58 -395.09)"/><path class="cls-2" d="M617.5,488.78a10.49,10.49,0,0,1-2.27,2,12,12,0,0,1-2.78,1.26,19,19,0,0,1-6.05.79,14.49,14.49,0,0,1-6-1.39,10.53,10.53,0,0,1-2.6-1.83,13.87,13.87,0,0,1-2.11-2.34,15.79,15.79,0,0,1-2.52-5.76,25.39,25.39,0,0,1-.55-6.19,19.76,19.76,0,0,1,1.08-6.19,13.49,13.49,0,0,1,3.43-5.37,11.85,11.85,0,0,1,2.57-2,12.78,12.78,0,0,1,3-1.22,19.3,19.3,0,0,1,6.27-.56,14.87,14.87,0,0,1,6.13,1.64,11.44,11.44,0,0,1,2.58,1.93,14,14,0,0,1,2,2.41,15.78,15.78,0,0,1,2.28,5.83,25.75,25.75,0,0,1,.3,6.13,19.59,19.59,0,0,1-1.31,5.95,12.74,12.74,0,0,1-3.45,4.94,13.67,13.67,0,0,0,3-5.12,18.78,18.78,0,0,0,.83-5.81c0-3.91-.67-8-2.88-11a11.71,11.71,0,0,0-1.92-2.07,9.47,9.47,0,0,0-2.25-1.61,13.1,13.1,0,0,0-5.42-1.3c-3.81-.18-7.8.55-10.31,3.31-2.8,2.55-3.89,6.38-4,10.22s.39,7.83,2.47,11a12.92,12.92,0,0,0,1.82,2.18,10.24,10.24,0,0,0,2.22,1.72,13.56,13.56,0,0,0,5.5,1.57,18.26,18.26,0,0,0,5.85-.33A11.06,11.06,0,0,0,617.5,488.78Z" transform="translate(-550.58 -395.09)"/><path class="cls-1" d="M613.5,484.34c1.43-1.82,2.14-4.4,2.12-7.76s-.74-5.91-2.18-7.73a7,7,0,0,0-5.83-2.72,7.09,7.09,0,0,0-5.84,2.74c-1.45,1.82-2.16,4.41-2.15,7.76s.75,5.93,2.21,7.75a7.15,7.15,0,0,0,5.86,2.71A7,7,0,0,0,613.5,484.34Zm3.87,4.52q-3.33,3.48-9.66,3.5T598,488.91q-4.5-4.25-4.53-12.26,0-8.19,4.44-12.29,3.33-3.48,9.66-3.5t9.69,3.44q4.49,4.09,4.51,12.27Q621.82,484.58,617.37,488.86Z" transform="translate(-550.58 -395.09)"/><path class="cls-2" d="M613.5,484.34a11.22,11.22,0,0,0,2-7,14.05,14.05,0,0,0-1.65-7,7.11,7.11,0,0,0-2.37-2.44,6.42,6.42,0,0,0-3.17-.89,6.56,6.56,0,0,0-5.73,2.49,11.4,11.4,0,0,0-2.06,6.4,14.18,14.18,0,0,0,1,7,7.51,7.51,0,0,0,2.17,2.74,6.83,6.83,0,0,0,3.32,1.31,8,8,0,0,0,3.63-.39A6.91,6.91,0,0,0,613.5,484.34Zm0,0a6.88,6.88,0,0,1-2.91,2.26,8.43,8.43,0,0,1-3.69.59,7.45,7.45,0,0,1-3.64-1.06,8.19,8.19,0,0,1-2.71-2.78,15.06,15.06,0,0,1-1.78-7.5,16.21,16.21,0,0,1,.44-3.9,10.4,10.4,0,0,1,1.77-3.69,8.13,8.13,0,0,1,3.36-2.5,9.06,9.06,0,0,1,4.08-.46,7.68,7.68,0,0,1,3.8,1.47,8.25,8.25,0,0,1,2.48,3.1,15.09,15.09,0,0,1,1,7.47A12.46,12.46,0,0,1,613.5,484.34Z" transform="translate(-550.58 -395.09)"/><path class="cls-2" d="M617.37,488.86a10.93,10.93,0,0,1-5.13,3,19.12,19.12,0,0,1-6,.61,14.5,14.5,0,0,1-5.9-1.39,10.66,10.66,0,0,1-2.53-1.77,13.82,13.82,0,0,1-2.08-2.3,15.75,15.75,0,0,1-2.49-5.67,24.53,24.53,0,0,1-.59-6.16,19.69,19.69,0,0,1,1.08-6.17,13.58,13.58,0,0,1,3.47-5.34,11.29,11.29,0,0,1,2.59-2,13.23,13.23,0,0,1,3-1.2,19.22,19.22,0,0,1,6.26-.44,14.6,14.6,0,0,1,6,1.78,10.78,10.78,0,0,1,2.48,2,13.12,13.12,0,0,1,2,2.41,15.54,15.54,0,0,1,2.11,5.76,26.66,26.66,0,0,1,.22,6.05C621.64,482,620.34,486.09,617.37,488.86Zm0,0a13.3,13.3,0,0,0,3.21-5,18.92,18.92,0,0,0,1-5.86c.07-3.95-.61-8.09-2.88-11.23a12.68,12.68,0,0,0-2-2.12,9.65,9.65,0,0,0-2.32-1.61,13.67,13.67,0,0,0-5.49-1.27c-3.82-.14-7.81.58-10.35,3.32-2.81,2.52-4,6.32-4.24,10.17s.12,7.89,2.2,11.19a13,13,0,0,0,1.81,2.26,9.94,9.94,0,0,0,2.27,1.81,13.3,13.3,0,0,0,5.62,1.66,18.28,18.28,0,0,0,5.94-.4A10.88,10.88,0,0,0,617.37,488.86Z" transform="translate(-550.58 -395.09)"/><polygon class="cls-1" points="82.89 97.77 80.23 76.81 94.81 96.28 99.95 95.63 99.82 86.78 97.19 65.97 91.48 66.69 94.09 87.28 79.86 68.14 73.44 68.94 77.19 98.48 82.89 97.77"/><path class="cls-2" d="M633.47,492.86,630.34,472l-.27-1.81,1.13,1.47L646,490.89l-.74-.31,5.14-.7-.74.86-.17-8.85v.1l-2.73-20.8,1.09.84-5.7.74.86-1.12,2.53,20.61.43,3.46-2.07-2.8-7.08-9.6c-2.37-3.19-4.7-6.42-7-9.64l.7.3-6.42.72.58-.75,1.67,14.79,1.57,14.81-.18-.14Zm0,0-5.68.87-.16,0,0-.16-2.18-14.73-2.07-14.74-.1-.66.68-.09,6.41-.89.42-.05.27.35c2.42,3.16,4.84,6.32,7.21,9.51l7.16,9.54-1.64.66-2.7-20.58-.13-1,1-.12,5.71-.69,1-.12.11,1,2.55,20.83v.1l.09,8.84v.77l-.75.09-5.15.59-.47,0-.26-.37-14.33-19.65.86-.35Z" transform="translate(-550.58 -395.09)"/><polygon class="cls-1" points="73.44 68.94 79.86 68.14 94.09 87.28 91.48 66.69 97.19 65.97 100.93 95.51 94.81 96.28 80.23 76.81 82.89 97.77 77.19 98.48 73.44 68.94"/><path class="cls-2" d="M624,464l6.4-1h.09l.07.08,7.31,9.42c2.45,3.14,4.85,6.31,7.27,9.47l-1.08.43-2.86-20.56-.12-.84.86-.11,5.7-.74.86-.11.11.87,3.87,29.52.13,1-1,.12-6.13.75-.56.07-.34-.46-14.5-19.52,1.57-.64c.42,3.5.87,7,1.26,10.49l1.19,10.5.08.67-.66.07-5.71.64-.59.07-.07-.58c-.59-5-1.12-10-1.62-14.94Zm0,0,2.21,14.86c.75,4.9,1.47,9.75,2.13,14.6l-.67-.52,5.7-.78-.58.74-1.46-10.46c-.51-3.48-.94-7-1.4-10.47l-.44-3.28,2,2.65,14.66,19.4-.9-.38,6.12-.79-.87,1.12-3.62-29.55,1,.75-5.71.69.74-.95,2.36,20.63.26,2.29-1.34-1.86c-2.33-3.22-4.67-6.43-7-9.68l-6.92-9.71.16.06Z" transform="translate(-550.58 -395.09)"/></svg>