<svg id="pages" xmlns="http://www.w3.org/2000/svg" viewBox="0 0 103.61 101.85"><defs><style>.cls-1{fill:#f4d35e;}.cls-2{fill:#444;}</style></defs><title>pages</title><path class="cls-1" d="M726.33,456.58a6.39,6.39,0,0,0-1.18-3.18c-1.08-1.35-2.93-2-5.53-2a11.69,11.69,0,0,0-3.81.51,3.62,3.62,0,0,0-2.78,3.65,2.69,2.69,0,0,0,1.36,2.39,15,15,0,0,0,4.31,1.44l3.37.74a21.17,21.17,0,0,1,6.81,2.38q3.11,2.14,3.11,6.72a8.9,8.9,0,0,1-3.11,6.93c-2.08,1.84-5.09,2.77-9,2.77a13.87,13.87,0,0,1-8.47-2.61,9.27,9.27,0,0,1-3.68-7.55H714a4.42,4.42,0,0,0,2.5,4,8.43,8.43,0,0,0,3.86.78,7.34,7.34,0,0,0,4.11-1,3.2,3.2,0,0,0,1.53-2.81,2.68,2.68,0,0,0-1.51-2.49,18.22,18.22,0,0,0-4.16-1.28l-5.45-1.29a13.73,13.73,0,0,1-5.37-2.26,7.6,7.6,0,0,1-2.78-6.33,8.91,8.91,0,0,1,3.3-7.07c2.19-1.87,5.28-2.82,9.29-2.82s7.27.93,9.64,2.78a9.16,9.16,0,0,1,3.52,7.61Z" transform="translate(-631.13 -443.5)"/><path class="cls-2" d="M726.33,456.58a6.44,6.44,0,0,0-.65-2.16,6.11,6.11,0,0,0-.6-.95,4.48,4.48,0,0,0-.82-.75,7.5,7.5,0,0,0-4.25-1.1,12.26,12.26,0,0,0-4.39.66,3.26,3.26,0,0,0-2.17,3.16,2.28,2.28,0,0,0,.71,1.73,6.53,6.53,0,0,0,1.85.93,14.13,14.13,0,0,0,2.11.61c.72.13,1.49.29,2.22.44s1.49.32,2.24.44,1.53.32,2.28.53a21.93,21.93,0,0,1,4.35,1.77h0l0,0a7.72,7.72,0,0,1,3.22,4.77,12.54,12.54,0,0,1,.29,2.85,9.67,9.67,0,0,1-3.78,7.6,11.93,11.93,0,0,1-5.25,2.29,19,19,0,0,1-2.79.33,20.17,20.17,0,0,1-2.8,0,14.59,14.59,0,0,1-5.47-1.57,12.37,12.37,0,0,1-2.43-1.59,10.49,10.49,0,0,1-1.92-2.23,10.17,10.17,0,0,1-1.6-5.62v-.95h1l6.24,0h1v1a3.47,3.47,0,0,0,1.61,2.91,6.28,6.28,0,0,0,1.77.69,7.59,7.59,0,0,0,2,.2h.08a6.5,6.5,0,0,0,2.82-.5l.64-.32a2.07,2.07,0,0,0,.49-.36,2.33,2.33,0,0,0,.61-1,2.26,2.26,0,0,0,.09-.58,2.19,2.19,0,0,0,0-.6,1.68,1.68,0,0,0-.53-.93,1.86,1.86,0,0,0-.45-.3l-.72-.3c-.49-.19-1-.36-1.49-.51l-6.39-1.54a21.56,21.56,0,0,1-3.33-.92A14.48,14.48,0,0,1,709,463l0,0,0,0a8.37,8.37,0,0,1-3-7V456a9.88,9.88,0,0,1,1.24-4.79,10.33,10.33,0,0,1,3.39-3.53,15.92,15.92,0,0,1,9.21-2.1,15.72,15.72,0,0,1,9,2.7,9.48,9.48,0,0,1,3.9,8.22v.17h-.16Zm0,0,6.1-.23-.17.16a9,9,0,0,0-4-7.62,15.37,15.37,0,0,0-8.56-2.22,14.69,14.69,0,0,0-8.46,2.12,8.77,8.77,0,0,0-2.87,3.13,8.38,8.38,0,0,0-.95,4.07v.06a6.87,6.87,0,0,0,2.54,5.63l0,0a13.63,13.63,0,0,0,2.75,1.45,20.83,20.83,0,0,0,3.07.82l6.53,1.51c.56.16,1.11.34,1.65.55.28.1.53.21.82.33a4,4,0,0,1,.93.6,3.6,3.6,0,0,1,1.1,1.91,4.43,4.43,0,0,1,.09,1.05,4.19,4.19,0,0,1-.17,1.05,4.12,4.12,0,0,1-1.1,1.82,4.85,4.85,0,0,1-.84.63c-.28.15-.55.29-.84.42a8.38,8.38,0,0,1-3.66.69h.08a9.76,9.76,0,0,1-2.47-.23,8.35,8.35,0,0,1-2.38-.92,5.43,5.43,0,0,1-2.55-4.57l1,1-6.24,0,1-1a8.38,8.38,0,0,0,1.26,4.57,8.6,8.6,0,0,0,1.56,1.84,10.94,10.94,0,0,0,2,1.35,12.72,12.72,0,0,0,4.78,1.42,21.7,21.7,0,0,0,2.56,0,17.78,17.78,0,0,0,2.54-.28,10.27,10.27,0,0,0,4.52-1.91,8.43,8.43,0,0,0,2.82-3.89,8.08,8.08,0,0,0,.44-2.39A10.3,10.3,0,0,0,731,467a6.3,6.3,0,0,0-2.53-4l0,0a20.21,20.21,0,0,0-4-1.77,19.34,19.34,0,0,0-2.15-.55c-.75-.15-1.48-.34-2.22-.5s-1.47-.35-2.24-.51a15.89,15.89,0,0,1-2.25-.71c-.36-.15-.72-.31-1.07-.49a3.6,3.6,0,0,1-1.07-.72,3.19,3.19,0,0,1-.89-2.41,4,4,0,0,1,2.81-3.77,12.83,12.83,0,0,1,4.6-.5,7.65,7.65,0,0,1,4.39,1.36,4.6,4.6,0,0,1,.82.83,5.88,5.88,0,0,1,.56,1A6.57,6.57,0,0,1,726.33,456.58Z" transform="translate(-631.13 -443.5)"/><path class="cls-1" d="M726.33,456.58a6.39,6.39,0,0,0-1.18-3.18c-1.08-1.35-2.93-2-5.53-2a11.69,11.69,0,0,0-3.81.51,3.62,3.62,0,0,0-2.78,3.65,2.69,2.69,0,0,0,1.36,2.39,15,15,0,0,0,4.31,1.44l3.37.74a21.17,21.17,0,0,1,6.81,2.38q3.11,2.14,3.11,6.72a8.9,8.9,0,0,1-3.11,6.93c-2.08,1.84-5.09,2.77-9,2.77a13.87,13.87,0,0,1-8.47-2.61,9.27,9.27,0,0,1-3.68-7.55H714a4.42,4.42,0,0,0,2.5,4,8.43,8.43,0,0,0,3.86.78,7.34,7.34,0,0,0,4.11-1,3.2,3.2,0,0,0,1.53-2.81,2.68,2.68,0,0,0-1.51-2.49,18.22,18.22,0,0,0-4.16-1.28l-5.45-1.29a13.73,13.73,0,0,1-5.37-2.26,7.6,7.6,0,0,1-2.78-6.33,8.91,8.91,0,0,1,3.3-7.07c2.19-1.87,5.28-2.82,9.29-2.82s7.27.93,9.64,2.78a9.16,9.16,0,0,1,3.52,7.61Z" transform="translate(-631.13 -443.5)"/><path class="cls-2" d="M726.33,456.58a6.44,6.44,0,0,0-.65-2.16,6.11,6.11,0,0,0-.6-.95,4.48,4.48,0,0,0-.82-.75,7.5,7.5,0,0,0-4.25-1.1,12.26,12.26,0,0,0-4.39.66,3.26,3.26,0,0,0-2.17,3.16,2.28,2.28,0,0,0,.71,1.73,6.53,6.53,0,0,0,1.85.93,14.13,14.13,0,0,0,2.11.61c.72.13,1.49.29,2.22.44s1.49.32,2.24.44,1.53.32,2.28.53a21.93,21.93,0,0,1,4.35,1.77h0l0,0a7.72,7.72,0,0,1,3.22,4.77,12.54,12.54,0,0,1,.29,2.85,9.67,9.67,0,0,1-3.78,7.6,11.93,11.93,0,0,1-5.25,2.29,19,19,0,0,1-2.79.33,20.17,20.17,0,0,1-2.8,0,14.59,14.59,0,0,1-5.47-1.57,12.37,12.37,0,0,1-2.43-1.59,10.49,10.49,0,0,1-1.92-2.23,10.17,10.17,0,0,1-1.6-5.62v-.95h1l6.24,0h1v1a3.47,3.47,0,0,0,1.61,2.91,6.28,6.28,0,0,0,1.77.69,7.59,7.59,0,0,0,2,.2h.08a6.5,6.5,0,0,0,2.82-.5l.64-.32a2.07,2.07,0,0,0,.49-.36,2.33,2.33,0,0,0,.61-1,2.26,2.26,0,0,0,.09-.58,2.19,2.19,0,0,0,0-.6,1.68,1.68,0,0,0-.53-.93,1.86,1.86,0,0,0-.45-.3l-.72-.3c-.49-.19-1-.36-1.49-.51l-6.39-1.54a21.56,21.56,0,0,1-3.33-.92A14.48,14.48,0,0,1,709,463l0,0,0,0a8.37,8.37,0,0,1-3-7V456a9.88,9.88,0,0,1,1.24-4.79,10.33,10.33,0,0,1,3.39-3.53,15.92,15.92,0,0,1,9.21-2.1,15.72,15.72,0,0,1,9,2.7,9.48,9.48,0,0,1,3.9,8.22v.17h-.16Zm0,0,6.1-.23-.17.16a9,9,0,0,0-4-7.62,15.37,15.37,0,0,0-8.56-2.22,14.69,14.69,0,0,0-8.46,2.12,8.77,8.77,0,0,0-2.87,3.13,8.38,8.38,0,0,0-.95,4.07v.06a6.87,6.87,0,0,0,2.54,5.63l0,0a13.63,13.63,0,0,0,2.75,1.45,20.83,20.83,0,0,0,3.07.82l6.53,1.51c.56.16,1.11.34,1.65.55.28.1.53.21.82.33a4,4,0,0,1,.93.6,3.6,3.6,0,0,1,1.1,1.91,4.43,4.43,0,0,1,.09,1.05,4.19,4.19,0,0,1-.17,1.05,4.12,4.12,0,0,1-1.1,1.82,4.85,4.85,0,0,1-.84.63c-.28.15-.55.29-.84.42a8.38,8.38,0,0,1-3.66.69h.08a9.76,9.76,0,0,1-2.47-.23,8.35,8.35,0,0,1-2.38-.92,5.43,5.43,0,0,1-2.55-4.57l1,1-6.24,0,1-1a8.38,8.38,0,0,0,1.26,4.57,8.6,8.6,0,0,0,1.56,1.84,10.94,10.94,0,0,0,2,1.35,12.72,12.72,0,0,0,4.78,1.42,21.7,21.7,0,0,0,2.56,0,17.78,17.78,0,0,0,2.54-.28,10.27,10.27,0,0,0,4.52-1.91,8.43,8.43,0,0,0,2.82-3.89,8.08,8.08,0,0,0,.44-2.39A10.3,10.3,0,0,0,731,467a6.3,6.3,0,0,0-2.53-4l0,0a20.21,20.21,0,0,0-4-1.77,19.34,19.34,0,0,0-2.15-.55c-.75-.15-1.48-.34-2.22-.5s-1.47-.35-2.24-.51a15.89,15.89,0,0,1-2.25-.71c-.36-.15-.72-.31-1.07-.49a3.6,3.6,0,0,1-1.07-.72,3.19,3.19,0,0,1-.89-2.41,4,4,0,0,1,2.81-3.77,12.83,12.83,0,0,1,4.6-.5,7.65,7.65,0,0,1,4.39,1.36,4.6,4.6,0,0,1,.82.83,5.88,5.88,0,0,1,.56,1A6.57,6.57,0,0,1,726.33,456.58Z" transform="translate(-631.13 -443.5)"/><polygon class="cls-1" points="77.91 33.62 71.54 34.1 70.58 21.34 59.58 35 51.23 35.63 62.96 21.94 48.23 4.73 56.54 4.1 67.11 16.89 69.98 13.49 69.19 3.14 75.55 2.65 77.91 33.62"/><path class="cls-2" d="M709,477.12l-6.35.66h-.18l0-.18-1.24-12.74.81.26L691.27,479l-.19.23-.31,0-8.35.75-2,.17,1.3-1.53,11.66-13.76V466l-7.4-8.57c-2.47-2.86-5-5.71-7.38-8.6l-1.25-1.48,1.92-.14,8.32-.59.49,0,.31.38,10.51,12.84h-1.34l2.89-3.39-.2.62-.66-10.36-.05-.73.72-.05,6.36-.4.65,0,0,.63c.32,5.23.66,10.47.91,15.65Zm0,0-1.54-15.6c-.54-5.15-1-10.23-1.45-15.32l.68.59-6.35.58.67-.78.91,10.34,0,.34-.23.27L698.9,461l-.67.8-.67-.81L686.94,448.2l.8.34-8.31.67.67-1.62c2.48,2.85,4.91,5.74,7.36,8.62l7.33,8.63.51.61-.51.59L683,479.67l-.68-1.36,8.36-.52-.5.26,11.19-13.5.75-.92.07,1.17.68,12.78-.19-.16Z" transform="translate(-631.13 -443.5)"/><polygon class="cls-1" points="77.91 33.62 71.54 34.1 70.58 21.34 59.58 35 51.23 35.63 62.96 21.94 48.23 4.73 56.54 4.1 67.11 16.89 69.98 13.49 69.19 3.14 75.55 2.65 77.91 33.62"/><path class="cls-2" d="M709,477.12l-6.35.66h-.18l0-.18-1.24-12.74.81.26L691.27,479l-.19.23-.31,0-8.35.75-2,.17,1.3-1.53,11.66-13.76V466l-7.4-8.57c-2.47-2.86-5-5.71-7.38-8.6l-1.25-1.48,1.92-.14,8.32-.59.49,0,.31.38,10.51,12.84h-1.34l2.89-3.39-.2.62-.66-10.36-.05-.73.72-.05,6.36-.4.65,0,0,.63c.32,5.23.66,10.47.91,15.65Zm0,0-1.54-15.6c-.54-5.15-1-10.23-1.45-15.32l.68.59-6.35.58.67-.78.91,10.34,0,.34-.23.27L698.9,461l-.67.8-.67-.81L686.94,448.2l.8.34-8.31.67.67-1.62c2.48,2.85,4.91,5.74,7.36,8.62l7.33,8.63.51.61-.51.59L683,479.67l-.68-1.36,8.36-.52-.5.26,11.19-13.5.75-.92.07,1.17.68,12.78-.19-.16Z" transform="translate(-631.13 -443.5)"/><rect class="cls-1" x="661.84" y="460.09" width="31.05" height="6.44" transform="translate(-443.08 678.63) rotate(-87.77)"/><path class="cls-2" d="M673.54,478.69l0-7.54c0-2.53,0-5.13,0-7.73s0-5.22.1-7.86.09-5.28.19-7.93l0-1,1,0,6.44.22,1,0,0,1c-.22,5.17-.45,10.34-.75,15.51s-.64,10.33-1.11,15.49l0,.36-.33,0Zm0,0,6.45-.1-.36.34c-.07-5.18,0-10.36.1-15.53s.27-10.35.46-15.52l1,1-6.44-.28,1-.93c-.1,2.52-.27,5.05-.41,7.59s-.34,5.08-.51,7.64-.38,5.15-.61,7.78Z" transform="translate(-631.13 -443.5)"/><rect class="cls-1" x="661.84" y="460.09" width="31.05" height="6.44" transform="translate(-443.08 678.63) rotate(-87.77)"/><path class="cls-2" d="M673.54,478.69l0-7.54c0-2.53,0-5.13,0-7.73s0-5.22.1-7.86.09-5.28.19-7.93l0-1,1,0,6.44.22,1,0,0,1c-.22,5.17-.45,10.34-.75,15.51s-.64,10.33-1.11,15.49l0,.36-.33,0Zm0,0,6.45-.1-.36.34c-.07-5.18,0-10.36.1-15.53s.27-10.35.46-15.52l1,1-6.44-.28,1-.93c-.1,2.52-.27,5.05-.41,7.59s-.34,5.08-.51,7.64-.38,5.15-.61,7.78Z" transform="translate(-631.13 -443.5)"/><polygon class="cls-1" points="40.61 34.43 34.3 35.99 28.21 11.26 13.16 14.97 11.82 9.55 33.17 4.29 40.61 34.43"/><path class="cls-2" d="M671.74,477.93l-6.25,1.81-.24.07-.07-.26c-1.16-4.09-2.31-8.17-3.41-12.27L658.51,455l1,.63c-5,1.3-10,2.59-15,3.83l-.94.23-.24-.95L642,453.29l-.25-1,1-.24,10.68-2.59L664.1,447l.84-.2.19.82c1.19,5.14,2.34,10.28,3.43,15.36Zm0,0-4.26-15.15c-1.39-5-2.72-9.88-4-14.79l1,.63-10.65,2.73L643.19,454l.73-1.21,1.32,5.42-1.19-.71c5-1.24,10.05-2.42,15.09-3.6l.85-.2.19.83L663,467c.92,4.14,1.8,8.3,2.67,12.46l-.31-.19Z" transform="translate(-631.13 -443.5)"/><polygon class="cls-1" points="40.61 34.43 34.3 35.99 28.21 11.26 13.16 14.97 11.82 9.55 33.17 4.29 40.61 34.43"/><path class="cls-2" d="M671.74,477.93l-6.25,1.81-.24.07-.07-.26c-1.16-4.09-2.31-8.17-3.41-12.27L658.51,455l1,.63c-5,1.3-10,2.59-15,3.83l-.94.23-.24-.95L642,453.29l-.25-1,1-.24,10.68-2.59L664.1,447l.84-.2.19.82c1.19,5.14,2.34,10.28,3.43,15.36Zm0,0-4.26-15.15c-1.39-5-2.72-9.88-4-14.79l1,.63-10.65,2.73L643.19,454l.73-1.21,1.32,5.42-1.19-.71c5-1.24,10.05-2.42,15.09-3.6l.85-.2.19.83L663,467c.92,4.14,1.8,8.3,2.67,12.46l-.31-.19Z" transform="translate(-631.13 -443.5)"/><polygon class="cls-1" points="16.14 36.77 9.85 35.16 16.2 10.49 1.19 6.63 2.57 1.22 23.87 6.7 16.14 36.77"/><path class="cls-2" d="M647.27,480.27l-6.35-1.36-.24-.06.05-.26c.92-4.15,1.84-8.29,2.81-12.43l3-12.39.62,1.05q-7.53-1.83-15-3.74l-.94-.24.24-.95,1.36-5.42.25-1,1,.25,10.64,2.78,10.62,2.84.84.22-.22.82c-1.39,5.09-2.81,10.16-4.26,15.15Zm0,0,3.43-15.37c1.13-5,2.29-10,3.47-14.92l.62,1-10.68-2.63-10.66-2.7,1.22-.72-1.4,5.41-.71-1.19c5,1.28,10,2.62,15,4l.84.22-.22.82-3.4,12.28c-1.14,4.09-2.33,8.17-3.54,12.24l-.18-.31Z" transform="translate(-631.13 -443.5)"/><polygon class="cls-1" points="16.14 36.77 9.85 35.16 16.2 10.49 1.19 6.63 2.57 1.22 23.87 6.7 16.14 36.77"/><path class="cls-2" d="M647.27,480.27l-6.35-1.36-.24-.06.05-.26c.92-4.15,1.84-8.29,2.81-12.43l3-12.39.62,1.05q-7.53-1.83-15-3.74l-.94-.24.24-.95,1.36-5.42.25-1,1,.25,10.64,2.78,10.62,2.84.84.22-.22.82c-1.39,5.09-2.81,10.16-4.26,15.15Zm0,0,3.43-15.37c1.13-5,2.29-10,3.47-14.92l.62,1-10.68-2.63-10.66-2.7,1.22-.72-1.4,5.41-.71-1.19c5,1.28,10,2.62,15,4l.84.22-.22.82-3.4,12.28c-1.14,4.09-2.33,8.17-3.54,12.24l-.18-.31Z" transform="translate(-631.13 -443.5)"/><polygon class="cls-1" points="14.89 63.09 20.82 65.73 10.43 88.99 24.58 95.32 22.3 100.41 2.23 91.43 14.89 63.09"/><path class="cls-2" d="M646,506.59l6,2.41.23.09-.1.25q-2.38,5.91-4.85,11.78l-5,11.72-.43-1.14c4.74,2.06,9.48,4.12,14.2,6.22l.89.4-.4.9-2.26,5.1-.4.91-.92-.41-10-4.52-10-4.59-.79-.36.36-.77c2.22-4.78,4.47-9.54,6.73-14.22Zm0,0-5.95,14.57c-2,4.77-3.93,9.45-5.93,14.12l-.43-1.13,10.08,4.39L653.84,543l-1.32.5,2.29-5.08.5,1.29c-4.72-2.11-9.41-4.27-14.11-6.43l-.79-.37.36-.77,5.4-11.54c1.81-3.84,3.67-7.66,5.54-11.47l.13.34Z" transform="translate(-631.13 -443.5)"/><polygon class="cls-1" points="14.89 63.09 20.82 65.73 10.43 88.99 24.58 95.32 22.3 100.41 2.23 91.43 14.89 63.09"/><path class="cls-2" d="M646,506.59l6,2.41.23.09-.1.25q-2.38,5.91-4.85,11.78l-5,11.72-.43-1.14c4.74,2.06,9.48,4.12,14.2,6.22l.89.4-.4.9-2.26,5.1-.4.91-.92-.41-10-4.52-10-4.59-.79-.36.36-.77c2.22-4.78,4.47-9.54,6.73-14.22Zm0,0-5.95,14.57c-2,4.77-3.93,9.45-5.93,14.12l-.43-1.13,10.08,4.39L653.84,543l-1.32.5,2.29-5.08.5,1.29c-4.72-2.11-9.41-4.27-14.11-6.43l-.79-.37.36-.77,5.4-11.54c1.81-3.84,3.67-7.66,5.54-11.47l.13.34Z" transform="translate(-631.13 -443.5)"/><path class="cls-1" d="M663,527.92h8l-3.92-12.22Zm.43-19.32h7.34l11,31.1h-7l-2.08-6.38H661.25l-2.08,6.38h-6.8Z" transform="translate(-631.13 -443.5)"/><path class="cls-2" d="M663,527.92c3-.24,5.52-.62,8-.75l-.72,1c-.38-1-.76-2-1.11-3s-.72-2-1-3-.69-2-1-3l-1-3.07H668l-1.07,2.83-1.19,2.88Zm0,0c.41-1.85.86-3.89,1.36-6l.82-3.24.95-3.27.84-2.92,1,2.93,1,3c.34,1,.64,2,1,3.06s.61,2,.9,3.08.58,2.06.85,3.1l.26,1-1,0C668.11,528.54,665.34,528.15,663,527.92Z" transform="translate(-631.13 -443.5)"/><path class="cls-2" d="M663.46,508.6c2.38-.09,4.84-.2,7.34-.27H671l.07.19q3,7.68,5.9,15.4t5.7,15.48l.45,1.23h-1.32l-7,0h-.7l-.22-.67-2.1-6.37.94.68-11.42,0,.92-.67L660.05,540l-.22.64h-.66l-6.8-.06-1.23,0,.43-1.13c1.94-5.23,3.91-10.45,5.91-15.59l3-7.66Zm0,0-5.11,15.88c-1.7,5.22-3.43,10.37-5.17,15.51l-.81-1.15,6.8-.06-.88.63,2-6.39.22-.67h.71l11.42,0h.73l.22.68,2.06,6.39-.93-.67,7,0-.88,1.24q-2.68-7.8-5.28-15.62t-5.08-15.7l.25.19Z" transform="translate(-631.13 -443.5)"/><path class="cls-1" d="M663,527.92h8l-3.92-12.22Zm.43-19.32h7.34l11,31.1h-7l-2.08-6.38H661.25l-2.08,6.38h-6.8Z" transform="translate(-631.13 -443.5)"/><path class="cls-2" d="M663,527.92c3-.24,5.52-.62,8-.75l-.72,1c-.38-1-.76-2-1.11-3s-.72-2-1-3-.69-2-1-3l-1-3.07H668l-1.07,2.83-1.19,2.88Zm0,0c.41-1.85.86-3.89,1.36-6l.82-3.24.95-3.27.84-2.92,1,2.93,1,3c.34,1,.64,2,1,3.06s.61,2,.9,3.08.58,2.06.85,3.1l.26,1-1,0C668.11,528.54,665.34,528.15,663,527.92Z" transform="translate(-631.13 -443.5)"/><path class="cls-2" d="M663.46,508.6c2.38-.09,4.84-.2,7.34-.27H671l.07.19q3,7.68,5.9,15.4t5.7,15.48l.45,1.23h-1.32l-7,0h-.7l-.22-.67-2.1-6.37.94.68-11.42,0,.92-.67L660.05,540l-.22.64h-.66l-6.8-.06-1.23,0,.43-1.13c1.94-5.23,3.91-10.45,5.91-15.59l3-7.66Zm0,0-5.11,15.88c-1.7,5.22-3.43,10.37-5.17,15.51l-.81-1.15,6.8-.06-.88.63,2-6.39.22-.67h.71l11.42,0h.73l.22.68,2.06,6.39-.93-.67,7,0-.88,1.24q-2.68-7.8-5.28-15.62t-5.08-15.7l.25.19Z" transform="translate(-631.13 -443.5)"/><path class="cls-1" d="M689.61,525.61l1.57,8.13,7.4-1.43a7.31,7.31,0,0,0,3-1.13,3.93,3.93,0,0,0,1.27-4.16,3.33,3.33,0,0,0-2.58-2.88,7.63,7.63,0,0,0-3.12.07Zm-2.26-11.77,1.29,6.72,7.41-1.42a6.22,6.22,0,0,0,3.12-1.38,2.94,2.94,0,0,0,.72-2.92,2.8,2.8,0,0,0-2.17-2.5,11.78,11.78,0,0,0-3.7.22Zm16.15-5.2a7.92,7.92,0,0,1,2.3,4.39,6.94,6.94,0,0,1-.55,4.76,7.39,7.39,0,0,1-2,2.18,7,7,0,0,1,4,2,8.23,8.23,0,0,1,2.07,4.24,9.07,9.07,0,0,1-.42,5.13,8.64,8.64,0,0,1-4.81,5,21.62,21.62,0,0,1-4.23,1.25l-13.8,2.61-5.88-30.49L695,506.88q5.6-1,8.53,1.72" transform="translate(-631.13 -443.5)"/><path class="cls-2" d="M689.61,525.61c.83,2.92,1.63,5.48,2.27,8l-.83-.56q2.61-.66,5.25-1.23c.86-.19,1.81-.4,2.59-.54a6.7,6.7,0,0,0,2.14-.93l-.09.07a3.1,3.1,0,0,0,1-1.4,3,3,0,0,0,0-1.71l0-.11v-.06a2.47,2.47,0,0,0-1.54-2.08,4.88,4.88,0,0,0-1.54-.27,8.3,8.3,0,0,0-1.71.12C694.77,525.17,692.34,525.34,689.61,525.61Zm0,0c2.17-.64,4.62-1.38,7.19-2a9.1,9.1,0,0,1,2-.34,8.85,8.85,0,0,1,1,0,4,4,0,0,1,1.11.2,4.25,4.25,0,0,1,2.86,3.47l0-.17a4.88,4.88,0,0,1-1.56,5.2l-.05,0,0,0a8.57,8.57,0,0,1-2.8,1.14c-1,.18-1.78.33-2.69.47q-2.64.43-5.31.8l-.74.11-.09-.67C690.07,531,689.83,528.11,689.61,525.61Z" transform="translate(-631.13 -443.5)"/><path class="cls-2" d="M687.35,513.84c.71,2.43,1.4,4.54,1.95,6.59l-.78-.53c1.78-.45,3.57-.89,5.37-1.28l1.34-.3c.46-.1.92-.17,1.27-.26a5.36,5.36,0,0,0,2-1.07l-.07.06a2,2,0,0,0,.51-1.93l0-.12v-.09a1.93,1.93,0,0,0-1.4-1.73l.1,0a12.47,12.47,0,0,0-2.45-.1c-.82.07-1.65.2-2.47.27C691.05,513.53,689.28,513.65,687.35,513.84Zm0,0c1.5-.48,3.18-1,5-1.51.9-.23,1.78-.52,2.69-.68a11.41,11.41,0,0,1,2.8-.17h.1a3.69,3.69,0,0,1,3,3.26l0-.21a3.94,3.94,0,0,1-.93,3.91l0,0,0,0a7.23,7.23,0,0,1-2.82,1.42c-.55.13-1,.18-1.44.27l-1.35.22c-1.8.3-3.61.55-5.43.79l-.7.09-.09-.62C687.67,518.26,687.5,515.89,687.35,513.84Z" transform="translate(-631.13 -443.5)"/><path class="cls-2" d="M703.5,508.64A7.81,7.81,0,0,1,706,513h0a7.27,7.27,0,0,1-.06,4,6.09,6.09,0,0,1-.38,1,7.82,7.82,0,0,1-.57.88,7.58,7.58,0,0,1-1.45,1.49l-.22-.84a7.3,7.3,0,0,1,4.72,2.41,9.22,9.22,0,0,1,2.16,4.87,10,10,0,0,1-.69,5.31,9.26,9.26,0,0,1-3.44,4.21c-3.18,2-6.66,2.28-9.9,3l-9.87,1.9-1,.19-.19-1-2.88-15.26c-.93-5.09-1.86-10.18-2.74-15.28l-.12-.73.7-.12,5.93-1,5.93-1,3-.47a15.57,15.57,0,0,1,3.05-.16,9.5,9.5,0,0,1,3,.58,7.27,7.27,0,0,1,2.53,1.64,8.1,8.1,0,0,0-5.53-1.74,28.6,28.6,0,0,0-5.85,1l-5.87,1.29-5.87,1.27.57-.85c1.09,5.06,2.12,10.13,3.15,15.2l3,15.23-1.17-.79,9.89-1.83c1.62-.32,3.34-.58,4.9-.91a14.82,14.82,0,0,0,4.4-1.63,7.82,7.82,0,0,0,2.93-3.38,8.46,8.46,0,0,0,.74-4.51,8,8,0,0,0-1.66-4.28,6.4,6.4,0,0,0-3.93-2.26l-1.16-.2,1-.64a6.67,6.67,0,0,0,1.37-1.23,6.07,6.07,0,0,0,.55-.73,5.85,5.85,0,0,0,.39-.84,6.6,6.6,0,0,0,.3-3.71v0h0A8,8,0,0,0,703.5,508.64Z" transform="translate(-631.13 -443.5)"/><path class="cls-1" d="M689.61,525.61l1.57,8.13,7.4-1.43a7.31,7.31,0,0,0,3-1.13,3.93,3.93,0,0,0,1.27-4.16,3.33,3.33,0,0,0-2.58-2.88,7.63,7.63,0,0,0-3.12.07Zm-2.26-11.77,1.29,6.72,7.41-1.42a6.22,6.22,0,0,0,3.12-1.38,2.94,2.94,0,0,0,.72-2.92,2.8,2.8,0,0,0-2.17-2.5,11.78,11.78,0,0,0-3.7.22Zm16.15-5.2a7.92,7.92,0,0,1,2.3,4.39,6.94,6.94,0,0,1-.55,4.76,7.39,7.39,0,0,1-2,2.18,7,7,0,0,1,4,2,8.23,8.23,0,0,1,2.07,4.24,9.07,9.07,0,0,1-.42,5.13,8.64,8.64,0,0,1-4.81,5,21.62,21.62,0,0,1-4.23,1.25l-13.8,2.61-5.88-30.49L695,506.88q5.6-1,8.53,1.72Z" transform="translate(-631.13 -443.5)"/><path class="cls-2" d="M689.61,525.61c.83,2.92,1.63,5.48,2.27,8l-.83-.56q2.61-.66,5.25-1.23c.86-.19,1.81-.4,2.59-.54a6.7,6.7,0,0,0,2.14-.93l-.09.07a3.1,3.1,0,0,0,1-1.4,3,3,0,0,0,0-1.71l0-.11v-.06a2.47,2.47,0,0,0-1.54-2.08,4.88,4.88,0,0,0-1.54-.27,8.3,8.3,0,0,0-1.71.12C694.77,525.17,692.34,525.34,689.61,525.61Zm0,0c2.17-.64,4.62-1.38,7.19-2a9.1,9.1,0,0,1,2-.34,8.85,8.85,0,0,1,1,0,4,4,0,0,1,1.11.2,4.25,4.25,0,0,1,2.86,3.47l0-.17a4.88,4.88,0,0,1-1.56,5.2l-.05,0,0,0a8.57,8.57,0,0,1-2.8,1.14c-1,.18-1.78.33-2.69.47q-2.64.43-5.31.8l-.74.11-.09-.67C690.07,531,689.83,528.11,689.61,525.61Z" transform="translate(-631.13 -443.5)"/><path class="cls-2" d="M687.35,513.84c.71,2.43,1.4,4.54,1.95,6.59l-.78-.53c1.78-.45,3.57-.89,5.37-1.28l1.34-.3c.46-.1.92-.17,1.27-.26a5.36,5.36,0,0,0,2-1.07l-.07.06a2,2,0,0,0,.51-1.93l0-.12v-.09a1.93,1.93,0,0,0-1.4-1.73l.1,0a12.47,12.47,0,0,0-2.45-.1c-.82.07-1.65.2-2.47.27C691.05,513.53,689.28,513.65,687.35,513.84Zm0,0c1.5-.48,3.18-1,5-1.51.9-.23,1.78-.52,2.69-.68a11.41,11.41,0,0,1,2.8-.17h.1a3.69,3.69,0,0,1,3,3.26l0-.21a3.94,3.94,0,0,1-.93,3.91l0,0,0,0a7.23,7.23,0,0,1-2.82,1.42c-.55.13-1,.18-1.44.27l-1.35.22c-1.8.3-3.61.55-5.43.79l-.7.09-.09-.62C687.67,518.26,687.5,515.89,687.35,513.84Z" transform="translate(-631.13 -443.5)"/><path class="cls-2" d="M703.5,508.64A7.81,7.81,0,0,1,706,513h0a7.27,7.27,0,0,1-.06,4,6.09,6.09,0,0,1-.38,1,7.82,7.82,0,0,1-.57.88,7.58,7.58,0,0,1-1.45,1.49l-.22-.84a7.3,7.3,0,0,1,4.72,2.41,9.13,9.13,0,0,1,2.15,4.87,9.94,9.94,0,0,1-.68,5.31,9.26,9.26,0,0,1-3.44,4.21c-3.18,2-6.66,2.28-9.9,3l-9.87,1.9-1,.19-.19-1-2.88-15.26c-.93-5.09-1.86-10.18-2.74-15.28l-.12-.73.7-.12,5.93-1,5.93-1,3-.47a16.38,16.38,0,0,1,3.05-.17,9.93,9.93,0,0,1,3,.59,7.23,7.23,0,0,1,2.52,1.64h0Zm0,0v0h0a8.1,8.1,0,0,0-5.53-1.74,28.6,28.6,0,0,0-5.85,1l-5.87,1.3-5.87,1.26.57-.85c1.09,5.06,2.12,10.13,3.15,15.2l3,15.23-1.17-.79,9.89-1.83c1.62-.32,3.34-.58,4.9-.91a14.82,14.82,0,0,0,4.4-1.63,7.82,7.82,0,0,0,2.93-3.38,8.46,8.46,0,0,0,.74-4.51,8,8,0,0,0-1.66-4.28,6.4,6.4,0,0,0-3.93-2.26l-1.16-.2,1-.64a6.39,6.39,0,0,0,1.37-1.23,6.07,6.07,0,0,0,.55-.73,5.85,5.85,0,0,0,.39-.84,6.6,6.6,0,0,0,.3-3.71v0h0A8,8,0,0,0,703.5,508.64Z" transform="translate(-631.13 -443.5)"/><path class="cls-1" d="M710.83,530.81a6.18,6.18,0,0,0-.19,3.38q.71,2.41,4.29,4a11.62,11.62,0,0,0,3.69,1,3.62,3.62,0,0,0,4-2.19,2.67,2.67,0,0,0-.29-2.72,14.7,14.7,0,0,0-3.37-3.07l-2.78-2a20.65,20.65,0,0,1-5.29-4.92c-1.34-2.14-1.41-4.61-.19-7.41a8.93,8.93,0,0,1,5.59-5.12q3.91-1.31,9.35,1a13.87,13.87,0,0,1,6.73,5.78,9.3,9.3,0,0,1,.34,8.39L727,524.48a4.47,4.47,0,0,0-.7-4.66,8.58,8.58,0,0,0-3.23-2.25,7.38,7.38,0,0,0-4.16-.72,3.22,3.22,0,0,0-2.53,2,2.66,2.66,0,0,0,.39,2.88,18.66,18.66,0,0,0,3.26,2.83l4.54,3.43a13.87,13.87,0,0,1,4,4.22,7.61,7.61,0,0,1,0,6.92,9,9,0,0,1-5.84,5.19c-2.77.83-6,.46-9.65-1.15s-6.31-3.76-7.73-6.39a9.2,9.2,0,0,1-.16-8.39Z" transform="translate(-631.13 -443.5)"/><path class="cls-2" d="M710.83,530.81a6,6,0,0,0-.27,2.23,6,6,0,0,0,.17,1.11,4.27,4.27,0,0,0,.47,1,7.71,7.71,0,0,0,3.49,2.66,12.11,12.11,0,0,0,4.28,1.12,3.28,3.28,0,0,0,3.24-2,2.21,2.21,0,0,0,0-1.85,7,7,0,0,0-1.33-1.59,27.66,27.66,0,0,0-3.54-2.69c-.63-.43-1.23-.89-1.87-1.29s-1.28-.9-1.88-1.39a21.66,21.66,0,0,1-3.26-3.37h0l0,0a7.68,7.68,0,0,1-1.06-5.66,11.84,11.84,0,0,1,.87-2.72,9.63,9.63,0,0,1,6.46-5.49,12.07,12.07,0,0,1,5.73,0,19,19,0,0,1,2.69.81,21.25,21.25,0,0,1,2.56,1.13,14.89,14.89,0,0,1,4.38,3.63,12.17,12.17,0,0,1,1.58,2.44,9.94,9.94,0,0,1,.86,2.81,10.21,10.21,0,0,1-.79,5.79l-.39.86-.88-.38-5.72-2.47-.92-.39.4-.92a3.49,3.49,0,0,0-.3-3.31,6.13,6.13,0,0,0-1.35-1.34,7.63,7.63,0,0,0-1.72-1h0l0,0a6.41,6.41,0,0,0-2.79-.68c-.24,0-.49,0-.72,0a2.22,2.22,0,0,0-.58.13,2.26,2.26,0,0,0-.95.67,2.14,2.14,0,0,0-.32.5,2.06,2.06,0,0,0-.2.55,1.71,1.71,0,0,0,.13,1.07,1.61,1.61,0,0,0,.3.45l.54.57c.38.37.77.73,1.17,1.06l5.24,4,1.36,1a14.82,14.82,0,0,1,3.5,3.94l0,0v0a8.32,8.32,0,0,1-.07,7.66l0-.06a9.63,9.63,0,0,1-3,3.9,10.15,10.15,0,0,1-4.51,1.91,18.5,18.5,0,0,1-16.43-7.81,9.47,9.47,0,0,1-.26-9.1l.07-.15.14.07Zm0,0-5.69-2.29.22-.08a8.94,8.94,0,0,0,.58,8.57,15.53,15.53,0,0,0,7,5.45,14.72,14.72,0,0,0,8.61,1.45,8.79,8.79,0,0,0,3.87-1.74,8.22,8.22,0,0,0,2.48-3.37v0l0,0a6.86,6.86,0,0,0-.07-6.18l0,0a13.36,13.36,0,0,0-1.94-2.43,22.15,22.15,0,0,0-2.49-2l-5.37-4c-.45-.37-.89-.75-1.3-1.16l-.62-.63a3.68,3.68,0,0,1-.61-.92,3.56,3.56,0,0,1-.28-2.18,3.63,3.63,0,0,1,.34-1,4,4,0,0,1,.56-.9,4.28,4.28,0,0,1,1.73-1.24,4.35,4.35,0,0,1,1-.24,7.5,7.5,0,0,1,.94,0,8.35,8.35,0,0,1,3.63.86l-.08,0a9.76,9.76,0,0,1,2.17,1.2,8.32,8.32,0,0,1,1.82,1.79,5.46,5.46,0,0,1,.5,5.22l-.52-1.32,5.71,2.52-1.27.49a8.3,8.3,0,0,0,0-7,10.25,10.25,0,0,0-1.32-2.06,12.79,12.79,0,0,0-3.81-3.21,21.06,21.06,0,0,0-4.77-1.81,10.29,10.29,0,0,0-4.9,0,8.43,8.43,0,0,0-4.12,2.46,8.14,8.14,0,0,0-1.36,2,11,11,0,0,0-.81,2.36,6.16,6.16,0,0,0,.74,4.65l0,0a19.34,19.34,0,0,0,3,3.23,20.39,20.39,0,0,0,1.74,1.36c.63.43,1.23.9,1.84,1.35s1.2.9,1.84,1.35a15.44,15.44,0,0,1,1.78,1.55q.4.42.78.87a3.64,3.64,0,0,1,.69,1.08,3.09,3.09,0,0,1-.1,2.56,4,4,0,0,1-4.06,2.34,13.05,13.05,0,0,1-4.42-1.35,7.88,7.88,0,0,1-3.51-3,4.62,4.62,0,0,1-.44-1.08,6.31,6.31,0,0,1-.11-1.15A6.07,6.07,0,0,1,710.83,530.81Z" transform="translate(-631.13 -443.5)"/><path class="cls-1" d="M710.83,530.81a6.18,6.18,0,0,0-.19,3.38q.71,2.41,4.29,4a11.62,11.62,0,0,0,3.69,1,3.62,3.62,0,0,0,4-2.19,2.67,2.67,0,0,0-.29-2.72,14.7,14.7,0,0,0-3.37-3.07l-2.78-2a20.65,20.65,0,0,1-5.29-4.92c-1.34-2.14-1.41-4.61-.19-7.41a8.93,8.93,0,0,1,5.59-5.12q3.91-1.31,9.35,1a13.87,13.87,0,0,1,6.73,5.78,9.3,9.3,0,0,1,.34,8.39L727,524.48a4.47,4.47,0,0,0-.7-4.66,8.58,8.58,0,0,0-3.23-2.25,7.38,7.38,0,0,0-4.16-.72,3.22,3.22,0,0,0-2.53,2,2.66,2.66,0,0,0,.39,2.88,18.66,18.66,0,0,0,3.26,2.83l4.54,3.43a13.87,13.87,0,0,1,4,4.22,7.61,7.61,0,0,1,0,6.92,9,9,0,0,1-5.84,5.19c-2.77.83-6,.46-9.65-1.15s-6.31-3.76-7.73-6.39a9.2,9.2,0,0,1-.16-8.39Z" transform="translate(-631.13 -443.5)"/><path class="cls-2" d="M710.83,530.81a6,6,0,0,0-.27,2.23,6,6,0,0,0,.17,1.11,4.27,4.27,0,0,0,.47,1,7.71,7.71,0,0,0,3.49,2.66,12.11,12.11,0,0,0,4.28,1.12,3.28,3.28,0,0,0,3.24-2,2.21,2.21,0,0,0,0-1.85,7,7,0,0,0-1.33-1.59,27.66,27.66,0,0,0-3.54-2.69c-.63-.43-1.23-.89-1.87-1.29s-1.28-.9-1.88-1.39a21.66,21.66,0,0,1-3.26-3.37h0l0,0a7.68,7.68,0,0,1-1.06-5.66,11.84,11.84,0,0,1,.87-2.72,9.63,9.63,0,0,1,6.46-5.49,12.07,12.07,0,0,1,5.73,0,19,19,0,0,1,2.69.81,21.25,21.25,0,0,1,2.56,1.13,14.89,14.89,0,0,1,4.38,3.63,12.17,12.17,0,0,1,1.58,2.44,9.94,9.94,0,0,1,.86,2.81,10.21,10.21,0,0,1-.79,5.79l-.39.86-.88-.38-5.72-2.47-.92-.39.4-.92a3.49,3.49,0,0,0-.3-3.31,6.13,6.13,0,0,0-1.35-1.34,7.63,7.63,0,0,0-1.72-1h0l0,0a6.41,6.41,0,0,0-2.79-.68c-.24,0-.49,0-.72,0a2.22,2.22,0,0,0-.58.13,2.26,2.26,0,0,0-.95.67,2.14,2.14,0,0,0-.32.5,2.06,2.06,0,0,0-.2.55,1.71,1.71,0,0,0,.13,1.07,1.61,1.61,0,0,0,.3.45l.54.57c.38.37.77.73,1.17,1.06l5.24,4,1.36,1a14.82,14.82,0,0,1,3.5,3.94l0,0v0a8.32,8.32,0,0,1-.07,7.66l0-.06a9.63,9.63,0,0,1-3,3.9,10.15,10.15,0,0,1-4.51,1.91,18.5,18.5,0,0,1-16.43-7.81,9.47,9.47,0,0,1-.26-9.1l.07-.15.14.07Zm0,0-5.69-2.29.22-.08a8.94,8.94,0,0,0,.58,8.57,15.53,15.53,0,0,0,7,5.45,14.72,14.72,0,0,0,8.61,1.45,8.79,8.79,0,0,0,3.87-1.74,8.22,8.22,0,0,0,2.48-3.37v0l0,0a6.86,6.86,0,0,0-.07-6.18l0,0a13.36,13.36,0,0,0-1.94-2.43,22.15,22.15,0,0,0-2.49-2l-5.37-4c-.45-.37-.89-.75-1.3-1.16l-.62-.63a3.68,3.68,0,0,1-.61-.92,3.56,3.56,0,0,1-.28-2.18,3.63,3.63,0,0,1,.34-1,4,4,0,0,1,.56-.9,4.28,4.28,0,0,1,1.73-1.24,4.35,4.35,0,0,1,1-.24,7.5,7.5,0,0,1,.94,0,8.35,8.35,0,0,1,3.63.86l-.08,0a9.76,9.76,0,0,1,2.17,1.2,8.32,8.32,0,0,1,1.82,1.79,5.46,5.46,0,0,1,.5,5.22l-.52-1.32,5.71,2.52-1.27.49a8.3,8.3,0,0,0,0-7,10.25,10.25,0,0,0-1.32-2.06,12.79,12.79,0,0,0-3.81-3.21,21.06,21.06,0,0,0-4.77-1.81,10.29,10.29,0,0,0-4.9,0,8.43,8.43,0,0,0-4.12,2.46,8.14,8.14,0,0,0-1.36,2,11,11,0,0,0-.81,2.36,6.16,6.16,0,0,0,.74,4.65l0,0a19.34,19.34,0,0,0,3,3.23,20.39,20.39,0,0,0,1.74,1.36c.63.43,1.23.9,1.84,1.35s1.2.9,1.84,1.35a15.44,15.44,0,0,1,1.78,1.55q.4.42.78.87a3.64,3.64,0,0,1,.69,1.08,3.09,3.09,0,0,1-.1,2.56,4,4,0,0,1-4.06,2.34,13.05,13.05,0,0,1-4.42-1.35,7.88,7.88,0,0,1-3.51-3,4.62,4.62,0,0,1-.44-1.08,6.31,6.31,0,0,1-.11-1.15A6.07,6.07,0,0,1,710.83,530.81Z" transform="translate(-631.13 -443.5)"/><path class="cls-1" d="M639.55,498a6.21,6.21,0,0,0,1.18,3.18q1.62,1.92,5.53,1.92a11.62,11.62,0,0,0,3.8-.5,3.62,3.62,0,0,0,2.78-3.6,2.66,2.66,0,0,0-1.36-2.38,14.34,14.34,0,0,0-4.31-1.45l-3.36-.74a21.47,21.47,0,0,1-6.82-2.38c-2.07-1.43-3.11-3.68-3.11-6.72A8.9,8.9,0,0,1,637,478.4c2.08-1.85,5.09-2.76,9-2.76a13.82,13.82,0,0,1,8.48,2.6,9.24,9.24,0,0,1,3.68,7.55h-6.23a4.48,4.48,0,0,0-2.51-4,8.55,8.55,0,0,0-3.86-.77,7.31,7.31,0,0,0-4.16,1,3.21,3.21,0,0,0-1.54,2.82,2.67,2.67,0,0,0,1.52,2.49,18.22,18.22,0,0,0,4.16,1.28l5.44,1.29a13.73,13.73,0,0,1,5.37,2.26,7.6,7.6,0,0,1,2.78,6.33,8.93,8.93,0,0,1-3.3,7.07q-3.29,2.82-9.29,2.81c-4.08,0-7.27-.92-9.64-2.77A9.16,9.16,0,0,1,633.4,498Z" transform="translate(-631.13 -443.5)"/><path class="cls-2" d="M639.55,498a6,6,0,0,0,.65,2.16,5.76,5.76,0,0,0,.6.94,4.14,4.14,0,0,0,.83.73,7.84,7.84,0,0,0,4.26,1,12.19,12.19,0,0,0,4.37-.67,3.24,3.24,0,0,0,2.16-3.15,2.21,2.21,0,0,0-.73-1.7,7.24,7.24,0,0,0-1.87-.92,14,14,0,0,0-2.1-.61c-.72-.12-1.48-.29-2.22-.44s-1.48-.32-2.23-.44a22.61,22.61,0,0,1-2.27-.53,22.06,22.06,0,0,1-4.34-1.76h0l0,0a7.71,7.71,0,0,1-3.23-4.78,12.54,12.54,0,0,1-.29-2.85,9.68,9.68,0,0,1,.46-2.87,9.81,9.81,0,0,1,3.32-4.73,12.11,12.11,0,0,1,5.26-2.28,18.93,18.93,0,0,1,2.79-.32,21.82,21.82,0,0,1,2.8,0,14.91,14.91,0,0,1,5.47,1.57,12.09,12.09,0,0,1,2.43,1.59,10.35,10.35,0,0,1,1.93,2.24,10.22,10.22,0,0,1,1.59,5.62v.95h-1l-6.23,0h-1v-1a3.52,3.52,0,0,0-1.61-2.92,6.17,6.17,0,0,0-1.77-.69,7.59,7.59,0,0,0-2-.2h-.08a6.23,6.23,0,0,0-2.83.49,4.48,4.48,0,0,0-1.16.66,2.41,2.41,0,0,0-.62,1,2.29,2.29,0,0,0-.11.58,2.72,2.72,0,0,0,0,.6,1.79,1.79,0,0,0,.52.94,1.6,1.6,0,0,0,.44.31l.71.3q.75.28,1.5.51l6.41,1.54,1.65.39a12.63,12.63,0,0,1,1.68.54,14.55,14.55,0,0,1,3.11,1.67l0,0,0,0a8.37,8.37,0,0,1,3,7v-.06a9.78,9.78,0,0,1-1.25,4.79,10.39,10.39,0,0,1-3.38,3.53,15.92,15.92,0,0,1-9.21,2.1,15.63,15.63,0,0,1-9-2.7,9.45,9.45,0,0,1-3.89-8.22v-.17h.16Zm0,0-6.15.19.17-.16a8.91,8.91,0,0,0,4,7.62,15.24,15.24,0,0,0,8.55,2.22,14.76,14.76,0,0,0,8.46-2.11,8.94,8.94,0,0,0,2.86-3.14,8.16,8.16,0,0,0,1-4.07v-.06a6.91,6.91,0,0,0-2.55-5.64l0,0a12.9,12.9,0,0,0-2.75-1.45,21,21,0,0,0-3.08-.82l-6.54-1.52c-.56-.16-1.11-.34-1.66-.55l-.82-.33a4,4,0,0,1-.93-.63,3.63,3.63,0,0,1-1.08-1.92,4.91,4.91,0,0,1-.07-1.05,4.7,4.7,0,0,1,.18-1.06,4.08,4.08,0,0,1,1.14-1.8,6,6,0,0,1,1.69-1,8.24,8.24,0,0,1,3.67-.67h-.09a9.76,9.76,0,0,1,2.47.23,7.83,7.83,0,0,1,2.38.93,5.43,5.43,0,0,1,2.55,4.57l-1-1,6.23,0-1,1a8.39,8.39,0,0,0-1.26-4.58,8.23,8.23,0,0,0-1.55-1.83,10.29,10.29,0,0,0-2-1.36,12.9,12.9,0,0,0-4.78-1.42,21.74,21.74,0,0,0-2.56,0,17.78,17.78,0,0,0-2.54.27,10.47,10.47,0,0,0-4.53,1.9,8.48,8.48,0,0,0-2.82,3.89,8.14,8.14,0,0,0-.44,2.4,10.3,10.3,0,0,0,.18,2.49,6.3,6.3,0,0,0,2.53,4l0,0a20.71,20.71,0,0,0,4,1.77,21.64,21.64,0,0,0,2.14.55c.74.14,1.48.33,2.22.5s1.46.35,2.23.5a14.58,14.58,0,0,1,2.24.71,10.27,10.27,0,0,1,1.07.48,4.23,4.23,0,0,1,1.07.71,3.14,3.14,0,0,1,.93,2.39,4,4,0,0,1-2.79,3.76,12.83,12.83,0,0,1-4.6.51,7.89,7.89,0,0,1-4.39-1.3,4.59,4.59,0,0,1-.84-.81,6.2,6.2,0,0,1-.56-1A6.28,6.28,0,0,1,639.55,498Z" transform="translate(-631.13 -443.5)"/><path class="cls-1" d="M639.55,498a6.21,6.21,0,0,0,1.18,3.18q1.62,1.92,5.53,1.92a11.62,11.62,0,0,0,3.8-.5,3.62,3.62,0,0,0,2.78-3.6,2.66,2.66,0,0,0-1.36-2.38,14.34,14.34,0,0,0-4.31-1.45l-3.36-.74a21.47,21.47,0,0,1-6.82-2.38c-2.07-1.43-3.11-3.68-3.11-6.72A8.9,8.9,0,0,1,637,478.4c2.08-1.85,5.09-2.76,9-2.76a13.82,13.82,0,0,1,8.48,2.6,9.24,9.24,0,0,1,3.68,7.55h-6.23a4.48,4.48,0,0,0-2.51-4,8.55,8.55,0,0,0-3.86-.77,7.31,7.31,0,0,0-4.16,1,3.21,3.21,0,0,0-1.54,2.82,2.67,2.67,0,0,0,1.52,2.49,18.22,18.22,0,0,0,4.16,1.28l5.44,1.29a13.73,13.73,0,0,1,5.37,2.26,7.6,7.6,0,0,1,2.78,6.33,8.93,8.93,0,0,1-3.3,7.07q-3.29,2.82-9.29,2.81c-4.08,0-7.27-.92-9.64-2.77A9.16,9.16,0,0,1,633.4,498Z" transform="translate(-631.13 -443.5)"/><path class="cls-2" d="M639.55,498a6,6,0,0,0,.65,2.16,5.76,5.76,0,0,0,.6.94,4.14,4.14,0,0,0,.83.73,7.84,7.84,0,0,0,4.26,1,12.19,12.19,0,0,0,4.37-.67,3.24,3.24,0,0,0,2.16-3.15,2.21,2.21,0,0,0-.73-1.7,7.24,7.24,0,0,0-1.87-.92,14,14,0,0,0-2.1-.61c-.72-.12-1.48-.29-2.22-.44s-1.48-.32-2.23-.44a22.61,22.61,0,0,1-2.27-.53,22.06,22.06,0,0,1-4.34-1.76h0l0,0a7.71,7.71,0,0,1-3.23-4.78,12.54,12.54,0,0,1-.29-2.85,9.68,9.68,0,0,1,.46-2.87,9.81,9.81,0,0,1,3.32-4.73,12.11,12.11,0,0,1,5.26-2.28,18.93,18.93,0,0,1,2.79-.32,21.82,21.82,0,0,1,2.8,0,14.91,14.91,0,0,1,5.47,1.57,12.09,12.09,0,0,1,2.43,1.59,10.35,10.35,0,0,1,1.93,2.24,10.22,10.22,0,0,1,1.59,5.62v.95h-1l-6.23,0h-1v-1a3.52,3.52,0,0,0-1.61-2.92,6.17,6.17,0,0,0-1.77-.69,7.59,7.59,0,0,0-2-.2h-.08a6.23,6.23,0,0,0-2.83.49,4.48,4.48,0,0,0-1.16.66,2.41,2.41,0,0,0-.62,1,2.29,2.29,0,0,0-.11.58,2.72,2.72,0,0,0,0,.6,1.79,1.79,0,0,0,.52.94,1.6,1.6,0,0,0,.44.31l.71.3q.75.28,1.5.51l6.41,1.54,1.65.39a12.63,12.63,0,0,1,1.68.54,14.55,14.55,0,0,1,3.11,1.67l0,0,0,0a8.37,8.37,0,0,1,3,7v-.06a9.78,9.78,0,0,1-1.25,4.79,10.39,10.39,0,0,1-3.38,3.53,15.92,15.92,0,0,1-9.21,2.1,15.63,15.63,0,0,1-9-2.7,9.45,9.45,0,0,1-3.89-8.22v-.17h.16Zm0,0-6.15.19.17-.16a8.91,8.91,0,0,0,4,7.62,15.24,15.24,0,0,0,8.55,2.22,14.76,14.76,0,0,0,8.46-2.11,8.94,8.94,0,0,0,2.86-3.14,8.16,8.16,0,0,0,1-4.07v-.06a6.91,6.91,0,0,0-2.55-5.64l0,0a12.9,12.9,0,0,0-2.75-1.45,21,21,0,0,0-3.08-.82l-6.54-1.52c-.56-.16-1.11-.34-1.66-.55l-.82-.33a4,4,0,0,1-.93-.63,3.63,3.63,0,0,1-1.08-1.92,4.91,4.91,0,0,1-.07-1.05,4.7,4.7,0,0,1,.18-1.06,4.08,4.08,0,0,1,1.14-1.8,6,6,0,0,1,1.69-1,8.24,8.24,0,0,1,3.67-.67h-.09a9.76,9.76,0,0,1,2.47.23,7.83,7.83,0,0,1,2.38.93,5.43,5.43,0,0,1,2.55,4.57l-1-1,6.23,0-1,1a8.39,8.39,0,0,0-1.26-4.58,8.23,8.23,0,0,0-1.55-1.83,10.29,10.29,0,0,0-2-1.36,12.9,12.9,0,0,0-4.78-1.42,21.74,21.74,0,0,0-2.56,0,17.78,17.78,0,0,0-2.54.27,10.47,10.47,0,0,0-4.53,1.9,8.48,8.48,0,0,0-2.82,3.89,8.14,8.14,0,0,0-.44,2.4,10.3,10.3,0,0,0,.18,2.49,6.3,6.3,0,0,0,2.53,4l0,0a20.71,20.71,0,0,0,4,1.77,21.64,21.64,0,0,0,2.14.55c.74.14,1.48.33,2.22.5s1.46.35,2.23.5a14.58,14.58,0,0,1,2.24.71,10.27,10.27,0,0,1,1.07.48,4.23,4.23,0,0,1,1.07.71,3.14,3.14,0,0,1,.93,2.39,4,4,0,0,1-2.79,3.76,12.83,12.83,0,0,1-4.6.51,7.89,7.89,0,0,1-4.39-1.3,4.59,4.59,0,0,1-.84-.81,6.2,6.2,0,0,1-.56-1A6.28,6.28,0,0,1,639.55,498Z" transform="translate(-631.13 -443.5)"/><polygon class="cls-1" points="25.71 33.91 32.07 33.43 33.03 46.19 44.03 32.53 52.39 31.89 40.65 45.59 55.4 62.8 47.07 63.43 36.51 50.64 33.64 54.04 34.42 64.39 28.06 64.87 25.71 33.91"/><path class="cls-2" d="M656.84,477.41l6.34-.66.18,0,0,.19,1.24,12.74-.81-.26,10.79-13.82.19-.23.31,0,8.36-.75,2-.18-1.3,1.54-11.67,13.76v-1.2l7.41,8.57c2.47,2.86,5,5.71,7.38,8.6l1.25,1.48-1.92.13-8.33.6-.49,0-.31-.38L667,494.69h1.34l-2.88,3.38.2-.61.65,10.36.05.73-.72.05-6.36.4-.65,0,0-.63c-.32-5.24-.65-10.48-.9-15.65Zm0,0,1.54,15.6c.53,5.15,1,10.23,1.44,15.31l-.68-.58,6.35-.58-.67.78-.9-10.34,0-.34.23-.27,2.85-3.41.67-.8.67.8,10.62,12.75-.8-.34,8.32-.67-.67,1.61c-2.48-2.84-4.92-5.73-7.36-8.61l-7.34-8.63-.51-.61.51-.59,11.82-13.63.68,1.36-8.37.52.5-.27L664.52,490l-.75.91-.06-1.16L663,477l.19.16Z" transform="translate(-631.13 -443.5)"/><polygon class="cls-1" points="25.71 33.91 32.07 33.43 33.03 46.19 44.03 32.53 52.39 31.89 40.65 45.59 55.4 62.8 47.07 63.43 36.51 50.64 33.64 54.04 34.42 64.39 28.06 64.87 25.71 33.91"/><path class="cls-2" d="M656.84,477.41l6.34-.66.18,0,0,.19,1.24,12.74-.81-.26,10.79-13.82.19-.23.31,0,8.36-.75,2-.18-1.3,1.54-11.67,13.76v-1.2l7.41,8.57c2.47,2.86,5,5.71,7.38,8.6l1.25,1.48-1.92.13-8.33.6-.49,0-.31-.38L667,494.69h1.34l-2.88,3.38.2-.61.65,10.36.05.73-.72.05-6.36.4-.65,0,0-.63c-.32-5.24-.65-10.48-.9-15.65Zm0,0,1.54,15.6c.53,5.15,1,10.23,1.44,15.31l-.68-.58,6.35-.58-.67.78-.9-10.34,0-.34.23-.27,2.85-3.41.67-.8.67.8,10.62,12.75-.8-.34,8.32-.67-.67,1.61c-2.48-2.84-4.92-5.73-7.36-8.61l-7.34-8.63-.51-.61.51-.59,11.82-13.63.68,1.36-8.37.52.5-.27L664.52,490l-.75.91-.06-1.16L663,477l.19.16Z" transform="translate(-631.13 -443.5)"/><rect class="cls-1" x="672.99" y="488.04" width="31.05" height="6.44" transform="translate(-460.3 716.64) rotate(-87.77)"/><path class="cls-2" d="M684.69,506.65l-.05-7.54c0-2.54,0-5.13,0-7.73s0-5.23.09-7.87.1-5.28.2-7.92l0-1,1,0,6.44.22,1,0,0,1c-.21,5.17-.45,10.33-.75,15.5s-.63,10.33-1.11,15.49l0,.37-.33,0Zm0,0,6.45-.1-.36.34c-.07-5.19,0-10.36.1-15.54s.27-10.34.46-15.51l.95,1-6.43-.28,1-.93c-.1,2.53-.26,5.06-.4,7.59s-.34,5.08-.51,7.65-.38,5.14-.61,7.78Z" transform="translate(-631.13 -443.5)"/><rect class="cls-1" x="672.99" y="488.04" width="31.05" height="6.44" transform="translate(-460.3 716.64) rotate(-87.77)"/><path class="cls-2" d="M684.69,506.65l-.05-7.54c0-2.54,0-5.13,0-7.73s0-5.23.09-7.87.1-5.28.2-7.92l0-1,1,0,6.44.22,1,0,0,1c-.21,5.17-.45,10.33-.75,15.5s-.63,10.33-1.11,15.49l0,.37-.33,0Zm0,0,6.45-.1-.36.34c-.07-5.19,0-10.36.1-15.54s.27-10.34.46-15.51l.95,1-6.43-.28,1-.93c-.1,2.53-.26,5.06-.4,7.59s-.34,5.08-.51,7.65-.38,5.14-.61,7.78Z" transform="translate(-631.13 -443.5)"/><polygon class="cls-1" points="63.01 33.1 69.31 31.54 75.41 56.27 90.45 52.56 91.79 57.97 70.44 63.24 63.01 33.1"/><path class="cls-2" d="M694.14,476.6l6.24-1.81.24-.07.07.26c1.16,4.08,2.31,8.17,3.41,12.27l3.27,12.31-1-.63c5-1.29,10-2.58,15-3.82l.94-.24.24.95,1.36,5.41.25,1-1,.23L712.48,505l-10.71,2.53-.84.2-.19-.82c-1.18-5.14-2.34-10.28-3.43-15.36Zm0,0,4.26,15.15c1.39,5,2.71,9.88,4,14.79l-1-.63L712,503.17l10.66-2.67-.73,1.21-1.32-5.41,1.19.71q-7.53,1.85-15.08,3.6l-.85.2-.19-.83-2.83-12.42c-.93-4.15-1.81-8.3-2.68-12.46l.31.19Z" transform="translate(-631.13 -443.5)"/><polygon class="cls-1" points="63.01 33.1 69.31 31.54 75.41 56.27 90.45 52.56 91.79 57.97 70.44 63.24 63.01 33.1"/><path class="cls-2" d="M694.14,476.6l6.24-1.81.24-.07.07.26c1.16,4.08,2.31,8.17,3.41,12.27l3.27,12.31-1-.63c5-1.29,10-2.58,15-3.82l.94-.24.24.95,1.36,5.41.25,1-1,.23L712.48,505l-10.71,2.53-.84.2-.19-.82c-1.18-5.14-2.34-10.28-3.43-15.36Zm0,0,4.26,15.15c1.39,5,2.71,9.88,4,14.79l-1-.63L712,503.17l10.66-2.67-.73,1.21-1.32-5.41,1.19.71q-7.53,1.85-15.08,3.6l-.85.2-.19-.83-2.83-12.42c-.93-4.15-1.81-8.3-2.68-12.46l.31.19Z" transform="translate(-631.13 -443.5)"/><polygon class="cls-1" points="87.47 30.76 93.76 32.37 87.41 57.04 102.42 60.89 101.04 66.31 79.74 60.83 87.47 30.76"/><path class="cls-2" d="M718.6,474.26l6.35,1.36.24.05-.05.27c-.92,4.14-1.84,8.29-2.81,12.42l-3,12.39-.62-1.05c5,1.23,10,2.46,15,3.74l.94.25-.24.95-1.36,5.41-.25,1-1-.26L721.28,508l-10.62-2.84-.84-.23.22-.81C711.43,499,712.85,494,714.3,489Zm0,0-3.43,15.37c-1.13,5-2.29,10-3.47,14.91l-.62-1,10.68,2.64,10.66,2.7-1.22.72,1.4-5.41.71,1.19c-5-1.29-10-2.63-15-4l-.84-.22.22-.83,3.4-12.27c1.14-4.09,2.33-8.17,3.54-12.24l.18.31Z" transform="translate(-631.13 -443.5)"/></svg>