<svg id="refresh" xmlns="http://www.w3.org/2000/svg" viewBox="0 0 24 24"><defs><style>.cls-1{fill:none;}.cls-2{fill:#444;}</style></defs><title>refresh</title><path class="cls-1" d="M555.71,376.28h24v24h-24Z" transform="translate(-555.71 -376.28)"/><path class="cls-2" d="M573.36,382.63a8,8,0,0,0-6.48-2.31,8,8,0,1,0,8,11.4,1,1,0,0,0-.9-1.44,1,1,0,0,0-.88.53,6,6,0,1,1-5.43-8.53,5.91,5.91,0,0,1,4.22,1.78l-1.51,1.51a1,1,0,0,0,.7,1.71h3.59a1,1,0,0,0,1-1v-3.59A1,1,0,0,0,574,382Z" transform="translate(-555.71 -376.28)"/></svg>