<svg id="Layer_27_copy_2" data-name="Layer 27 copy 2" xmlns="http://www.w3.org/2000/svg" viewBox="0 0 20 20"><defs><style>.cls-1{fill:#444;}</style></defs><title>speech-search</title><path class="cls-1" d="M631.27,361.19a10,10,0,1,0,10,10A10,10,0,0,0,631.27,361.19ZM629.34,367a1.93,1.93,0,0,1,3.86,0v3.87a1.93,1.93,0,0,1-3.86,0Zm2.57,8.33v1.34a.65.65,0,0,1-1.29,0v-1.34a4.5,4.5,0,0,1-3.8-3.73.64.64,0,0,1,.64-.73.64.64,0,0,1,.63.55,3.23,3.23,0,0,0,6.36,0,.64.64,0,0,1,1.27.18A4.5,4.5,0,0,1,631.91,375.33Z" transform="translate(-621.27 -361.19)"/></svg>